<svg width="484" height="144" xmlns="http://www.w3.org/2000/svg">
  <path d="M480.16 57.58Zm-.34-17.64c-1.33-1.97-2.35-3.9-2.56-6.24.21 2.35 1.23 4.27 2.56 6.24.29.43.58.86.86 1.31-.28-.45-.57-.88-.86-1.31Zm-3.53-5.79Zm-.34 62.24Zm5.65-53.14Zm-1.06 9.3c.27-1.23.61-2.44.89-3.66-.28 1.22-.62 2.43-.89 3.66Zm-6.47 45.87Zm-.71 1.2c-.76.09-1.62-.02-2.35-.08.73.06 1.59.17 2.35.08Zm-3.69-8.71Zm-.99-5.18c-.25-1.6-.3-3.22-.5-4.82a37.91 37.91 0 0 1 0 0c.2 1.6.25 3.22.5 4.82Zm.14 3.56c-.26-.51-.55-1.04-.8-1.59.25.55.54 1.08.8 1.59Zm-1.67-6.55c0-.09-.02-.17-.03-.26l.03.26Zm-.07-.58-.1-.77.1.77Zm-.4-3.68Zm.54 4.82-.03-.24.03.24Zm1.3-29.6Zm.12 12.7Zm.8-21.68.01-.35-.01.35Zm.2 12.38-.02.1.02-.1Zm-.12-13.83Zm.64-1.75Zm.63 1.23c-.2.53-.16 1.14-.16 1.72 0-.58-.05-1.2.16-1.72.16-.4.46-.74.75-1.09-.29.35-.6.7-.75 1.09Zm1.39 53.63.1.35-.1-.35c-.2-.68-.36-1.24-.47-1.5.11.26.27.82.47 1.5Zm-24.06 1.95Zm-4.48-62.5Zm3.4 62.4.64.06-.64-.06Zm-8.31-.97Zm-8.75-1.65Zm-2.72-58.28Zm-10.82 53.85.28.11a17.06 17.06 0 0 0-.29-.11Zm-3.99-1 .1.01-.1-.01Zm-6.94 0Zm-3.1-.13h.03a31.78 31.78 0 0 0-.04 0Zm-.66-.07Zm-.16-.02Zm-1.32-49.51Zm-.72.08Zm-2.18 50.36Zm-.82.98.25-.28-.25.28Zm.28-.31Zm-.29.32Zm-1.83 1.75Zm-2.54 1.94.35-.26a35.5 35.5 0 0 0-.35.26Zm.52-53.71Zm-2.38.67Zm-1 .3.7-.21-.7.2ZM385.22 90c.35-.24.64-.42.84-.66-.2.24-.49.42-.83.66Zm-.76.54Zm-.62.43Zm-.41.3.21-.15-.21.15Zm-.5 10.1Zm-1.63-8.78.1-.05-.1.05Zm-.85 11Zm-1.96 1.55Zm-2.78 1.54Zm-.68.3Zm-2 .67Zm-3.01 1.5-.38.3.38-.3Zm-3.17-12.57-.35.01h.35Zm.7-.02Zm-4.35 1.32Zm-1.3 13.94Zm-5.92-13.88Zm.07 15.5Zm-.12 0Zm-1.1.08Zm-1 .02h.39l.5-.02-.88.02Zm-1.8-.06Zm-2.9-.29-.04-.06.03.06Zm-.25-.33Zm-1-.88a4.66 4.66 0 0 1 0 0Zm-.07-.03Zm-.01 3.84.05-.08.01-.03-.06.1Zm0-2.2Zm-2.56-2.33c.29.27.55.57.82.86-.27-.3-.53-.6-.82-.86Zm.5 8-.01.01v-.01Zm.43-22.67c-.48-.26-.94-.57-1.41-.88.47.3.94.62 1.41.88Zm-1.65 14.19.04.01-.04-.01Zm.3 23.67Zm-.33-2.04c0 .03 0 .06.02.08l-.02-.08Zm-.18 4.05.03-.05-.03.05Zm-.15.23.02-.02-.02.02Zm-1.67 1.38.16-.07-.16.07Zm-2.06-42.16-.27.1.27-.1Zm-.72-25.1Zm.25 67.77Zm-1.5-.56Zm-.93-30.95Zm-1.56 28.11.7.82.7.8c-.47-.53-.94-1.07-1.4-1.62Zm-.33-28.63.1-.24-.1.24Zm-.2.38-.15.28.16-.28Zm-1.1 1.6.2-.23.03-.04-.23.28Zm-1.05 1.1Zm-4.2 3.39Zm-4.24 2.47Zm-.63.23.23-.08-.23.08Zm-.05.03h.02-.02Zm-.32-.36.07.08.06.06-.13-.14Zm.08 3.2Zm-.06.55Zm-1.67-3.56-.28-.18.28.18Zm-1.23 10.16Zm-.98.77Zm-.61-12.37Zm-.56 12.87c.02 0 .04.03.06.04l-.06-.04Zm-.09 3.86Zm-.23 2.96.08-.87-.07.87Zm-2.79 6.05.22-.14-.22.14Zm-2.25-35.05Zm.68 1h.03-.03Zm-.36 4.82Zm-.15 9.58-.01.04.01-.04Zm.02-10.06.13.48-.13-.48Zm-.12 30.48Zm-.99.03Zm-1.15-8.58v.01-.09.08Zm-.34 8.31Zm-.5-.18Zm-.5-.24Zm-.1-5.89-.04-.04.04.04Zm-.63 3.71Zm-.26 1.4Zm-.07.25.05-.18-.05.18Zm-.56 1.17.16-.26-.16.26Zm.04-15.48Zm-2.19 17.12Zm-1.17-19.99c-.12.23-.1.52.15.7-.25-.18-.27-.47-.15-.7Zm-3.16 19.25.05.06-.05-.06Zm.09.1.05.07-.05-.07Zm-.23-.29Zm-.88-1.88Zm-1.78-9.8.01.05-.01-.06Zm-.37-1.7.04.12-.04-.13Zm-.24-19.2v-.02.01Zm-.18-2.26a1.23 1.23 0 0 0-.02 0h.02Zm-.23 19.4.03.07-.02-.06Zm0-14.33v-.02.02Zm-.95 4.59.37-1.8-.37 1.8Zm-.06 7.4Zm-.41-1.12.01.04-.01-.04Zm-.18-.86Zm-.06-1.23Zm.02.84v.08-.08Zm-.01-.22Zm0-.32v.2-.2Zm-.73-14.9Zm-1.21-.67Zm-3.5-8.81h-.01Zm.44 5.16-.09-.2.1.2Zm1.67-7h.02-.02Zm7.97 12.35Zm.46 1.2Zm-.07-1.18h.12-.13Zm.68 34.99-.06-.06.06.06Zm.21.16-.06-.04.06.04Zm.12.08-.06-.04.06.04Zm.09-35.22h-.45.45Zm5.04-.46-.2.04.2-.04Zm.03-18.33Zm2.85-.9Zm-1.13-1.33.07-.1-.07.1-.12.17.12-.17Zm.86-1.05Zm-2.3-25.48Zm-5.03.1Zm-7.55 12.68.3.1 1.45.42-1.75-.52Zm-4.9-1.52Zm-2.18-.95.11.05-.11-.05Zm-.8-.48Zm-.16-.2Zm-.07-.12Zm-.13-.6.02.15-.01-.15Zm.04-.37Zm2.44-10.86Zm.97.14Zm1.85.29Zm15.34 2.94Zm3.37-1.16h-.16.16Zm1.55-.1h-.01.01Zm.7 22.7Zm.57 3.93Zm0 .78.03.04-.04-.04Zm-.05-.7Zm-.54 30.2-.01.18.01-.18Zm-.17-9.8-.04.01-.07.03h-.03c.04 0 .1-.02.14-.04Zm-1.09 14.68-.03.06.03-.06Zm.35-.78ZM311 134.76l-.08.42v.02l.08-.44Zm-.04-27.92Zm1.33-23.91Zm.25-.17-.06-.02.25.06-.19-.04Zm-.12.05Zm.88 3.95Zm-2.79 49.8Zm.02.83v.04-.04Zm-.2-7.92Zm-.19 3.4.01-.08v.08Zm-.18-7.86Zm.23 3.1Zm-3.87-5.9Zm-.64 20.2-.1.02.1-.01Zm.44-35.82h-.03.03Zm-2.86.22h.01-.01Zm-.63 35.3-.06-.04.06.04Zm-.34-.23c-.03-.01-.04-.03-.06-.05.02.02.03.04.06.05Zm6.04-35.64h-.05.05Zm.34 17.53.27.22-.27-.22Zm1.57 15.64Zm.04-.16Zm.61-3.95v.02-.02Zm-.44-12.28Zm.63 3.82Zm-.13-4.29Zm2.05-4.34Zm.5-3.31-.06.54.06-.54Zm.08-5.85Zm.02 4.77-.08.82.08-.82Zm.89-31.81Zm1.06-23.2h-.03.03Zm1.2 26.35Zm.98-26.6Zm1.86-.25Zm.67 26.24Zm.49-26.42-.75.12.75-.12Zm1.48 25.93Zm2.13 17.68-.13.04.13-.04Zm-.79 18.8-.01.06.01-.05Zm-.56-4.31Zm-.07-1.56Zm-.67-12.4.58-.13-.58.13Zm-.11 1.23a8.4 8.4 0 0 0-.13.16l.13-.16Zm-.31-1.14.34-.07-.34.07Zm.17 1.31Zm-.6-1.23Zm-.97.16.11-.02a24 24 0 0 0-.11.02Zm-.08 1.23.02-.03-.02.03Zm.18-1.33-.04.04.04-.04Zm-.47 1.65.17-.19-.17.19Zm-.1 1.8Zm.2-2.12h-.03.04Zm-.1.32Zm-2.33 8.25.07.01a15.54 15.54 0 0 1-.07-.01Zm-.91-27.26Zm.95 17.9.27-.16-.27.15Zm.16 1.22.13-.06-.12.06Zm-.58-1.02Zm.38-.18-.29.14.29-.14Zm.72-.41Zm.24 2.86Zm.7-1.57Zm-.33-1.71Zm.3-.26Zm.54-.51.13-.16a5.43 5.43 0 0 1-.13.16Zm-.86.78Zm-.65.44Zm-.2-16.56h-.01Zm-2.02 17.65.17-.07-.17.07Zm-.54 5.3-.24.1.24-.1Zm-.26.11-.07.03.07-.03Zm-.28.15-.07.04.06-.04Zm.09-.06-.05.03.05-.03Zm.09-.04-.06.03.06-.03Zm-.3.17Zm.01-3.88H315l-.01.01h.02Zm.38 2.36Zm3.39-2.42Zm.5 8.65Zm3.67-12Zm2.18-19.2Zm1.25-1.08-.03.03-.18.2.18-.2.03-.03Zm-1.06 20.85Zm2.33-2.05Zm-.12-20.59-.16.28.16-.28Zm.87-1.4Zm.86-1.08.01-.02-.01.02Zm.33-.38Zm.9 22.26Zm.91-.41Zm.31-23.81Zm.27-19.59h-.01Zm.1 19.3Zm2.45-1.63Zm.5 31.2-.37-.36.37.36Zm-.53-5.66h.01Zm-1.2-.72-1.26.6 1.25-.6ZM331.7 111l-.2.16.2-.16Zm2.17-7.65Zm-.47-5.27Zm2.37-24.12Zm-.17 32.67Zm-.35-9.48.22-.1.03-.02-.25.12Zm1.79-43.08h-.01Zm.09 17.88Zm-.2 1.4Zm2.3-20.05h-.02.03Zm.08 43.1Zm-.18-1.2Zm-2.11 13.28-.1.24.1-.23Zm.12-3.22Zm-.17-8.98 1.34-.67-1.34.67ZM344 136.9l-.02.03.02-.03Zm-.16-6.03Zm-1.35-9.27Zm-.13 7.25-.09-.08.09.08Zm-.27-.24Zm-.3-.24Zm-.2-32.63h.06-.07Zm-.11 31.02.06.03-.11-.05.05.02Zm-.02-31.02h-.07.07Zm.32.01h.05-.05Zm.06 25.17Zm.07-25.15.15.02-.15-.02Zm.23.04Zm.21.05Zm.22.07Zm.28 24.4.13.11.04.04-.17-.15Zm.11 7.46.2.17.02.03-.22-.2Zm.68-4.84Zm-.35-2.23Zm.17-.14h-.01Zm.4-.07Zm.24 6.3-.01.1v-.1Zm.02-.4v.06-.06Zm.01-.48v.1-.1Zm.59-16.31Zm3.67-12.06-.34-.11.34.11Zm.54.17-.35-.1.35.1Zm.55.14-.29-.08.29.08Zm.55.12-.27-.06.27.06Zm.9-48.59Zm.88-.21Zm-.72.17Zm-.74 48.69.23.04-.23-.04Zm.46 1.27h-.02.02ZM347 111.4l-.17-.18.17.18Zm-.18-14.48Zm-.51 1.06Zm.02 14.43-.01-.01v.01Zm1.18-15.2Zm3.64.94Zm2.54.07Zm1.26-49.67.21-.04-.21.04Zm1.62-.23-.35.05.35-.05Zm.61-.07-.27.03.27-.03Zm.23-.02Zm2.19-.2-1.2.1 1.2-.1Zm1.09-.07Zm1.46-.08 1.06-.05-1.06.05Zm-.17 50.1Zm-.35-1.15-.12.02.12-.02Zm-.58-48.9Zm1.02 48.85Zm-2.12 12.56-.36-.27.36.27Zm-1.99-.69c-.13.18-.16.41 0 .61-.16-.2-.13-.43 0-.6Zm.93-.13.27.22.34.26c-.21-.16-.42-.32-.6-.48Zm9.34-12-.31.02.31-.02Zm-.15-48.92h-.02.02Zm2.12-.15h-.01.01Zm2.69 48.38Zm.27-48.7h-.02.02Zm1.31-.2h-.01.01Zm1.06 59.83-.38.16.38-.16Zm1.15-60.27-.2.04.2-.04Zm3.43 46.74Zm0-47.6Zm2.9 45.92.2-.14-.2.14Zm3.68-3.69Zm2.36-44.96Zm5.76-1.58Zm2.91-.55Zm.9-.13Zm.74-.1Zm-2.38.35Zm5.73-.67Zm-67.7 73.14-.22.45.21-.45Zm-.99 18.9.12.29-.12-.28Zm-.63-2.36Zm-1.82-9.68Zm.06-.55Zm0-.1Zm-45.3-53.27.01.01v-.01Zm-.65 1.3.03-.03-.07-.16.07.16-.03.04Zm-.19.53Zm-.36-1.65v-.02.02Zm-1.93 4.42Zm.36-.24-.29.2.3-.2Zm.29-.21c-.1.06-.18.13-.27.2l.27-.2Zm-.97.64Zm-2.16.94Zm-.4.12Zm-.09.02-.23.06.23-.06Zm-.32.08Zm-2.77.35h-.12.12Zm-2.4-.13Zm-1.19-.2h.05-.05Zm-1.4-13.35Zm2.54-.74h-.01Zm6.6-1.63Zm-.6.07Zm3.44-.23Zm.1 13.74Zm-14.37 2.57h.03-.03Zm-.11-.12Zm-.6.32Zm-.9.2Zm-1.06.18h-.1.1Zm-3.54.14ZM261.1 61.1l.2-.04-.2.03Zm-.95.16Zm-6 1.26Zm-1.68 9.55Zm-3.03-1.66Zm-.83-.7Zm-.51-.53Zm-.46-.56Zm-.9-1.64Zm-.04-.15c0 .04.02.08.03.11a2.07 2.07 0 0 1-.03-.1Zm0-.61Zm.23-.57Zm4.74-2.4Zm.9-.28-.23.07.23-.07Zm7.24-1.65-.56.1.56-.1Zm-.88.16Zm4.66-.8h-.02l-1.26.21 1.28-.2Zm4.24 10.23Zm.61-1.08-.04-.02.04.02Zm.86-10.18-.23.05.23-.05Zm212.44-7.08c.62-2.73 1.63-5.5 1.27-8.33-.34-2.7-2.17-4.6-3.45-6.88a9.12 9.12 0 0 1-1.16-4.3c0-.32-.23-.5-.49-.55a.6.6 0 0 0-.31-.04l-.2.03a.55.55 0 0 0-.34-.01c-.1.02-.17.06-.26.09-11.26 1.64-22.67 1.56-34 2.12-5.71.29-11.39.78-17.04 1.64-5.8.88-11.56 1.94-17.43 2.35-5.59.38-11.07.7-16.5 2.18-5.25 1.43-10.33 3.44-15.66 4.57-5.67 1.2-11.47 1.02-17.22 1.48-5.53.45-10.74 1.88-15.94 3.75-5.84 2.09-11.6 4.18-17.68 5.48a91.03 91.03 0 0 1-19.18 1.97c-.4 0-.58.32-.57.63-2.91-.6-5.83-1.18-8.76-1.71-3.54-.64-7.11-1.33-10.7-1.7-3.57-.37-6.84.2-10.25 1.27a78.66 78.66 0 0 1-10 2.5c-3.34.58-6.71 1.05-10.03 1.79-1.65.36-3.28.8-4.87 1.34-1.38.47-2.9.96-4.09 1.8-.9.64-1.57 1.56-1.43 2.7.16 1.29 1.13 2.55 2 3.46 1.97 2.08 4.73 3.25 7.5 3.8 1.94.37 3.9.48 5.86.55 1.9.07 3.82.15 5.72 0 .87-.07 1.74-.2 2.6-.4.64-.16 1.53-.32 1.98-.88.08-.11.14-.23.18-.34.46.14.9.25 1.32.35 2.06.52 4.22.66 6.33.37 2.85-.4 5.7-1.7 7.34-4.07.32.45.87.72 1.34.98 1.58.85 3.3 1.42 5.01 1.94 3.9 1.16 7.8 2.28 11.7 3.42.16.04.28.02.4-.03a7.81 7.81 0 0 0 1.84 3.6 10.47 10.47 0 0 0 4.32 2.77c-.15.12-.3.26-.41.43a.49.49 0 0 0-.08.27 13.63 13.63 0 0 0-2.52 2.98c-.14.25-.18.55-.12.81-2.25.83-4.4 1.98-6.52 3.1a39.81 39.81 0 0 1-6.33 2.88c-1.9.61-4.1.75-4.92 2.88-1.38 3.62.55 8.07 3.54 10.25 1.14.84 2.45 1.33 3.82 1.64-.02.05-.03.1-.02.18.17 2.01-.46 4.06-.86 6.02-.39 1.9-.85 3.81-1.13 5.74a7.93 7.93 0 0 0 .75 4.74c.84 1.81 1.49 3.6 1.87 5.56.69 3.58.7 7.34 2.1 10.75.57 1.38 1.27 2.66 2.82 3.02 1.4.33 3.16.25 4.47-.36a5.04 5.04 0 0 0 2.2-2.06 6.77 6.77 0 0 0 9.02-2.5c1.08-1.84 1.07-4.15 1.24-6.22.09-1.16.19-2.32.15-3.48a2.16 2.16 0 0 0-.23-.9c3.11-1.34 4.6-4.9 5.2-8.1.21-1.12.2-2.17-.18-3.1 2.69-.96 4.95-2.71 7.17-4.46 1.36-1.07 2.7-2.2 3.72-3.56-.15.43-.3.87-.46 1.28a51.1 51.1 0 0 1-4.9 9.24c-.19.28-.08.56.14.72-.07 1.25.31 2.4.7 3.63.53 1.72.82 3.44.98 5.22.13 1.5.3 2.99 1 4.35.63 1.25 1.6 2.3 2.5 3.36l1.63 1.9c.38.45.74.93 1.32 1.14 1.17.43 2.8.17 3.94-.25a5.13 5.13 0 0 0 3.4-5.87 10.51 10.51 0 0 0-1.43-3.92c.19-.04.36-.16.43-.4.51-1.7.54-3.46.32-5.21a4.4 4.4 0 0 0-1.01-2.28 3.03 3.03 0 0 0 2.12-1.2c.73-.91 1.26-2 1.86-3 .3-.53.62-1.05.93-1.57.25-.44.46-.89.44-1.4v-.06c4.7.57 9.7.45 13.85-2.1l.02-.03c.53.11 1.07.18 1.61.14 2.43-.16 4.75-1.4 6.5-3.03a.56.56 0 0 0 .16-.23 20 20 0 0 0 10.43-5.52c.6-.6 1.15-1.24 1.91-1.66.62-.35 1.3-.56 1.94-.88 1.41-.72 2.7-1.7 4-2.6 1.26-.88 2.54-1.74 3.8-2.66a19.8 19.8 0 0 0 5.14-5.13c2.65.54 5.34.75 8.05.6 2.96-.15 5.67-.3 8.51.73 2.48.9 4.89 1.97 7.4 2.8 2.62.85 5.28 1.56 7.97 2.15 10.66 2.36 21.61 2.9 32.49 3.37 3.14.14 6.3.36 9.44.4.5 0 .98-.04 1.42-.15.45.28.96.18 1.54-.58 1-1.31 1.57-3.04 2.13-4.58.77-2.1 1.39-4.27 1.96-6.44a73.8 73.8 0 0 0 2.65-17.91c.04-3-.13-6-.53-8.97-.44-3.27-.93-6.33-.2-9.6" fill="#FDFCFD" />
  <path d="m269.89 72.71.59.03a.55.55 0 0 1-.59-.03h-.07a11.8 11.8 0 0 1-1.7.44c-.76.14-1.53.21-2.3.25-1.54.08-3.1.02-4.64-.03-2.93-.1-5.94-.25-8.71-1.3-2.3-.88-4.54-2.47-5.6-4.75-.66-1.42.37-2.23 1.55-2.8a27.93 27.93 0 0 1 4.35-1.62c5.4-1.6 11.04-2.1 16.53-3.26 2.82-.6 5.52-1.52 8.27-2.32a22.2 22.2 0 0 1 8.93-.77c7.02.8 14.04 2.3 20.94 3.78.67.15.99-.75.5-1.05l-1.8.01c-.35 0-.54-.27-.56-.55a340.6 340.6 0 0 0-8.76-1.71c-3.54-.64-7.11-1.33-10.7-1.7-3.57-.37-6.84.2-10.25 1.27a78.54 78.54 0 0 1-10 2.5c-3.34.58-6.71 1.05-10.03 1.79-1.65.36-3.28.8-4.87 1.34-1.38.47-2.9.96-4.09 1.8-.9.64-1.57 1.56-1.43 2.7.16 1.29 1.13 2.55 2 3.46 1.97 2.09 4.73 3.26 7.5 3.8 1.94.37 3.9.48 5.86.55 1.9.07 3.82.16 5.72 0 .87-.07 1.74-.2 2.6-.4.64-.16 1.53-.32 1.98-.88.08-.11.14-.23.18-.34-.57-.17-1.15-.39-1.7-.66.03.19.15.35.3.45" fill="#222" />
  <path d="M285.94 68.62a.6.6 0 0 1-.32-.19c-1.33 2.37-4.11 3.64-6.74 4.03a16 16 0 0 1-7.95-.96c-.8-.32-1.79-.68-2.26-1.46-.4-.65-1.42-.06-1.02.6a4.5 4.5 0 0 0 1.95 1.62.51.51 0 0 1 .28-.54c.86-.46 1.67.4 1.41 1.2.46.14.91.25 1.32.36 2.06.5 4.22.65 6.33.36 2.86-.4 5.7-1.7 7.34-4.06a1.42 1.42 0 0 1-.21-.41c-.06-.2-.1-.38-.13-.55ZM285.94 68.62l-.1-.61-.22.42c.08.1.2.16.32.19" fill="#222" />
  <path d="M269.88 71.72a.51.51 0 0 0-.28.54c.54.27 1.12.49 1.69.66.26-.8-.55-1.66-1.4-1.2M293.6 71.54c-1.68-.5-3.37-1-4.93-1.78-.36-.18-.9-.37-1.18-.66-.36-.36-.32-.69-.37-1.1-.23.57-.51 1.1-.84 1.57.32.45.87.72 1.34.98 1.58.85 3.3 1.42 5.01 1.94 3.9 1.16 7.8 2.28 11.7 3.42.16.04.28.02.4-.03a6.19 6.19 0 0 1-.13-1.13l-11-3.21M285.3 66.91a2 2 0 0 1 .4.67.84.84 0 0 1 .87-.38c.13.02.27.08.38.16a3.9 3.9 0 0 0-.82-1.28c-.52-.56-1.36.27-.84.83" fill="#222" />
  <path d="M287.09 67.84a3.26 3.26 0 0 0-.14-.48.82.82 0 0 0-.38-.16.84.84 0 0 0-.86.38c.05.14.1.28.13.43l.16-.37.57.75.1-.16c-.12.34-.45.44-.73.38.03.18.07.37.13.56.05.15.12.28.2.4.34-.48.63-1 .85-1.56l-.03-.17" fill="#222" />
  <path d="m286.67 68.23-.1.16-.57-.75c-.05.12-.1.25-.17.37.05.2.08.4.11.6.28.06.6-.04.73-.38M304.65 74.77l-.05-.02c0 .38.05.76.12 1.13.43-.2.51-.94-.07-1.11ZM317.5 90.86c-.8-.9-1.6-1.81-2.38-2.72-.21-.24-.63-.21-.84 0-.24.24-.21.6 0 .84l2.3 2.64c.72.8 1.52 1.6 2.07 2.52.4.66 1.42.06 1.02-.6-.59-.98-1.43-1.82-2.18-2.68ZM314.5 95a9.9 9.9 0 0 1-.24-.17l-.13-.1h-.01c.05.04-.01-.01 0 0l-.03-.03a7.18 7.18 0 0 1-.97-.98v.01-.01a5.64 5.64 0 0 1-.73-1.23l-.02-.04c0 .01-.02-.06 0 0v-.02a8.22 8.22 0 0 1-.32-1c-.07-.32-.43-.5-.73-.42-.32.09-.48.41-.41.73.39 1.75 1.5 3.3 3 4.28.27.17.65.05.81-.21a.6.6 0 0 0-.21-.81M314.39 86.62c2.88-.3 5.78-.75 8.57-1.54a8.22 8.22 0 0 0 5.29-3.97 17.41 17.41 0 0 1 5-5.58 32.93 32.93 0 0 1 6.72-3.56c.7-.28.39-1.43-.32-1.14-4.25 1.74-8.5 4-11.26 7.8-.74 1.04-1.24 2.25-2.05 3.23a6.67 6.67 0 0 1-3.24 1.94c-2.8.88-5.8 1.34-8.71 1.64a.6.6 0 0 0-.48.33c.16.19.17.48.04.7.1.1.24.17.44.15M319.41 102.75c-.52.06-.68.65-.47.97.55-.32 1.06-.69 1.51-1.12-.35.05-.69.12-1.04.15ZM308.58 140.38a3.8 3.8 0 0 1-2.3 1.9c-1.42.4-3.61.44-4.48-.93a13.02 13.02 0 0 1-1.54-4.35c-.64-3.1-.74-6.28-1.56-9.35a25.41 25.41 0 0 0-1.6-4.08 7.59 7.59 0 0 1-.42-4.98l1.16-5.73c.35-1.7.81-3.42.67-5.15-.39-.06-.78-.14-1.16-.22-.01.05-.03.1-.02.18.17 2.01-.46 4.06-.86 6.02-.39 1.9-.85 3.81-1.13 5.74a7.96 7.96 0 0 0 .75 4.74c.84 1.81 1.48 3.6 1.87 5.56.7 3.58.7 7.34 2.1 10.75.57 1.38 1.27 2.66 2.82 3.02 1.4.33 3.16.25 4.47-.36a5.01 5.01 0 0 0 2.2-2.06c-.27-.15-.54-.3-.79-.49a.6.6 0 0 1-.18-.21" fill="#222" />
  <path d="M298.51 107.67c-.06-.7-1.03-.75-1.16-.18.38.08.77.16 1.16.22v-.04ZM309.36 139.57a.48.48 0 0 0-.38-.1c-.11.32-.24.62-.4.9.04.08.1.16.18.22.25.19.52.34.78.49.2-.34.37-.7.5-1.08a5.62 5.62 0 0 1-.68-.43M336.3 106.35c0-.03 0-.02 0 0s0 .02 0 0ZM336.47 107.06l-.04.07c.04.05.1.1.16.13l.18-.41a.6.6 0 0 0-.3.2ZM343.75 128.85l.05-.21a7.2 7.2 0 0 0-2.57-2.01c-.7-.32-1.3.7-.6 1.02 2.55 1.16 4.08 4.06 4.17 6.81a3.81 3.81 0 0 1-2.32 3.62 6 6 0 0 1-2.53.5c-.91 0-1.3-.28-1.88-.96-1.04-1.2-2.14-2.39-3.1-3.67a8.73 8.73 0 0 1-1.64-4.56c-.16-1.57-.3-3.12-.67-4.65-.4-1.63-1.34-3.35-1.03-5.06.02-.1 0-.2-.02-.28l-.3.47c-.23.35-.64.32-.9.13-.06 1.25.32 2.41.7 3.63.54 1.72.83 3.44.99 5.22.13 1.5.31 3 1 4.35.64 1.25 1.6 2.3 2.5 3.37l1.63 1.9c.38.44.74.92 1.32 1.13 1.17.43 2.8.17 3.94-.25a5.13 5.13 0 0 0 3.4-5.87 10.53 10.53 0 0 0-1.43-3.92c-.4.08-.86-.22-.71-.7Z" fill="#222" />
  <path d="m331.3 119.87.31-.47c-.15-.53-1-.68-1.12-.04-.04.22-.06.43-.07.64.25.2.66.22.89-.13M343.56 121.64c-.5-.08-.52-.62-.26-.93a18.7 18.7 0 0 0-.44-.39c-.57-.5-1.42.34-.84.84 1 .86 1.91 1.7 2.04 3.08.14 1.5.14 2.94-.26 4.4.24.29.46.6.66.92a.55.55 0 0 0 .43-.4c.51-1.7.54-3.46.32-5.21-.11-.9-.5-1.64-1.01-2.28-.2.01-.42.01-.64-.03" fill="#222" />
  <path d="M343.75 128.85c-.15.5.32.78.7.7a8.6 8.6 0 0 0-.65-.92l-.05.22M348.39 113.9a.6.6 0 0 1-.18-.06l-.12-.08c.2.29.32.61.27.94-.07.4-.38.77-.57 1.1l-.72 1.2c-.45.76-.87 1.54-1.35 2.27-.39.6-1.03 1.37-1.85 1.23a.59.59 0 0 0-.57.21c.33.3.63.62.9.96a3.03 3.03 0 0 0 2.12-1.2c.73-.91 1.26-2 1.86-3l.92-1.57c.26-.44.47-.89.45-1.4v-.06l-.74-.1c-.29-.03-.42-.23-.42-.45" fill="#222" />
  <path d="M343.3 120.72c-.26.3-.24.84.26.92.22.04.43.04.64.03a8.85 8.85 0 0 0-.9-.95M347.34 113.05c-.5-.34-.22-1.04.22-1.1-.27-.25-.53-.5-.8-.79a4.96 4.96 0 0 0-2.04-1.55c-.29-.1-.66.11-.72.42a.6.6 0 0 0 .4.72l.15.05h.01c-.01 0 0 0 0 0l.03.02.25.15.12.08c.02 0 .05.03.06.04l-.01-.01c.02.02.02.02.01 0a5 5 0 0 1 .2.19c.3.27.56.57.83.86a8.1 8.1 0 0 0 2.04 1.64c-.21-.3-.5-.54-.75-.72" fill="#222" />
  <path d="m348.87 112.87-.06-.05a6.44 6.44 0 0 1-1.25-.88c-.44.07-.71.77-.22 1.11.25.17.54.42.75.71l.12.08a.6.6 0 0 0 .18.05c-.02-.33.26-.72.7-.69l-.06-.13-.16-.2M349.13 113.2h-.01c.23.37.4.78.42 1.24 4.71.57 9.7.45 13.86-2.1l.02-.02a8.15 8.15 0 0 1-1.54-.5c-3.9 2-8.49 1.96-12.75 1.38Z" fill="#222" />
  <path d="M349.08 113.2c.03.15.02.3-.06.43a.59.59 0 0 1-.63.26c0 .22.13.42.42.45l.73.1a2.53 2.53 0 0 0-.43-1.24h-.03Z" fill="#222" />
  <path d="M348.39 113.9c.24.04.5-.05.63-.27a.61.61 0 0 0 .06-.43c-.43-.03-.7.36-.7.7ZM370.35 108.88a9.43 9.43 0 0 1-5.32 2.39c-2.26.15-4.47-1.38-6.14-2.74-.59-.48-1.43.35-.84.84 1.12.9 2.43 1.85 3.83 2.45.31-.15.62-.32.92-.5.64-.4 1.22.58.62 1a6 6 0 0 0 1.61.13c2.43-.16 4.75-1.4 6.5-3.03a.57.57 0 0 0 .16-.23l-.65.12c-.34.05-.6-.17-.69-.43" fill="#222" />
  <path d="M362.8 111.32c-.3.18-.6.35-.92.5.5.22 1.02.39 1.54.5.6-.42.02-1.4-.62-1ZM399 89.56l.44.08c-.03-.51-.79-.84-1.09-.28-1.35 2.5-3.54 4.32-5.83 5.95-2.38 1.7-4.8 3.7-7.46 4.94-1.26.6-2.3 1.09-3.31 2.1a21.6 21.6 0 0 1-3.27 2.8 19.24 19.24 0 0 1-7.75 3.02c-.4.06-.5.41-.38.71l.35-.3c.48-.45 1.16.11.98.6a19.96 19.96 0 0 0 10.43-5.5c.6-.61 1.16-1.25 1.92-1.67.62-.35 1.3-.56 1.94-.88 1.41-.72 2.7-1.7 4-2.6 1.26-.88 2.55-1.74 3.79-2.66a19.85 19.85 0 0 0 5.15-5.13l-.23-.04c-.75-.16-.43-1.3.31-1.14" fill="#222" />
  <path d="m370.7 108.58-.35.3c.1.26.35.48.7.43l.63-.12c.18-.5-.5-1.06-.98-.6M420.33 74.82c-2.39-.28-4.85-.16-7.25-.04a87.53 87.53 0 0 0-21.33 3.77c-.73.22-.42 1.36.31 1.14a86.54 86.54 0 0 1 21.02-3.72c2.4-.12 4.86-.25 7.25.04.76.09.75-1.1 0-1.19ZM399.44 89.64l-.44-.08c-.75-.16-1.06.98-.32 1.14l.23.04.47-.79a.6.6 0 0 0 .06-.31ZM303.1 95.51c-.75-.12-1.08 1.02-.32 1.14 1.36.23 3.95.68 3.8 2.59-.12 1.5-2.14 2.34-3.3 2.89-.82.37-1.7.7-2.6.77-.52.04-.71-.12-1.04-.47a22 22 0 0 0-4.88-4.17c-.64-.4-1.23.62-.59 1.02.94.6 1.83 1.25 2.66 1.98.8.71 1.47 1.55 2.24 2.3.77.73 1.8.57 2.75.34 1.07-.26 2.1-.74 3.06-1.26 1.49-.8 3.22-2.11 2.83-4.03-.43-2.16-2.76-2.8-4.62-3.1M256.15 64.25c-.07.27-.37.45-.59.61a9 9 0 0 1-2.66 1.3c-1.26.36-2.6.43-3.9.2-.75-.14-1.07 1-.32 1.14a9.87 9.87 0 0 0 6.95-1.26c.65-.4 1.45-.9 1.67-1.68.2-.74-.94-1.05-1.15-.31M477.54 32.55a.65.65 0 0 1 .39-.04.61.61 0 0 0-.32-.04l-.2.02c.05.02.1.03.13.06M307.96 59.28a96.42 96.42 0 0 0 31.24-5.98c5.16-1.87 10.31-3.88 15.76-4.74 5.74-.9 11.58-.62 17.34-1.3 5.4-.65 10.52-2.39 15.69-4.02a76.24 76.24 0 0 1 8.04-2.16c2.8-.56 5.65-.8 8.5-.98 5.71-.37 11.33-1 16.98-1.9 5.8-.94 11.59-1.72 17.45-2.1 11.9-.78 23.86-.57 35.7-2.05a5.13 5.13 0 0 1 2.15-1.48c-11.25 1.64-22.66 1.56-34 2.12-5.7.29-11.39.78-17.03 1.64-5.8.88-11.57 1.94-17.43 2.35-5.6.38-11.07.7-16.5 2.18-5.25 1.43-10.34 3.44-15.67 4.57-5.66 1.2-11.47 1.02-17.21 1.49-5.53.44-10.74 1.87-15.95 3.74-5.83 2.09-11.6 4.19-17.68 5.48a91.02 91.02 0 0 1-19.18 1.97c-.4 0-.58.32-.56.63l2.17.45c.08.02.14.05.2.09" fill="#222" />
  <path d="m306.16 59.3 1.8-.03a.59.59 0 0 0-.19-.08c-.72-.16-1.45-.3-2.17-.45.02.28.2.55.56.55M477.07 32.48c-.09.02-.17.06-.26.09l.6-.08a.55.55 0 0 0-.34-.01Z" fill="#222" />
  <path d="m474.66 34.05 2.49-.33.13-.06-.05-.6c0-.26.14-.43.31-.51-.04-.03-.09-.04-.13-.06l-.6.08c-.86.3-1.56.83-2.15 1.48Z" fill="#222" />
  <path d="M477.54 32.55c.36.25.4.92-.15 1.07l-.11.05v.03l.65-.1c.63-.09.5-.9 0-1.1a.66.66 0 0 0-.39.05" fill="#222" />
  <path d="M477.55 32.55a.51.51 0 0 0-.31.5c0 .21.02.41.04.61.04 0 .07-.03.1-.04.55-.15.52-.82.17-1.07M473.37 99.62c-.94.1-2.03-.07-2.83-.1l-7.92-.34c-5.2-.23-10.39-.48-15.56-.95a126.48 126.48 0 0 1-15.55-2.27 92.75 92.75 0 0 1-14.7-4.64 18.4 18.4 0 0 0-8.35-1.25c-3.05.19-6 .15-9-.43 0 .1 0 .2-.07.32-.14.27-.3.52-.47.78 2.66.54 5.35.75 8.05.61 2.96-.16 5.68-.3 8.52.72 2.48.9 4.88 1.98 7.4 2.8 2.61.85 5.27 1.56 7.96 2.16 10.66 2.35 21.61 2.9 32.5 3.36 3.13.14 6.29.36 9.43.4.5 0 .98-.04 1.42-.15-.3-.2-.58-.56-.83-1.02M319.38 103.97l.98-.14c.32-.37.63-.74.93-1.13.45-.6 1.48-.02 1.02.6l-.19.23c3.94-.81 7.67-2.37 11.3-4.14 1.04-.5 2.08-1.03 3.12-1.56 1.25-.63 2.52-1.4 3.84-1.88 1.25-.44 2.25-.09 3.32.6 1.03.65 2.03 1.27 3.17 1.74 2.19.9 4.6 1.31 6.96 1.15 2.76-.2 5.39-1.13 8.13-1.42 2.7-.3 5.43-.11 8.13-.46a32.31 32.31 0 0 0 13.89-5.2c1.53-1.03 3.47-1.92 3.56-3.96.03-.77-1.15-.77-1.19 0-.04.95-.5 1.19-1.21 1.67-.96.66-1.88 1.37-2.88 1.98a31.26 31.26 0 0 1-13.16 4.44c-2.55.25-5.14.07-7.68.4-2.6.35-5.13 1.22-7.76 1.38-2.44.14-4.91-.35-7.11-1.42-1.78-.86-3.42-2.6-5.55-2.28-.97.15-1.86.63-2.73 1.06l-3.26 1.65c-4.64 2.33-9.42 4.6-14.6 5.35-.44.43-.95.8-1.5 1.13.1.14.24.23.47.2M310.48 136.59c-.36.38-1.16.06-1-.57.16-.6.3-1.24.42-1.88-.37-.47-1.28-.16-1.04.49.53 1.39.62 3.29.08 4.87.12-.02.25 0 .39.1.22.16.45.3.69.43.4-1.08.54-2.29.46-3.44" fill="#222" />
  <path d="M308.9 124.02a15.4 15.4 0 0 0-3-1.98c-.69-.35-1.29.67-.6 1.02 1.98 1.02 4.5 2.72 4.86 5.1.3 1.93.12 4.01-.26 5.99.04.04.08.1.1.16.27.69.43 1.47.48 2.28a.56.56 0 0 0 .14-.26c.37-1.44.62-2.9.74-4.38.12-1.43.2-2.95-.1-4.36-.2-1.01-.76-1.92-1.47-2.71l-.2.1c-.65.28-1.2-.6-.69-.96" fill="#222" />
  <path d="M309.9 134.15c-.12.63-.26 1.26-.42 1.87-.16.63.64.94 1 .57a7.98 7.98 0 0 0-.47-2.28.68.68 0 0 0-.1-.16M316.17 107.43c-.45.27-.9.54-1.38.78-.38.19-.86.34-1.12.69a.96.96 0 0 0-.18.84c.11.6.36 1.03.3 1.67-.26 2.5-.36 5.16-1 7.59-.56 2.1-1.74 4.06-3.8 4.96l-.09.06c.32.27.61.56.89.86 4.4-2.09 4.5-7.58 4.96-11.77.06-.61.18-1.23.23-1.85.04-.53-.19-.96-.2-1.45-.01-.45.63-.59 1.03-.8a19.42 19.42 0 0 0 6.31-5.48c-.58.12-1.17.22-1.76.3a18.58 18.58 0 0 1-4.19 3.6" fill="#222" />
  <path d="M321.29 102.7c-.3.39-.6.76-.93 1.13.6-.08 1.18-.18 1.76-.3l.2-.23c.45-.62-.58-1.2-1.03-.6M308.9 124.02c-.52.36.04 1.25.7.96l.19-.1c-.28-.3-.57-.59-.89-.86ZM336.26 106.62l.01-.04v-.2l-.02-.1a2.43 2.43 0 0 0-.14-.36l-.07-.13a.57.57 0 0 0-.23.28c-.85 2.33-2.87 3.96-4.76 5.44-2.11 1.67-4.29 3.38-6.87 4.25l-.06.04c.26.32.46.66.6 1.02 2.69-.97 4.95-2.72 7.17-4.47a20.4 20.4 0 0 0 3.72-3.56c.2-.58.44-1.15.79-1.63a.67.67 0 0 1-.14-.54" fill="#222" />
  <path d="M324.12 115.8c-.2-.26-.44-.52-.73-.75a15.2 15.2 0 0 0-5.6-2.6c-.74-.2-1.06.94-.32 1.13 1.66.43 3.26 1.1 4.7 2.04.7.47 1.39 1.06 1.62 1.92.22.83.04 1.73-.14 2.55-.61 2.83-1.9 5.99-4.8 7 .2.08.32.26.35.46.21.07.38.24.5.47 3.11-1.35 4.6-4.9 5.2-8.11a5.56 5.56 0 0 0-.18-3.1l-.23.1c-.7.24-1-.83-.37-1.11M318.35 128.41a.64.64 0 0 1-.06-.25l-.41-.09c.08.19.25.32.47.34" fill="#222" />
  <path d="M318.35 128.41c.08.16.22.3.4.34 0-.04.02-.07.06-.07l.45-.06-.1.06a.54.54 0 0 1-.42.07c-.02.11 0 .34 0 .41a25.72 25.72 0 0 1-.06 1.99c-.06.9-.14 1.82-.22 2.73-.14 1.59-.26 3.2-1.21 4.54a5.55 5.55 0 0 1-7.24 1.61c-.13.38-.3.74-.5 1.08a6.77 6.77 0 0 0 9.02-2.5c1.08-1.84 1.08-4.15 1.24-6.22.1-1.15.2-2.32.16-3.48 0-.28-.09-.62-.23-.89-.37.16-.75.3-1.16.39h-.2M308.55 140.4c.16-.28.29-.58.4-.9-.36.06-.6.54-.4.9Z" fill="#222" />
  <path d="m319.16 128.68.1-.06-.45.06c-.03 0-.05.02-.06.07.12.03.26.02.41-.07M309.33 139.6a.48.48 0 0 0-.39-.1c-.1.32-.24.62-.4.9.05.09.1.16.19.22.25.19.51.35.78.5.2-.35.37-.71.5-1.09a5.7 5.7 0 0 1-.68-.43M319.2 127.55l-.01.23c-.08.32-.43.48-.73.41-.06 0-.12-.02-.17-.03 0 .09.02.17.06.25h.19c.41-.1.8-.23 1.16-.4-.12-.22-.29-.4-.5-.46ZM315.27 126.4c-.3-.05-.65.07-.72.4-.07.29.08.69.4.74.99.14 1.96.32 2.93.53-.15-.3-.08-.71.34-.8.22-.05.42-.11.62-.18l-.07-.04a43.84 43.84 0 0 0-3.5-.66" fill="#222" />
  <path d="m317.87 128.07.42.09c0-.19.06-.38.27-.5.25-.14.46-.16.64-.1a.57.57 0 0 0-.36-.47c-.2.06-.4.13-.62.17-.42.1-.5.5-.35.81" fill="#222" />
  <path d="M318.56 127.66a.52.52 0 0 0-.27.5l.17.03c.3.07.65-.09.73-.4a.68.68 0 0 0 0-.24c-.17-.05-.38-.03-.63.11M336.56 104.5a15.98 15.98 0 0 0-1.76-1.78c-.23-.2-.61-.25-.83 0-.21.22-.25.62 0 .84.56.5 1.1 1.03 1.59 1.6.2.22.33.38.47.63.42-.29 1.13.01.92.6-.06.17-.14.33-.21.49a.67.67 0 0 1 .63.12c.01-.03.03-.04.03-.07.19-.93-.26-1.73-.84-2.42Z" fill="#222" />
  <path d="M336.73 106.88c.08-.16.16-.32.22-.5.21-.58-.5-.88-.91-.6l.07.14a2.78 2.78 0 0 1 .07.14c.01.03 0 .02 0 0a2 2 0 0 1 .07.22l.02.1c0-.01 0-.03 0 0 0 .02 0 .02 0 0V106.58c.02-.06 0 .02 0 0v.04c-.04.19 0 .4.13.54l.04-.07a.6.6 0 0 1 .3-.21M331.58 119.43a51 51 0 0 0 4.54-8.64c.42-1.01.68-2.22 1.34-3.1.2-.27.11-.53-.09-.7-.1.28-.42.42-.7.36l-.11-.06c-.27.53-.6 1.03-.95 1.5-.16.44-.3.87-.46 1.28a48.55 48.55 0 0 1-4.9 9.24c-.19.28-.08.56.13.72.01-.21.03-.42.07-.63.12-.65.98-.5 1.13.03" fill="#222" />
  <path d="M336.4 107.16a6.64 6.64 0 0 0-.8 1.64c.37-.48.69-.98.96-1.51a.5.5 0 0 1-.16-.13M336.73 106.88c-.06.14-.1.28-.17.4.04.03.07.05.12.06.27.07.6-.07.7-.34a.67.67 0 0 0-.65-.12Z" fill="#222" />
  <path d="m336.44 107.09-.04.07c.04.05.1.1.16.13l.17-.41a.6.6 0 0 0-.29.2ZM312.57 82.25c.05.18 0 .34-.1.48.52.14 1.04.26 1.56.36.74.15 1.06-1 .31-1.14-2.25-.44-4.6-1.14-6.33-2.71a6.98 6.98 0 0 1-1.81-2.54 5.76 5.76 0 0 1-.41-2.32c0-.14.02-.27.04-.4l.03-.15.01-.07-.07.03c.06-.06.08-.06.07-.03.64-.21.33-1.25-.38-1.11-.68.13-.8.87-.86 1.45-.02.21-.03.43-.03.64l.05.02c.58.17.5.92.07 1.11l.04.2a7.77 7.77 0 0 0 1.8 3.4 10.47 10.47 0 0 0 4.33 2.77c.31-.25.68-.4 1.1-.42.26-.01.51.2.58.43" fill="#222" />
  <path d="m311.14 82.32.74.25-.18-.67-.56.42M304.65 74.76l-.05-.02c0 .38.05.76.12 1.13.43-.2.51-.94-.07-1.11ZM298.51 107.66v.04a30.02 30.02 0 0 0 9.2-.15 38.13 38.13 0 0 0 11.23-3.83c-.2-.33-.05-.92.48-.97.34-.04.69-.1 1.03-.16.47-.44.87-.95 1.18-1.55.34-.68-.68-1.28-1.03-.6-.96 1.92-3.1 2.78-4.99 3.56a39.07 39.07 0 0 1-6.3 2.02c-2.2.5-4.45.79-6.71.8-2.32 0-4.83-.17-6.98-1.13-3.32-1.49-5.48-5.43-4.7-9.04.27-1.27 1.01-1.87 2.22-2.22 1-.29 1.98-.52 2.95-.88 1.8-.66 3.5-1.51 5.2-2.4 3.83-2.01 7.73-4.3 12.19-4.4.23 0 .39-.13.48-.29-.16-.18-.17-.47-.04-.7a.53.53 0 0 0-.44-.2c-1.54.04-3.01.32-4.44.75l-.04.05-.02.04c.04.05.07.12.1.19.07.29-.1.67-.42.73-.5.1-.81-.2-.9-.59-2.25.83-4.4 1.98-6.52 3.1a39.79 39.79 0 0 1-6.33 2.88c-1.9.61-4.1.76-4.92 2.88-1.38 3.62.56 8.07 3.54 10.25 1.14.84 2.46 1.33 3.82 1.64.13-.57 1.1-.5 1.16.18" fill="#222" />
  <path d="M313.92 85.76c-.13.23-.12.52.04.7a.64.64 0 0 0-.04-.7ZM308.35 86.18c.21-.04.42.02.57.16l.12-.03.35-.52a13.02 13.02 0 0 1 2.9-2.87.73.73 0 0 0 .19-.19l-.6-.16.12.43a.7.7 0 0 0-.5.26c-.18.27-.51.39-.8.22a.63.63 0 0 1-.3-.54 13.56 13.56 0 0 0-2.52 2.98c-.14.25-.18.55-.12.81a23 23 0 0 1 1-.34l-.41-.21" fill="#222" />
  <path d="M310.7 83.48c.29.17.62.05.8-.22a.7.7 0 0 1 .5-.26l-.12-.43-.74-.24-.74.61c0 .21.11.43.3.54M310.89 82.24c-.15.12-.3.26-.41.43a.46.46 0 0 0-.08.27l.74-.62-.25-.08M308.35 86.18l.4.21.17-.05a.65.65 0 0 0-.57-.16" fill="#222" />
  <path d="m311.7 81.9.18.67.6.16c.1-.14.14-.3.09-.48-.07-.24-.31-.44-.57-.43-.43.02-.8.17-1.11.42l.25.09c.18-.15.37-.3.56-.43M308.66 87.32c.32-.06.5-.44.41-.73a.59.59 0 0 0-.1-.2l-.06.12c0 .07 0 .04-.01.01-.01.03-.01.02 0 0v-.05l-.15-.08c-.33.1-.66.22-.99.34.1.39.4.68.9.59" fill="#222" />
  <path d="m308.92 86.34-.17.05.14.08v.03l.01.01.08-.11-.06-.06M308.98 86.4l.02-.04a.66.66 0 0 1 .04-.05l-.12.03.06.06" fill="#222" />
  <path d="M239.94 75.6Zm-2.28.76-.19.02.19-.02Zm-.35-8.77v-.02h-.01v.02Zm-.31-.86v.01-.01Zm-1.6 9.43Zm-1-16.7Zm-.48-.53Zm-.68 16.3Zm-2.28-1.58Zm-4.06-3.83Zm-.37-.5.03.06c0-.02-.02-.04-.03-.05Zm.17.24Zm-.3-.41-.03-.06.04.06Zm-.9-1.74Zm-.71-19.86Zm.06.18.23.7-.23-.7Zm.1 17.97Zm-.38-18.68-.1-.2a6 6 0 0 1 .1.2Zm.11 17.78v.02-.02Zm-2.32-20.34Zm.11 17.91h.02-.02Zm-5.23 3-.13-.33v-.02l.13.34Zm.01 25.91-.02-.01.02.01Zm.43.69Zm.15-25.34-.08-.16-.01-.03.09.19Zm1.46 27.26Zm.1-21.82Zm.52 2.64-.06-.29.06.29Zm1.6 5.4Zm.53 1.57Zm.12.51Zm.12.85-.02-.14.02.14Zm.01.3v-.16.17Zm.02.63Zm-.48 11.49Zm1.8-4.09-.1-.45v-.02l.1.47Zm.09.48Zm.26 4.07Zm.1-.02h-.02.02Zm-.9-.02h.07-.07Zm-6.41-4.69Zm-1.44-1.7Zm-1.3-1.79Zm-.18 6.47Zm-.15-.38-.3-.55.3.55Zm-.74-1.5Zm-.93 2.29.2.02h.03l.15.01c-.13 0-.26-.02-.38-.03Zm-1.89-15.2.01.01v-.01Zm-3.62 11.82Zm-.5-.88v.02-.02Zm-1.6-3.97Zm-.13-.61a6.4 6.4 0 0 1-.07-.5l.03.26.04.24Zm-.63-15.24Zm-.12-9.06Zm-.42-.01Zm-.38 5.3Zm-1.06 12.6-.07-.08.07.08Zm-.12-12.5-.07-.58.07.58Zm-.65 11.57a16.1 16.1 0 0 1 0 0ZM199 75.2Zm-.8-2.3-.01-.03v.03Zm-1.98-13.94.34.18-.28-.15-.06-.03Zm-.7-.42-.12-.06-.05-.03.16.1Zm-1.14-.75-.15-.1.15.1Zm-.47 9.48Zm-1.18-1.09Zm-.66-.77Zm-.36-10.14-.14-.18-.01-.02.15.2Zm-.68 8.71Zm-.32-10.24v.01Zm-.45-6.02Zm.4 5.59Zm-.63-8.04.03.06a5.89 5.89 0 0 0-.03-.06Zm-2.12 14.5.23.33-.23-.33Zm-.7-1.13Zm-.97 16.58-.12-.18.56.85.16.26-.16-.26-.44-.67Zm-2.62-3.8.17.24-.17-.24Zm-.78-.95Zm.32 22.5Zm-1.31-23.29ZM181 91.54Zm-.35-.3Zm-.47-.42.08.08-.08-.08Zm-.34-.31.16.14-.16-.14Zm-.43-.43.29.29-.29-.29Zm-.47-.48.4.4-.4-.4Zm-.35 1.33Zm-4.08-4.1Zm.28 7.88Zm-.08.02Zm-.09.01h.04-.04Zm-.9-.52Zm-.9-.86Zm0-.01Zm-.6-.7Zm-.72-1.03Zm-1.28-6.26Zm-.23 1.86Zm-.3-5.37.18.12-.19-.12Zm-.25-19.98.37.43-.37-.43Zm-.77 19.32Zm-1.04-.65Zm-3.1-25.02Zm-.67-4.04Zm-.38-1.02Zm-.16 2.56.15.3-.15-.3Zm-3.36 17.73Zm-2.77-28.3Zm.51 27.23Zm-.86-27.64Zm-.97-.98Zm-.84-2.24.05.04.08.06-.08-.06a.67.67 0 0 0-.05-.04Zm-.17 29.77Zm-.38-28.71.27.21-.27-.21Zm-.19-.24Zm-.1-31.58.01.01.68.24-.68-.24h-.01Zm-1.25-.38Zm-9.65 56.89Zm-.48-.23.48.22-.48-.22Zm-2.2-58.72Zm.96.24Zm3.88.66h-.02.02Zm1.67 59.55-.09-.03.09.03Zm8.06-27.14h-.01Zm2.83 2.62Zm1.9-31.09h-.01l-.64-.3.65.3Zm1.55 36.39Zm1.19 2.25Zm1.92 2.29h-.02.02Zm.26 1.87-.12-.04.12.04Zm-.03-1.9h-.03.03Zm.48 2.02Zm1.51-39-.2-.12.2.12Zm.45 36.5Zm.13 8.07Zm1.69 2.45Zm-.42-.53Zm-.35-.47Zm-.24-.35-.04-.06.04.06Zm-.48-.74-.02-.04.02.04Zm.24.37-.06-.08.06.08Zm-.15-5.73.27.05-.27-.05Zm-.53 4.56-.01-.03.01.03Zm-1.76-3.83.8 1.8-.8-1.8Zm3.74-.5.11.02a22.16 22.16 0 0 1-.11-.01Zm-.14-3.77Zm.23-35.3.2.05-.2-.05Zm.52 39.15Zm.45.04-.15-.02.15.02Zm1.9-5.04h-.03l-.02.02.04-.02Zm1.12-33.77Zm5.93 1.29h.02-.02l-.34-.1.34.1Zm.17 27 .02.02-.02-.02Zm.03.83Zm1.96-27.04.05.02-.05-.02Zm3.01 30.14Zm.08-27.93-.06-.06.06.06Zm.53.63Zm1.38 39.02Zm-.04 5.01v.42-.42Zm-.3 8.29.1.14.62.88-.71-1.02Zm.13 2.26Zm-.71-1.06Zm-.97-26.22Zm-.14 9.04Zm.54 14.24Zm.15-23.32Zm.9 13.35v-.14.14Zm0-12.25h.01Zm-.19 23.52-.29-.45.3.45Zm-.09-24.68Zm.52 1.14h.03-.03Zm.1 14.28-.02-.1.01.1Zm.02.42-.01-.23.01.23Zm.04.97Zm-.14-4.84Zm.14 6.11v-.02.02Zm0-.3v-.44.44Zm-2.97-9.88Zm.3 14v-.01Zm-.32-14Zm-2.6-7.98.08.01-.08-.01Zm.35 21.7-1.27-.61 1.27.61Zm-4.49 19.53-.2-.21.2.21Zm-1.85-40.82Zm.22-32.18.22.04-.22-.04Zm.6.12.22.04-.21-.04Zm-.34 38.01h.02-.02l-.13.04.13-.04Zm.54 1.02-.01.02.01-.02Zm.51-1.26a.66.66 0 0 0-.07-.06c-.35-.22-.77 0-.91.3.14-.3.56-.52.91-.3l.07.06Zm-.5 1.26a.56.56 0 0 0 .1-.11.56.56 0 0 1-.1.11Zm.78 10.77-.77-.39.77.39Zm-1.59-19.24h.01Zm1.97.1Zm.15 8.9Zm1.41-10.07Zm.2 9.39Zm.3 1.26-.12-.02.13.02Zm.29-1.13-.15-.03.15.03Zm-.3-.06-.14-.03c.05 0 .1.02.14.03Zm.59.12-.15-.03.15.03Zm.3.06Zm.28.05-.17-.03.17.03Zm.1-7.61.06.01-.07-.01Zm-.55-.1.08.01-.08-.02Zm.48 7.72.5.09-.5-.1Zm.52 12.65Zm-.47-11.45Zm-5.87-40.61.21.03-.21-.03Zm-.7 49.9.9.45-.03-.01-.87-.44Zm.05-8.99-.04-.47.04.47Zm.32 5.14Zm.02.23Zm.04.24-.02-.16c0 .05 0 .1.02.16Zm.03.24-.02-.14.02.14Zm.05.25Zm.05.24Zm.06.24-.03-.1.03.1Zm-.46-4.03Zm0-3.75Zm.1 5.04v-.1.1Zm.03-6.25Zm-1.54 10.78.43.22-.02-.01-.41-.2Zm.21-6.02Zm.12 1.5-.03-.3.03.3Zm.6 3.67-.07-.19.07.19Zm-.69-9.78Zm-3.35 9.09-.02-.02.02.02Zm.04.02Zm.03.02Zm.7 23.2v.01Zm.4-1.74Zm4.16.37Zm1.95-19.58.01.01.02.01 2.94 1.46.37.18-3.34-1.66Zm2.34 2.48Zm2.41-12.9Zm.35 12.92Zm.32-12.83Zm.38 13.2.06.04a1.12 1.12 0 0 0-.06-.03Zm3.9-21.03Zm.85 23.91Zm1.06-45.9a.2.2 0 0 1-.01-.02.36.36 0 0 1-.03-.04l.05.06Zm1.01 22.56Zm1.19-19.9-.13-.13.13.13Zm1.42 36.78Zm.08-19.12Zm2.3-14.87h-.01Zm3.27 19.48Zm-.3-1.31c.04 0 .07.02.1.03l-.1-.03Zm-.44-.14.13.04-.13-.04Zm-.44-.16.18.06-.18-.06Zm-1.84-.84Zm.51 8.67Zm-.88-8.9Zm.46 8.57Zm-.75-8.75Zm.11 8.2.17.16-.17-.16Zm-1.14 10.31Zm-.36-19.69Zm.27.28Zm.66 2h.01-.01Zm-.12-1.53Zm-1.05-1 .23.24a7.64 7.64 0 0 1-.23-.24Zm-.04 19.19Zm-.2-9.93Zm0-9.56Zm2.15 11.62Zm2.68 1.7-.1-.05.1.05Zm1.24-9.81Zm1.82-16.05Zm.08 43.42Zm.05-5.72h-.06.06Zm-1.58-12.36Zm1.91 2.12.1.03-.1-.03Zm.27 9.1v.01Zm.03-10.3Zm-.13-8.51h-.02.02Zm5.7-15.5Zm-.44 15.08h.03-.03Zm-.09 23.9-.4-.82.4.82Zm-1.23 7.55Zm-.03 1.1Zm-1.93-20.2c0-.06-.02-.11-.03-.17l.03.17Zm.02.16-.01-.1v.1Zm.02.18v-.02.02Zm-.24-13.2h.04l.2.02-.2-.02h-.04Zm.02 9.94Zm.29 3.78Zm.24 2.39v-.04.04Zm-1.31-1.37.11 1.22-.11-1.22Zm-.1-.93-.03-.13.02.13Zm.1.92v-.02l-.06-.48.06.5Zm-.46-13.72Zm.42-1.13Zm.58 18.75v-.03.03Zm-.07-7.53Zm.71-9.87Zm1.78 31.18v-.1.1Zm.73-21.3Zm.7 13.75Zm1.06-39.11Zm1.35.56Zm3.52 1.58Zm3.97 1.92a.75.75 0 0 0-.04-.02l.04.02Zm.88 23.48v-.02.02Zm-1.35-4.22.28.22-.28-.22Zm-1.97-3.3.22.2-.22-.2Zm.4 31.13-.09-.14.08.14Zm-1.16 1.62c-.04-.21-.1-.41-.13-.64.02.23.1.43.13.64Zm.1.7v-.05.06Zm.02.24v-.03.03Zm-.14-2.2-.01-.02-.02-.01.02.01v.02Zm.2-32.09.24.26-.25-.26Zm-.57-.58.26.28-.26-.28Zm-.16 29.2-.15-.34.15.33Zm-1.65-46.55Zm-.02 17.12.03.03-.03-.03Zm-.47-.59Zm-.05 27.76Zm-.07-29.71Zm-.34 28.43Zm-.1-27.26Zm-.4-1.66Zm-.5 1.04.12.06-.13-.06Zm-.54 24.88-.09-.06.09.06Zm.22-26.19Zm.3 1.31c-.38-.15-.8-.25-1.2-.34.4.1.82.19 1.2.34Zm-1.3-1.57h.01Zm2.87 3.1v-.01Zm.9 30.2v-.01h-.01Zm1.85 1.08Zm3.22-25.37Zm5.8-16.14Zm4.13 6.2-.03-.05.03.05Zm1.35 2.16-.04-.06c0 .02.02.04.04.06Zm2.68 3.2-.19-.2.19.2Zm4.88 4.39Zm-45.87 33.4Zm-.18-13.33-.02-.04v-.01l.02.05Zm.24.53-.02-.02a3.28 3.28 0 0 1 .02.02Zm1.22 11.84Zm.98-7.46Zm.07.32Zm.05.34Zm.04.31Zm.03.35-.02-.3.02.3Zm.1 1.83v-.08.08Zm-.04 1.08Zm-.3 1.4Zm-.66 1.48.12-.22-.13.22Zm-51.23-29.74-.17-.12.17.12.01.01h-.01Zm-1.18-.93Zm-1.86-.22Zm-.54.06Zm-.61-57.03Zm-3.75 56.15.17.07-.17-.07Zm.3.13Zm-3.75-2.07Zm-.02-.02-.45-.29.45.3Zm-1.31-.85.02.02a.63.63 0 0 1-.03-.02ZM122.7 55l-.41-.27.4.27Zm-1-.65Zm-1.82-1.26Zm-2.39-1.86Zm-3.6-3.8Zm-.52-.77.05.08-.05-.08Zm-.3-.49.13.22-.14-.22Zm-.33-.56Zm-.43-.87Zm-1.18-3.56Zm3.15-38.41Zm6.34 50.84Zm3.08 2.03-.42-.27.42.27Zm1.31-52.65h-1.16 1.16Zm1.35 0h-1.07 1.07Zm1.1.03L126.5 3c.31 0 .63 0 .94.02Zm1.2 55.79Zm.95.55Zm.5.28Zm.52.26Zm.48.23Zm.56-56.8c-.06 0-.11 0-.17-.02l.17.03Zm6.6 58.15Zm.16.12-.12-.1.12.1Zm.22.17c-.05-.03-.1-.06-.13-.1l.13.1Zm-.47-56.83-2.23-.65 2.23.65Zm.67 57Zm-29.82-17.55Zm-.64.35Zm-7.07 2.95Zm-1.18.4ZM95 2.29ZM93.28 50.5h.01Zm-.07-47.53Zm7.72 44.84-.5.17.5-.17Zm6.03-13.88Zm.42 1.83Zm.06-33.63h-.01.01Zm.08 33.81-.11-.15.11.15Zm.17.24Zm.17.23-.1-.13.1.13Zm.14.2c-.03-.02-.04-.05-.06-.08l.06.09Zm.4.67Zm.49 7.18Zm.62-42.1h-.01Zm.4 35.27v.02h.01v-.02Zm.63 1.57ZM80.65 59.72Zm-1.27 1.36.09-.09-.09.1Zm-.54.57Zm-.55.56.07-.07-.07.07Zm-1.12 1.12.06-.06-.06.06Zm.57-.56.06-.06-.06.06Zm-1.66 1.58-.09.08.1-.08Zm.58-.53-.07.06.07-.06Zm.17-53.77-.02.01h.02Zm-4.01 57Zm-2.31 1.6Zm-5.34 3.42c1.45-.92 2.92-1.83 4.36-2.77-1.44.94-2.9 1.85-4.36 2.77Zm-2.67-56.8ZM56.09 78.7l.25-.2-.25.2Zm-5.46-62.04.89-.18-.89.18Zm-.11.02Zm-1.08.23Zm18.6-3.2ZM34.8 22.56h.01-.01ZM22.55 97.9l-.15.08.15-.08Zm1.98-1.01Zm.7-.38-.48.26.48-.26Zm.72-.4ZM12.9 89.47Zm-2.84 12.82Zm1-2.3Zm-2.21 2c.26-.36.48-.75.67-1.17.58-1.26.88-2.7 1.16-3.96-.28 1.25-.58 2.7-1.16 3.96-.19.42-.4.81-.67 1.17Zm-2.28-6.47Zm-1.83-2.98Zm-1.4-2.15c.22.76.77 1.4 1.28 2-.51-.6-1.06-1.24-1.28-2Zm-.38-8.08c.11.44.24.87.37 1.3l.29.87-.29-.88c-.13-.42-.26-.85-.37-1.29ZM2.83 45.3Zm4.44-2.79-.09 1.52.09-1.52Zm.53-9.6-.93.3.93-.3Zm.22 2.96v.03-.03Zm.33 22.63-.01 1.04.01-1.04Zm.36-6.82Zm2.53 47.77Zm15.45-3.74-.4.22.4-.22Zm.73-.41-.34.19.34-.2ZM26.1 26.52l.57-.24-.57.24Zm214.16 43.9c-.75-1.22-1.57-2.4-2.04-3.77-.46-1.3-.67-2.66-1-4a9.9 9.9 0 0 0-1.47-3.4 13.55 13.55 0 0 0-2.8-2.63 21.94 21.94 0 0 1-3.5-3.46 19.28 19.28 0 0 1-2.96-4.33c-.34-.75-.5-1.56-.85-2.3a6.9 6.9 0 0 0-1.3-1.8 22.85 22.85 0 0 0-3.73-3.14.57.57 0 0 0-.25-.1.62.62 0 0 0-.15-.16c-.69-.46-1.32-1-2.05-1.41-.96-.54-1.97-1-2.96-1.49-1.74-.85-3.5-1.7-5.27-2.48-3.47-1.54-7.04-2.72-10.6-4-3.36-1.2-6.78-2.71-9.13-5.5-2.24-2.65-3.26-6.21-6-8.48-2.79-2.3-6.9-3.05-10.38-3.58-1.43-.21-2.92-.05-4.3-.42-.84-.23-1.76-.35-2.47-.85a47.76 47.76 0 0 0-8.4-4.53c-2.92-1.3-5.89-2.42-9.07-2.84-2.11-.28-4.25-.36-6.34-.75-2.07-.38-4.08-1.03-6.1-1.61a41.6 41.6 0 0 0-12.18-1.54c-4.43.03-8.85-.08-13.27-.46-2.14-.18-4.27-.42-6.4-.7-2.1-.28-4.21-.58-6.33-.45-4.13.27-8 2.42-11.73 4.02l-12.3 5.26c-3.9 1.67-7.9 3.79-12.12 4.51-2.2.38-4.43.3-6.63.56-1.86.23-3.72.55-5.57.9-3.65.71-7.28 1.66-10.68 3.18-3.22 1.44-6.3 3.2-9.5 4.67a165.16 165.16 0 0 1-19.04 7.21c-1.9.6-3.8 1.2-5.72 1.77a.55.55 0 0 0-.34.28c-.02.01-.03 0-.04.02-2.85 2.13-3.94 5.72-4.21 9.14a8.01 8.01 0 0 0 .37 2.98c.42 1.46.4 2.79.22 4.28a87.66 87.66 0 0 0-.53 7.9C1 62.39.74 67.86.8 73.32c.02 2.6.17 5.22.68 7.79.23 1.18.56 2.33.94 3.47.19.57.38 1.13.35 1.74-.04.7-.32 1.36-.48 2.04a4.28 4.28 0 0 0 .22 3.1c.53 1.05 1.44 1.85 2.09 2.82.84 1.28 1.3 2.76 1.8 4.2l1.51 4.4c.1.32.38.43.63.4.12.23.35.41.66.36 7.54-1.1 14.35-4.69 20.85-8.48 3.3-1.94 6.58-3.94 9.96-5.76 3.58-1.94 7.4-3.42 10.9-5.48 3.6-2.1 6.56-5.09 9.93-7.52 3.25-2.35 6.72-4.36 10.06-6.57a49.43 49.43 0 0 0 8.93-7.43c2.71-2.9 5.25-6 8.64-8.16 6.97-4.41 15.58-5.16 22.52-9.64.78 1.9 1.88 3.62 3.27 5.16 3.72 4.13 8.87 7 13.56 9.88 2.73 1.68 5.8 3.19 9.09 2.4.03 0 .06-.02.1-.04.85.8 1.9 1.47 2.74 2a31.51 31.51 0 0 0 6.36 2.97c2.3.83 4.66 1.5 6.99 2.27 2.39.8 4.99 1.63 7.06 3.08 1.52 1.07 2.4 2.87 3.26 4.46.58 1.07 1.05 2.35 1.8 3.32.57.77 1.54 1.25 2.33 1.76l2.39 1.56c-2.15 2.95-.83 7.08 1.2 9.75a12.4 12.4 0 0 0 1.93 2.04c.74.62 1.5 1.03 2.43.5.83-.46 1.57-1.24 2.23-1.92.63-.63 1.2-1.32 1.73-2.03a12.2 12.2 0 0 0 4.73 2.89c2.24.66 4.8.27 6.5-1.38.13-.03.24-.1.33-.22 1.55-2.18 1.65-4.52 1.35-7.1-.12-1.04-.2-1.98-.65-2.93-.5-1.05-1.2-2-1.74-3.04-.57-1.14-.9-2.36-1.55-3.48-.31-.56-.66-1.1-1.02-1.64a.55.55 0 0 0 .3-.35c.32-1.15.7-2.58.5-3.78-.1-.62-.57-1.03-.64-1.65-.1-.73-.1-1.49-.12-2.23-.03-1.32-.01-2.64-.11-3.96-.04-.47-.11-.92-.2-1.38-.04-.23-.13-.58-.13-.89 1.03 1.53 2.3 2.94 3.28 4.38 1.15 1.67 2.41 3.1 4.22 4.07.73.38 1.5.77 2.3 1.1a.5.5 0 0 0-.17.44c.2 3.15 1.54 6.2 3.46 8.66.46.6.96 1.17 1.5 1.7.57.55 1.53 1.06 1.54 1.89 0 .85-.2 1.63-.1 2.51.12.9.37 1.78.68 2.63 1.08 2.91 2.5 5.69 5.45 7.01 1.22.55 6.81 1.98 5.96-1.02-.23-.83-.88-1.44-1.1-2.3-.2-.78-.26-1.6-.35-2.4.86 1.2 1.81 2.33 2.83 3.4.1.1.22.14.33.16a9.67 9.67 0 0 0 4.32 3.61c.95.4 2.14.81 3.19.57 1.3-.3 1.32-1.21 1.12-2.33-.26-1.38-.5-2.77-.79-4.14-.28-1.32-.96-2.52-1.1-3.87-.24-2.23.22-4.54-.91-6.57v-.08c-.21-1.64-1-3.14-1.4-4.73-.45-1.82-.81-3.7-1.03-5.57-.19-1.66-1-2.85-1.7-4.34a20.25 20.25 0 0 1-1.47-4.78 35.42 35.42 0 0 0 4.63 2.74c.3.14.6.27.89.42.46.24.61.48.8.98.48 1.29.78 2.62 1.36 3.87.6 1.3 1.5 2.36 2.55 3.32 2.05 1.86 4.19 3.97 6.8 5.03 2.03.82 4.58.9 6.45-.4.92-.64 1.52-1.41 1.3-2.56-.24-1.29-.9-2.48-1.58-3.58" fill="#FDFCFD" />
  <path d="M136.09 60.85c-3.78.6-7.31-2.13-10.33-4.04-2.83-1.8-5.71-3.54-8.27-5.72-2.48-2.1-4.62-4.63-5.68-7.75-.6-1.76-.94-3.6-1.67-5.31a14.4 14.4 0 0 0-2.62-4.07c-.5-.56-1.34.28-.83.84a13.08 13.08 0 0 1 2.44 3.84c.56 1.4.88 2.9 1.32 4.35.03.12.08.23.12.35.6-.3 1.14.65.53 1.05l-.12.07c.78 1.9 1.88 3.61 3.27 5.16 3.72 4.13 8.87 7 13.56 9.88 2.73 1.68 5.8 3.18 9.08 2.4.04 0 .07-.03.1-.04a7.13 7.13 0 0 1-.9-1.01M189.98 92.3l.2-.28c-.04.02-.07.03-.1.07-1.8 1.93-4.68 1.87-6.91.75-2.26-1.14-3.95-3.06-5.64-4.88a31.4 31.4 0 0 0-5.68-4.83c-1.05-.7-2.13-1.37-3.18-2.08-.78-.51-2.06-1.18-2.5-1.75-.76-1.01-1.24-2.36-1.85-3.47-.72-1.31-1.46-2.76-2.53-3.83-1.53-1.54-3.8-2.36-5.79-3.12-2.2-.84-4.46-1.51-6.7-2.23a46.51 46.51 0 0 1-7.03-2.71c-1.1-.56-2.16-1.2-3.15-1.94-1.07-.8-2.47-1.83-2.66-3.24-.1-.75-1.24-.43-1.14.31.09.65.37 1.24.77 1.78l.49-.09c.7-.16 1 .84.41 1.1.86.8 1.9 1.46 2.75 2a31.49 31.49 0 0 0 6.36 2.97c2.3.82 4.66 1.5 6.99 2.27 2.39.8 4.99 1.63 7.06 3.08 1.53 1.07 2.4 2.86 3.26 4.45.59 1.08 1.05 2.36 1.8 3.33.57.77 1.54 1.25 2.33 1.76l2.39 1.56c.06-.09.12-.18.2-.27.48-.59 1.31.25.83.84l-.05.07.06.04a35.04 35.04 0 0 1 6.44 5.61l1.19 1.23.09-.12c.44-.61 1.47-.02 1.02.6l-.26.34a12.19 12.19 0 0 0 4.73 2.89c2.24.66 4.8.26 6.5-1.38-.46.15-1.05-.32-.7-.82M165.34 54.5l-1.43-.41c.37.78.75 1.56 1.1 2.35.42.94.75 1.93 1.26 2.83a24.73 24.73 0 0 0 2.75 3.79c-.24-.43.26-1.08.83-.8l.07.03a19.58 19.58 0 0 1-2.8-3.94c-.63-1.26-1.2-2.56-1.78-3.85M164.11 52.91l.6.18c-.28-.59-.56-1.17-.85-1.74h-.03c-.55.06-.69-.55-.43-.92-1.1-2.16-2.22-4.33-3.47-6.4a18.93 18.93 0 0 0-4.85-5.3c-.6-.47-1.2.56-.6 1.02a18.64 18.64 0 0 1 5.08 6c1.29 2.36 2.56 4.73 3.76 7.14l.15.3c.1-.22.33-.37.64-.28" fill="#222" />
  <path d="m169.02 63.06.1.13.06.04.07.05.14.07c.48.14 1-.52.58-1a2.4 2.4 0 0 0-.05-.05l-.07-.04c-.57-.28-1.07.37-.83.8ZM163.86 51.35c4.22-.48 8.25-1.9 11.81-4.15l-.53-.23c-.27-.12-.32-.42-.25-.67a26.64 26.64 0 0 1-11.05 3.87.6.6 0 0 0-.44.26l.43.85.03.07M176.46 46.26l.38.15c.86-.6 1.7-1.24 2.48-1.93.57-.5-.27-1.34-.84-.84-.84.75-1.75 1.43-2.68 2.06.08 0 .16 0 .24.02.32.05.44.29.42.54" fill="#222" />
  <path d="M163.84 51.35h.02l-.03-.07-.43-.85c-.26.37-.12.98.44.92M190.67 47.43c.35-.14.45-.5.37-.78-.1-.11-.19-.23-.28-.36a.5.5 0 0 0-.4 0 18.83 18.83 0 0 1-13.52.12c-.38.27-.77.54-1.17.79 4.76 2 10.18 2.13 15 .23" fill="#222" />
  <path d="m175.14 46.97.53.23c.4-.25.79-.52 1.17-.8l-.38-.14a.65.65 0 0 1-.6.6v.02l-.14-.02h.13l-.11-.9.72.3c.02-.25-.1-.49-.42-.54a1.87 1.87 0 0 0-.24-.02c-.3.2-.6.41-.91.6-.08.25-.03.55.25.67Z" fill="#222" />
  <path d="M175.85 46.86c.36-.02.58-.31.6-.6l-.71-.3.11.9M210.96 53.45l.07.04c-.76-.83-1.09-1.73-2.22-2.13-2.14-.76-4.4-1.04-6.64-1.34-4.12-.55-8.93-1.4-11.1-5.42-.36-.67-1.38-.07-1.02.6.21.39.45.75.7 1.1.15.06.25.2.3.35 2.16 2.6 5.61 3.7 8.9 4.24 2.28.37 4.58.55 6.81 1.1.84.2 1.89.34 2.44 1.03.36.44.65.95 1.04 1.36-.44-.5.11-1.25.72-.93" fill="#222" />
  <path d="M240.26 70.3c-.75-1.23-1.57-2.42-2.04-3.78-.46-1.3-.67-2.67-1-4-.31-1.2-.73-2.4-1.47-3.4a13.55 13.55 0 0 0-2.8-2.64 21.95 21.95 0 0 1-3.5-3.45 19.28 19.28 0 0 1-2.96-4.33c-.34-.75-.5-1.57-.85-2.31a6.88 6.88 0 0 0-1.3-1.8 22.85 22.85 0 0 0-3.73-3.13.57.57 0 0 0-.25-.1c.3.4-.05 1.03-.5.96.03.06.08.11.15.16 1.17.8 2.26 1.7 3.25 2.7.45.46.9.93 1.2 1.5.41.75.57 1.62.91 2.4.98 2.3 2.75 4.36 4.42 6.18 1.66 1.8 4.13 2.93 5.36 5.1 1.22 2.17 1.22 4.79 2.14 7.06.47 1.14 1.14 2.16 1.78 3.2.6.98 1.63 2.37 1.63 3.57 0 1.36-1.99 1.94-3.04 2.04a6.98 6.98 0 0 1-3.66-.72c-2.34-1.13-4.4-3.11-6.26-4.9a9.26 9.26 0 0 1-2.23-3.33c-.46-1.16-.68-2.45-1.2-3.57-.52-1.11-1.88-1.43-2.9-1.96a35.37 35.37 0 0 1-9.77-7.6c-.02.4-.43.78-.88.54l-.3-.16-.05-.03a.8.8 0 0 1-.05-.02c-.04-.04-.08-.05-.12-.1a36.9 36.9 0 0 0 5.69 5.29c.28-.35.92-.38 1 .17l.13.64a35.44 35.44 0 0 0 4.63 2.74c.3.14.6.27.89.42.46.23.61.48.8.98.48 1.28.78 2.62 1.36 3.87.61 1.3 1.5 2.36 2.55 3.32 2.05 1.86 4.19 3.97 6.8 5.03 2.03.82 4.58.9 6.45-.4.92-.64 1.52-1.42 1.3-2.56-.24-1.3-.9-2.48-1.58-3.58" fill="#222" />
  <path d="m211.08 53.55-.72.92.05.03.06.03c.5.18 1.06-.5.6-.98" fill="#222" />
  <path d="m210.47 54.53.29.16c.45.24.86-.15.88-.53l-.56-.61c.45.47-.11 1.16-.61.98ZM210.47 54.53l-.06-.03.06.03ZM211.03 53.5a2.68 2.68 0 0 0-.07-.05c-.6-.32-1.16.43-.72.93l.13.1.7-.93c0-.02-.02-.04-.04-.06M172.45 55.37c.05-.3.15-.58.35-.8.47-.51 1.19.12.94.66.58-.08 1.15-.18 1.72-.33a.53.53 0 0 0 .32-.24c-.14-.1-.29-.2-.42-.31-.22-.18-.24-.4-.15-.6h-.07c-3.47.92-7.05.34-10.43-.66l.63 1.41c2.33.62 4.72 1 7.11.87M164.7 53.09l-.59-.18c-.3-.1-.53.06-.65.28l.45.9 1.43.41-.63-1.41" fill="#222" />
  <path d="M174.83 64.37c-.87-1.16-.87-2.8-1-4.2a54.35 54.35 0 0 1-.2-3.63c0-.2-.11-1 .01-1.13.05-.06.08-.12.1-.18-.43.06-.86.11-1.3.14-.09.57.01 1.23.03 1.75.03.96.08 1.91.16 2.87.1 1.26.15 2.73.63 3.97l1.67.82a.49.49 0 0 0-.1-.4" fill="#222" />
  <path d="M173.81 64.97c.35.46 1.02.22 1.12-.19l-1.67-.83c.14.37.32.71.55 1.02ZM172.8 54.57c-.2.22-.3.5-.35.8.43-.03.87-.08 1.3-.14.24-.54-.48-1.17-.95-.66ZM178.6 90.8a18.75 18.75 0 0 1-3.29 3.45c-.4.32-.68.52-1.15.2-.3-.22-.57-.48-.83-.72a11.1 11.1 0 0 1-1.52-1.77c-1.5-2.18-2.75-5.68-.9-8.04l-.98-.64c-2.15 2.95-.83 7.07 1.2 9.74.56.76 1.2 1.45 1.93 2.05.74.61 1.5 1.03 2.43.5.83-.47 1.57-1.24 2.24-1.92.62-.64 1.18-1.32 1.72-2.03-.3-.27-.58-.54-.85-.82" fill="#222" />
  <path d="m178.7 90.7-.09.11.85.82.26-.34c.45-.62-.57-1.2-1.02-.6M170.98 83.86c.48-.58-.36-1.42-.84-.83l-.2.27.99.64.05-.08M186.07 59.48c-.49.7-.15 1.77-.02 2.53.24 1.3.18 2.67.2 3.98 0 .66.01 1.33.05 1.99.03.62.02 1.33.27 1.9.12.28.37.51.46.8.08.3 0 .7-.02 1.01-.05.66-.19 1.3-.35 1.93l.74 1.1a.55.55 0 0 0 .29-.35c.33-1.15.7-2.59.52-3.79-.1-.62-.58-1.02-.66-1.64-.09-.74-.1-1.49-.11-2.23-.03-1.32-.01-2.65-.11-3.97-.04-.46-.11-.91-.2-1.37-.04-.23-.13-.58-.13-.89-.26-.38-.5-.78-.72-1.18a.63.63 0 0 0-.2.18M186.5 74.07c-.17.55.45.86.85.66l-.75-1.1-.1.44M197.8 70.41c.87.3 1.76.51 2.65.55.76.03.76-1.15 0-1.18-1.92-.09-3.92-1.09-5.58-2-1.69-.94-2.77-2.37-3.84-3.93-.83-1.2-1.78-2.31-2.62-3.5-.9-1.25-1.86-2.69-2.03-4.26 0-.06-.03-.1-.04-.14.07.33-.1.73-.55.73l-.5-.02c.17.93.53 1.8.99 2.64.48-.28 1.2.24.82.78-.08.1-.1.25-.1.4 1.03 1.52 2.3 2.94 3.28 4.37 1.15 1.67 2.41 3.12 4.22 4.07.73.39 1.5.78 2.3 1.11.32-.26.92-.13 1 .38" fill="#222" />
  <path d="M196.8 70.02c.32.14.65.26.99.38-.08-.5-.69-.64-1-.38ZM200.9 60.5a.48.48 0 0 0-.47.24c.46.15.93.28 1.4.37-.2-.33-.5-.57-.93-.6M187.1 60.08c.38-.54-.34-1.05-.82-.78.22.4.46.8.72 1.18 0-.15.02-.3.1-.4M185.79 55.5a31.05 31.05 0 0 1-5.14-.47c-1.5-.27-3.26-.52-4.46-1.52-.36-.3-.84-.08-.98.25.53-.09.81.53.57.9 1.28.88 2.86 1.2 4.37 1.48 1.7.31 3.41.48 5.13.53a7.27 7.27 0 0 1-.09-.58c-.07-.7.94-.74 1.15-.14a.54.54 0 0 0-.55-.45" fill="#222" />
  <path d="M175.36 54.35c.13.12.28.22.42.32.24-.38-.04-1-.57-.91-.09.19-.07.41.15.6ZM185.2 56.09c.02.2.05.38.09.57l.5.02c.44 0 .62-.4.55-.73-.21-.6-1.22-.57-1.14.14M212.38 87.21l-.05-.07-.01.1c-.02.16 0 .35 0 .52 0 .33.11.58.16.88.19 1.12.12 2.37.48 3.51.17.56.48 1 .74 1.5.2.44.31.8-.27.84a8.05 8.05 0 0 1-4.7-1.18 7.55 7.55 0 0 1-2.71-3.12 17.61 17.61 0 0 1-1.73-4.58 7.4 7.4 0 0 1-.03-2.52c.07-.48.16-.96-.08-1.41-.23-.45-.7-.73-1.06-1.05-.5-.45-.99-.93-1.44-1.44a14.9 14.9 0 0 1-3.86-8.72l-.02-.06c-.33-.11-.67-.24-1-.38a.5.5 0 0 0-.17.44c.2 3.14 1.54 6.2 3.46 8.66.46.6.97 1.17 1.5 1.7.57.55 1.53 1.05 1.54 1.88 0 .85-.2 1.64-.1 2.52.12.9.37 1.78.69 2.63 1.07 2.9 2.48 5.69 5.44 7 1.22.55 6.81 1.98 5.96-1.02-.23-.82-.88-1.44-1.1-2.3-.2-.78-.26-1.6-.35-2.4a30.22 30.22 0 0 1-1.29-1.93M215.93 59.67a.6.6 0 0 0-.14.48 21.57 21.57 0 0 0 2.45 7.12c.48.9.72 1.64.84 2.66.2 1.63.52 3.26.88 4.85.18.82.4 1.63.67 2.42.3.89.73 1.75.85 2.7l.03.07c.14-.41.79-.62 1.08-.13l.07.14v-.09c-.2-1.63-1-3.13-1.4-4.72-.45-1.83-.82-3.71-1.03-5.58-.19-1.66-1-2.84-1.7-4.33a20.25 20.25 0 0 1-1.47-4.78c-.23-.16-.47-.3-.7-.47l-.43-.34" fill="#222" />
  <path d="m215.93 59.67.44.34.69.47c-.04-.21-.09-.42-.12-.64-.09-.55-.73-.52-1.01-.17ZM221.5 79.97c-.04.14-.03.3.07.47 1.03 1.72.65 3.8.78 5.72.07 1.02.3 1.93.67 2.88.39 1.03.59 2.08.79 3.16l.3 1.63.15.75c.03.14.21.75.17.89-.29.8-2.37-.03-2.91-.27a8.58 8.58 0 0 1-4.13-3.87.51.51 0 0 0-.62-.27c.2.21.37.44.57.64.43.45-.03 1.07-.5 1a9.66 9.66 0 0 0 4.3 3.62c.96.4 2.15.81 3.2.57 1.3-.3 1.33-1.21 1.12-2.33-.26-1.38-.5-2.77-.79-4.14-.28-1.33-.96-2.52-1.1-3.88-.24-2.22.22-4.53-.91-6.56 0 .63-.99.62-1.15 0" fill="#222" />
  <path d="M221.5 79.97c.17.63 1.15.64 1.16 0l-.07-.13c-.3-.5-.94-.28-1.08.13M205.06 61.14c.75-.17.43-1.31-.31-1.14-1.46.34-2.9-.03-4.28-.53-1.2-.45-2.38-.97-3.51-1.58-2.14-1.16-4.08-2.7-5.24-4.88-.36-.67-1.38-.07-1.02.6 1.29 2.41 3.47 4.14 5.85 5.4 1.19.63 2.51 1.3 3.89 1.74a.48.48 0 0 1 .47-.23c.44.04.73.28.93.6a7.6 7.6 0 0 0 3.22.02Z" fill="#222" />
  <path d="M216.77 91.06c-1.9-2.09-3.5-4.4-4.72-6.95-.69-1.43-1.14-2.9-1.68-4.39-.46-1.27-1.9-1.9-2.92-2.67-1.27-.98-1.9-2.61-2.6-4.02a21.94 21.94 0 0 1-1.83-4.77c-.37-1.6-.4-3.24-.63-4.86-.09-.64-.15-1.63-.55-2.27-.47-.1-.94-.23-1.4-.38-.2.34-.06.92.47.96.08 0 .38 2.35.4 2.54.1.82.15 1.63.25 2.44.17 1.46.52 2.86 1.05 4.22a38.86 38.86 0 0 0 1.94 4.13 8.1 8.1 0 0 0 2.3 3.03c.63.46 1.37.86 1.93 1.4.58.55.69 1.36.94 2.09a30.17 30.17 0 0 0 2.58 5.48c-.11-.46.53-.95 1.01-.55.28.23.19.77.2 1.09 0 .13-.04.57-.09.45.06.23.18.48.2.74.03.12.04.25.05.38a31.1 31.1 0 0 0 2.83 3.4c.1.1.22.14.33.16a9.73 9.73 0 0 1-.46-.79c-.22-.4.06-.77.4-.86" fill="#222" />
  <path d="M213.42 88.03a.65.65 0 0 1-.03-.15l.03.15c.05.11.08-.32.08-.45 0-.32.1-.86-.19-1.1-.48-.4-1.12.1-1.01.56l.03.06v-.03c0-.04 0-.05 0 0l.01.05.09.15.04.05-.03-.03c.39.63.8 1.25 1.23 1.85l-.04-.37c-.03-.26-.15-.51-.21-.74ZM217.34 91.7c-.2-.2-.38-.43-.57-.64-.34.1-.62.46-.4.86.14.27.3.53.46.78.47.07.94-.55.51-1M100.3 27.33c-4.23.28-8.43-.04-12.57-.93-1.84-.4-3.71-.81-5.61-.6-1.96.2-3.8.92-5.67 1.52-.72.23-.41 1.37.31 1.14 1.87-.6 3.74-1.37 5.71-1.52 2.05-.15 4.05.44 6.04.83 3.88.76 7.84 1 11.78.75.76-.05.76-1.24 0-1.19ZM219.85 42.32c.46.07.8-.56.52-.96-.46-.07-.8.55-.52.96ZM177.64 84.76c1.33-.83 2.67-1.65 4.03-2.43.18-.1.45-.3.66-.28.13.02.29.16.4.23a23.8 23.8 0 0 1 2.67 2.2 55.8 55.8 0 0 1 1.58 1.58c.5.5 1.03 1 1.39 1.62.84 1.42-.44 2.32-1.57 2.96-.66.37-.07 1.4.6 1.02 1.3-.74 2.7-1.8 2.4-3.5a4.57 4.57 0 0 0-1.27-2.2c-.64-.7-1.31-1.37-1.99-2.03-.69-.66-1.4-1.3-2.15-1.9-.6-.46-1.35-1.18-2.16-1.17-.43.02-.8.24-1.16.45a87.1 87.1 0 0 0-4.03 2.43c-.64.4-.05 1.43.6 1.02" fill="#222" />
  <path d="m186.5 74.06.1-.43-.74-1.09c-.73-1.05-1.4-2.26-2.33-3.16-1.03-1-2.47-1.53-3.74-2.15l-4.9-2.44c-.1.41-.78.65-1.13.19a4.2 4.2 0 0 1-.55-1.02l-3.34-1.66.05.06c.42.48-.1 1.14-.57 1l10.2 5.06c.74.37 1.51.72 2.23 1.14.85.5 1.4 1.18 1.95 1.97.97 1.4 1.96 2.8 2.89 4.23.88 1.38 1.43 2.8 2.09 4.28.53 1.2 1.37 2.25 1.93 3.44.58 1.24.6 2.9.66 4.25a7.18 7.18 0 0 1-1.18 4.3c.53-.38 1.23.38.74.9-.07.08-.15.14-.22.2.12-.03.23-.1.32-.21 1.55-2.18 1.65-4.53 1.35-7.1-.12-1.04-.2-1.98-.65-2.93-.5-1.06-1.2-2-1.73-3.04-.58-1.14-.92-2.36-1.56-3.49a28.1 28.1 0 0 0-1.02-1.63c-.4.2-1.01-.11-.85-.67" fill="#222" />
  <path d="m190.16 91.99-.19.29c-.35.5.24.97.7.82l.23-.2c.5-.53-.21-1.29-.74-.91M5.9 32.62c.24-.1.54-.06.73.21l.22.36c6.5-1.97 12.96-4.07 19.23-6.67 2.94-1.22 5.84-2.55 8.7-3.96 3.36-1.65 6.59-3.41 10.2-4.5a64.83 64.83 0 0 1 11.6-2.33c1.97-.2 3.96-.18 5.93-.46 2.08-.3 4.07-.97 6.01-1.76C76.51 10.3 84.37 6.74 92.3 3.36c2.07-.88 4.17-1.74 6.44-1.92 2.12-.16 4.24.12 6.34.4 4.32.58 8.66.97 13.02 1.13 4.27.15 8.59-.2 12.84.27 4.17.46 8.05 2.2 12.16 2.94 3.73.67 7.47.63 11.09 1.89a58.97 58.97 0 0 1 9.02 4.12c1.24.68 2.39 1.55 3.63 2.22.69.38 1.59.5 2.35.7 1.3.35 2.64.2 3.98.38 2 .27 4 .72 5.94 1.29 1.9.56 3.7 1.36 5.08 2.82 1.22 1.28 2.06 2.87 2.94 4.4 1.74 3 3.87 5.34 6.96 7 3.07 1.64 6.45 2.58 9.72 3.76 3.76 1.35 7.38 3.02 10.95 4.78.89.44 1.8.85 2.65 1.33.78.42 1.46 1 2.19 1.49.08.05.16.08.24.1-.3-.41.05-1.03.51-.97a.6.6 0 0 0-.16-.16c-.68-.46-1.32-1-2.04-1.41-.96-.54-1.98-1-2.97-1.48-1.74-.86-3.49-1.7-5.26-2.49-3.47-1.54-7.04-2.72-10.6-4-3.36-1.2-6.79-2.7-9.14-5.5-2.24-2.65-3.26-6.21-6-8.48-2.78-2.3-6.9-3.06-10.38-3.58-1.43-.21-2.92-.05-4.3-.42-.84-.23-1.76-.35-2.46-.85a47.74 47.74 0 0 0-8.4-4.53c-2.93-1.3-5.9-2.42-9.08-2.84-2.11-.28-4.24-.36-6.34-.75-2.07-.38-4.08-1.02-6.1-1.61a41.67 41.67 0 0 0-12.18-1.54c-4.43.03-8.85-.08-13.27-.46-2.13-.18-4.26-.42-6.39-.7-2.1-.28-4.22-.58-6.34-.45-4.13.27-7.99 2.42-11.73 4.02l-12.3 5.26c-3.9 1.67-7.89 3.8-12.12 4.51-2.19.38-4.42.3-6.62.57-1.87.22-3.73.54-5.57.9-3.66.7-7.29 1.65-10.69 3.17-3.21 1.44-6.29 3.2-9.49 4.67a164.78 164.78 0 0 1-19.04 7.2c-1.9.62-3.81 1.2-5.73 1.78a.56.56 0 0 0-.34.28c.22-.14.43-.1.58.02M136.6 60.73l-.5.09c.26.36.57.7.9 1 .6-.25.3-1.25-.4-1.09ZM110.58 43.3c.13.39.27.76.41 1.13l.12-.07c.61-.4.08-1.35-.53-1.05ZM110.5 43.51c-6.18 4.04-13.67 5.08-20.2 8.35-3.43 1.71-6.2 4.14-8.78 6.94-2.75 2.98-5.43 5.88-8.73 8.28-3.2 2.32-6.62 4.3-9.91 6.48-3.39 2.23-6.37 4.91-9.6 7.35-3.35 2.54-7.23 4.11-10.98 5.97a148.13 148.13 0 0 0-9.88 5.5c-7.04 4.17-14.23 8.44-22.36 9.92-.18.3-.38.59-.6.85-.22.26-.5.23-.7.08a.67.67 0 0 1-.23.06c.12.23.35.4.66.36 7.54-1.1 14.35-4.7 20.85-8.49 3.3-1.93 6.58-3.94 9.96-5.76 3.58-1.93 7.4-3.42 10.9-5.47 3.6-2.1 6.56-5.1 9.93-7.53 3.25-2.35 6.72-4.35 10.06-6.57a49.38 49.38 0 0 0 8.93-7.42c2.71-2.9 5.25-6.01 8.64-8.16 6.97-4.42 15.58-5.16 22.52-9.65a18.2 18.2 0 0 1-.41-1.12l-.07.03" fill="#222" />
  <path d="m5.64 33.47-.02-.03c-.25-.35-.02-.68.29-.8-.15-.13-.37-.17-.58-.02-.16.3-.02.73.3.85ZM8.49 102.82a.62.62 0 0 0 .04.47c.08 0 .15-.03.22-.06a.67.67 0 0 1-.26-.41M6.07 33.46l.8-.25c-.08-.12-.14-.24-.23-.36-.19-.28-.49-.3-.73-.21.21.18.31.54.16.82ZM9.04 102.58c.11.32-.05.55-.29.65.2.15.49.18.7-.08.23-.26.43-.55.6-.85-.34.07-.69.13-1.04.18l.03.1Z" fill="#222" />
  <path d="m6.07 33.45-.09.03a.53.53 0 0 1-.34-.01l.16.26.09-.08a.63.63 0 0 0 .18-.2ZM8.88 102.5l.13-.02-.16-.48-.23.32a.58.58 0 0 0-.14.5c.06-.15.17-.28.4-.31Z" fill="#222" />
  <path d="m5.98 33.48.09-.02a.68.68 0 0 0-.16-.82c-.32.12-.54.45-.29.8l.02.03c.1.04.21.05.34.01M9.04 102.58l-.03-.1-.13.02c-.22.04-.34.17-.4.32.04.17.14.32.27.41.24-.1.4-.33.3-.65Z" fill="#222" />
</svg>