<svg width="239" height="112" xmlns="http://www.w3.org/2000/svg">
  <path d="M234.82 7.94c-1.33-1.97-2.35-3.9-2.56-6.24.21 2.35 1.23 4.27 2.56 6.24Zm.72 12.61c.27-1.23.61-2.44.89-3.66-.28 1.22-.62 2.43-.89 3.66Zm-7.18 47.07c-.76.09-1.62-.02-2.35-.08.73.06 1.59.17 2.35.08Zm-4.68-13.89c-.25-1.6-.3-3.22-.5-4.82.2 1.6.25 3.22.5 4.82Zm.14 3.56c-.26-.51-.55-1.04-.8-1.59.25.55.54 1.08.8 1.59Zm-1.67-6.55c0-.09-.02-.17-.03-.26l.03.26Zm-.07-.58-.1-.77.1.77Zm.14 1.14-.03-.24.03.24Zm2.22-38.58.01-.35-.01.35Zm.2 12.38-.02.1.02-.1Zm1.15-14.35c-.2.53-.16 1.14-.16 1.72 0-.58-.05-1.2.16-1.72.16-.4.46-.74.75-1.09-.29.35-.6.7-.75 1.09Zm1.39 53.63.1.35-.1-.35c-.2-.68-.36-1.24-.47-1.5.11.26.27.82.47 1.5Zm-25.14 1.85.64.06-.64-.06Zm-30.6-7.05.28.11-.29-.11h.01Zm-3.99-1 .1.01-.1-.01Zm-10.04-.13h.03-.04.01Zm-5.86 1.82.25-.28-.25.28Zm-4.38 3.7.35-.26-.35.26Zm-2.86-52.74.7-.21-.7.2v.01ZM140.22 58c.35-.24.64-.42.84-.66-.2.24-.49.42-.83.66h-.01Zm-1.79 1.27.21-.15-.21.15Zm-2.13 1.32.1-.05-.1.05Zm-11.28 16.56-.38.3.38-.3Zm-3.17-12.57-.35.01h.35v-.01Zm-13.02 16.96h.39l.5-.02-.88.02h-.01Zm-4.7-.35-.04-.06.03.06h.01Zm-1.33 2.6.05-.08.01-.03-.06.1v.01Zm-2.56-4.53c.29.27.55.57.82.86-.27-.3-.53-.6-.82-.86Zm.5 8-.01.01v-.01h.01Zm.43-22.67c-.48-.26-.94-.57-1.41-.88.47.3.94.62 1.41.88Zm-1.65 14.19.04.01-.04-.01Zm-.03 21.63c0 .03 0 .06.02.08l-.02-.08Zm-.18 4.05.03-.05-.03.05Zm-.15.23.02-.02-.02.02Zm-1.67 1.38.16-.07-.16.07Zm-2.06-42.16-.27.1.27-.1Zm-4.46 39.27.7.82.7.8c-.47-.53-.94-1.07-1.4-1.62Zm-.33-28.63.1-.24-.1.24Zm-.2.38-.15.28.16-.28h-.01Zm-1.1 1.6.2-.23.03-.04-.23.28v-.01Zm-10.12 7.19.23-.08-.23.08Zm-.05.03h.02-.02Zm-.32-.36.07.08.06.06-.13-.14Zm-1.65.19-.28-.18.28.18Zm-3.38 11.43c.02 0 .04.03.06.04l-.06-.04Zm-.32 6.82.08-.87-.07.87h-.01Zm-2.79 6.05.22-.14-.22.14Zm-1.57-34.05h.03-.03Zm-.51 14.4-.01.04.01-.04Zm.02-10.06.13.48-.13-.48Zm-2.26 21.93v.01-.09.08Zm-1.44 2-.04-.04.04.04Zm-.96 5.36.05-.18-.05.18Zm-.56 1.17.16-.26-.16.26Zm-3.32-18.35c-.12.23-.1.52.15.7-.25-.18-.27-.47-.15-.7Zm-3.16 19.25.05.06-.05-.06Zm.09.1.05.07-.05-.07Zm-2.89-11.97.01.05-.01-.06v.01Zm-.37-1.7.04.12-.04-.13v.01Zm-.24-19.2v-.02.02Zm-.18-2.26h-.02.02Zm-.23 19.4.03.07-.02-.06-.01-.01Zm0-14.33v-.02.02Zm-.95 4.59.37-1.8-.37 1.8Zm-.47 6.28.01.04-.01-.04Zm-.22-1.25v.08-.08Zm-.01-.54v.2-.2Zm-5.44-24.38h-.01.01Zm.44 5.16-.09-.2.1.2h-.01Zm1.67-7h.02-.02Zm8.36 12.37h.12-.13.01Zm.68 34.99-.06-.06.06.06Zm.21.16-.06-.04.06.04Zm.12.08-.06-.04.06.04Zm.09-35.22h-.45.45Zm5.04-.46-.2.04.2-.04Zm1.75-20.56.07-.1-.07.1-.12.17.12-.17ZM50.38 40.04l.3.1 1.45.42-1.75-.52Zm-7.08-2.47.11.05-.11-.05Zm-1.16-1.4.02.15-.01-.15h-.01Zm24.01-9.02h-.16.16Zm1.55-.1h-.01.01Zm1.27 27.41.03.04-.04-.04h.01Zm-.59 29.5-.01.18.01-.18Zm-.17-9.8-.04.01-.07.03h-.03c.04 0 .1-.02.14-.04Zm-1.09 14.68-.03.06.03-.06ZM66 102.76l-.08.42v.02l.08-.44Zm1.54-52-.06-.02.25.06-.19-.04Zm-2.01 54.63v.04-.04Zm-.39-4.52.01-.08v.08h-.01Zm-4.46 9.54-.1.02.1-.01v-.01Zm.44-35.82h-.03.03Zm-2.86.22h.01-.01Zm-.63 35.3-.06-.04.06.04Zm-.34-.23c-.03-.01-.04-.03-.06-.05.02.02.03.04.06.05Zm6.04-35.64h-.05.05Zm.34 17.53.27.22-.27-.22Zm2.22 11.53v.02-.02Zm2.61-20.4-.06.54.06-.54Zm.1-1.08-.08.82.08-.82Zm1.95-55.01h-.03.03Zm5.2-.68-.75.12.75-.12Zm3.61 43.61-.13.04.13-.04Zm-.79 18.8-.01.06.01-.05v-.01Zm-1.3-18.27.58-.13-.58.13Zm-.11 1.23-.13.16.13-.16Zm-.31-1.14.34-.07-.34.07Zm-1.4.24.11-.02-.11.02Zm-.08 1.23.02-.03-.02.03Zm.18-1.33-.04.04.04-.04Zm-.47 1.65.17-.19-.17.19Zm.1-.32h-.03.04-.01Zm-2.43 8.57.07.01-.07-.01Zm.04-9.36.27-.16-.27.15v.01Zm.16 1.22.13-.06-.12.06h-.01Zm-.2-1.2-.29.14.29-.14Zm2.17-1.6.13-.16-.13.16Zm-1.71-15.34h-.01.01Zm-2.02 17.65.17-.07-.17.07Zm-.54 5.3-.24.1.24-.1Zm-.26.11-.07.03.07-.03Zm-.28.15-.07.04.06-.04h.01Zm.09-.06-.05.03.05-.03Zm.09-.04-.06.03.06-.03ZM70 73.52l-.01.01h.02l-.01-.01Zm11.37-23.69-.03.03-.18.2.18-.2.03-.03Zm1.15-1.79-.16.28.16-.28Zm1.73-2.48.01-.02-.01.02Zm2.72-21.93h-.01.01Zm3.05 48.87-.37-.36.37.36Zm-.53-5.66h.01-.01Zm-1.2-.72-1.26.6 1.25-.6h.01ZM86.7 79l-.2.16.2-.16Zm3.55-13.85.22-.1.03-.02-.25.12Zm1.79-43.08h-.01.01Zm2.19-.77h-.02.03-.01Zm-2.21 55.18-.1.24.1-.23v-.01Zm-.05-12.2 1.34-.67-1.34.67ZM99 104.9l-.02.03.02-.03Zm-1.64-8.05-.09-.08.09.08Zm-.77-33.11h.06-.07.01Zm-.11 31.02.06.03-.11-.05.05.02Zm-.02-31.02h-.07.07Zm.32.01h.05-.05Zm.13.02.15.02-.15-.02Zm.94 24.56.13.11.04.04-.17-.15Zm.11 7.46.2.17.02.03-.22-.2Zm.5-7.21h-.01.01Zm.64 6.23-.01.1v-.1h.01Zm.02-.4v.06-.06Zm.01-.48v.1-.1Zm4.26-28.37-.34-.11.34.11Zm.54.17-.35-.1.35.1Zm.55.14-.29-.08.29.08Zm.55.12-.27-.06.27.06Zm.32.06.23.04-.23-.04Zm.46 1.27h-.02.02ZM102 79.4l-.17-.18.17.18Zm-.67 1.01-.01-.01v.01h.01Zm8.62-63.86.21-.04-.21.04Zm1.62-.23-.35.05.35-.05Zm.61-.07-.27.03.27-.03Zm2.42-.22-1.2.1 1.2-.1Zm2.55-.15 1.06-.05-1.06.05Zm-.52 48.95-.12.02.12-.02Zm-1.68 12.51-.36-.27.36.27Zm-1.99-.69c-.13.18-.16.41 0 .61a.47.47 0 0 1 0-.6v-.01Zm.93-.13.27.22.34.26c-.21-.16-.42-.32-.6-.48h-.01Zm9.34-12-.31.02.31-.02Zm-.15-48.92h-.02.02Zm2.12-.15h-.01.01Zm2.96-.32h-.02.02Zm1.31-.2h-.01.01Zm1.06 59.83-.38.16.38-.16Zm1.15-60.27-.2.04.2-.04Zm6.33 45.06.2-.14-.2.14Zm-48 21.81-.22.45.21-.45h.01Zm-.99 18.9.12.29-.12-.28v-.01ZM41.33 34.3l.01.01v-.01h-.01Zm-.65 1.3.03-.03-.07-.16.07.16-.03.04v-.01Zm-.55-1.12v-.02.02Zm-1.57 4.18-.29.2.3-.2h-.01Zm.29-.21c-.1.06-.18.13-.27.2l.27-.2Zm-3.62 1.72-.23.06.23-.06Zm-3.09.43h-.12.12Zm-3.59-.33h.05-.05Zm1.14-14.09h-.01.01ZM24.86 40.7h.03-.03Zm-2.67.58h-.1.1ZM16.1 29.1l.2-.04-.2.03v.01ZM1.7 34.83c0 .04.02.08.03.11a2.07 2.07 0 0 1-.03-.1v-.01Zm5.87-3.86-.23.07.23-.07Zm7.24-1.65-.56.1.56-.1Zm3.78-.64h-.02l-1.26.21 1.28-.2v-.01Zm4.85 9.15-.04-.02.04.02Zm.86-10.18-.23.05.23-.05Zm212.44-7.08c.62-2.73 1.63-5.5 1.27-8.33-.34-2.7-2.17-4.6-3.45-6.88a9.13 9.13 0 0 1-1.16-4.3c0-.32-.23-.5-.49-.55a.6.6 0 0 0-.31-.04l-.2.03a.55.55 0 0 0-.34-.01c-.1.02-.17.06-.26.09-11.26 1.64-22.67 1.56-34 2.12-5.71.29-11.39.78-17.04 1.64-5.8.88-11.56 1.94-17.43 2.35-5.59.38-11.07.7-16.5 2.18-5.25 1.43-10.33 3.44-15.66 4.57-5.67 1.2-11.47 1.02-17.22 1.48-5.53.45-10.74 1.88-15.94 3.75-5.84 2.09-11.6 4.18-17.68 5.48-6.3 1.33-12.73 2-19.18 1.97-.4 0-.58.32-.57.63a366.1 366.1 0 0 0-8.76-1.71c-3.54-.64-7.11-1.33-10.7-1.7-3.57-.37-6.84.2-10.25 1.27a78.66 78.66 0 0 1-10 2.5c-3.34.58-6.71 1.05-10.03 1.79-1.65.36-3.28.8-4.87 1.34-1.38.47-2.9.96-4.09 1.8-.9.64-1.57 1.56-1.43 2.7.16 1.29 1.13 2.55 2 3.46 1.97 2.08 4.73 3.25 7.5 3.8 1.94.37 3.9.48 5.86.55 1.9.07 3.82.15 5.72 0 .87-.07 1.74-.2 2.6-.4.64-.16 1.53-.32 1.98-.88.08-.11.14-.23.18-.34.46.14.9.25 1.32.35 2.06.52 4.22.66 6.33.37 2.85-.4 5.7-1.7 7.34-4.07.32.45.87.72 1.34.98a27.2 27.2 0 0 0 5.01 1.94c3.9 1.16 7.8 2.28 11.7 3.42a.6.6 0 0 0 .4-.03 7.81 7.81 0 0 0 1.84 3.6 10.47 10.47 0 0 0 4.32 2.77c-.15.12-.3.26-.41.43a.49.49 0 0 0-.08.27c-.98.87-1.83 1.87-2.52 2.98-.14.25-.18.55-.12.81-2.25.83-4.4 1.98-6.52 3.1a39.81 39.81 0 0 1-6.33 2.88c-1.9.61-4.1.75-4.92 2.88-1.38 3.62.55 8.07 3.54 10.25 1.14.84 2.45 1.33 3.82 1.64-.02.05-.03.1-.02.18.17 2.01-.46 4.06-.86 6.02-.39 1.9-.85 3.81-1.13 5.74a7.93 7.93 0 0 0 .75 4.74 23.8 23.8 0 0 1 1.87 5.56c.69 3.58.7 7.34 2.1 10.75.57 1.38 1.27 2.66 2.82 3.02 1.4.33 3.16.25 4.47-.36a5.04 5.04 0 0 0 2.2-2.06 6.77 6.77 0 0 0 9.02-2.5c1.08-1.84 1.07-4.15 1.24-6.22.09-1.16.19-2.32.15-3.48a2.16 2.16 0 0 0-.23-.9c3.11-1.34 4.6-4.9 5.2-8.1.21-1.12.2-2.17-.18-3.1 2.69-.96 4.95-2.71 7.17-4.46 1.36-1.07 2.7-2.2 3.72-3.56-.15.43-.3.87-.46 1.28a51.1 51.1 0 0 1-4.9 9.24c-.19.28-.08.56.14.72-.07 1.25.31 2.4.7 3.63.53 1.72.82 3.44.98 5.22.13 1.5.3 2.99 1 4.35.63 1.25 1.6 2.3 2.5 3.36l1.63 1.9c.38.45.74.93 1.32 1.14 1.17.43 2.8.17 3.94-.25a5.13 5.13 0 0 0 3.4-5.87c-.21-1.39-.7-2.72-1.43-3.92a.55.55 0 0 0 .43-.4c.51-1.7.54-3.46.32-5.21a4.4 4.4 0 0 0-1.01-2.28 3.03 3.03 0 0 0 2.12-1.2c.73-.91 1.26-2 1.86-3 .3-.53.62-1.05.93-1.57.25-.44.46-.89.44-1.4v-.06c4.7.57 9.7.45 13.85-2.1l.02-.03c.53.11 1.07.18 1.61.14 2.43-.16 4.75-1.4 6.5-3.03a.56.56 0 0 0 .16-.23 20 20 0 0 0 10.43-5.52c.6-.6 1.15-1.24 1.91-1.66.62-.35 1.3-.56 1.94-.88 1.41-.72 2.7-1.7 4-2.6 1.26-.88 2.54-1.74 3.8-2.66a19.8 19.8 0 0 0 5.14-5.13c2.65.54 5.34.75 8.05.6 2.96-.15 5.67-.3 8.51.73 2.48.9 4.89 1.97 7.4 2.8 2.62.85 5.28 1.56 7.97 2.15 10.66 2.36 21.61 2.9 32.49 3.37 3.14.14 6.3.36 9.44.4.5 0 .98-.04 1.42-.15.45.28.96.18 1.54-.58 1-1.31 1.57-3.04 2.13-4.58.77-2.1 1.39-4.27 1.96-6.44a73.8 73.8 0 0 0 2.65-17.91c.04-3-.13-6-.53-8.97-.44-3.27-.93-6.33-.2-9.6Z" fill="#FDFCFD" />
  <path d="m24.89 40.71.59.03a.55.55 0 0 1-.59-.03h-.07c-.55.19-1.12.34-1.7.44-.76.14-1.53.21-2.3.25-1.54.08-3.1.02-4.64-.03-2.93-.1-5.94-.25-8.71-1.3-2.3-.88-4.54-2.47-5.6-4.75-.66-1.42.37-2.23 1.55-2.8 1.4-.66 2.86-1.2 4.35-1.62 5.4-1.6 11.04-2.1 16.53-3.26 2.82-.6 5.52-1.52 8.27-2.32a22.2 22.2 0 0 1 8.93-.77c7.02.8 14.04 2.3 20.94 3.78.67.15.99-.75.5-1.05l-1.8.01c-.35 0-.54-.27-.56-.55-2.91-.6-5.83-1.18-8.76-1.71-3.54-.64-7.11-1.33-10.7-1.7-3.57-.37-6.84.2-10.25 1.27a78.53 78.53 0 0 1-10 2.5c-3.34.58-6.71 1.05-10.03 1.79-1.65.36-3.28.8-4.87 1.34-1.38.47-2.9.96-4.09 1.8-.9.64-1.57 1.56-1.43 2.7.16 1.29 1.13 2.55 2 3.46 1.97 2.09 4.73 3.26 7.5 3.8 1.94.37 3.9.48 5.86.55 1.9.07 3.82.16 5.72 0 .87-.07 1.74-.2 2.6-.4.64-.16 1.53-.32 1.98-.88.08-.11.14-.23.18-.34-.57-.17-1.15-.39-1.7-.66.03.19.15.35.3.45Z" fill="#222" />
  <path d="M40.94 36.62a.6.6 0 0 1-.32-.19c-1.33 2.37-4.11 3.64-6.74 4.03a16 16 0 0 1-7.95-.96c-.8-.32-1.79-.68-2.26-1.46-.4-.65-1.42-.06-1.02.6a4.5 4.5 0 0 0 1.95 1.62.51.51 0 0 1 .28-.54c.86-.46 1.67.4 1.41 1.2.46.14.91.25 1.32.36 2.06.5 4.22.65 6.33.36 2.86-.4 5.7-1.7 7.34-4.06-.1-.12-.16-.26-.21-.41-.06-.2-.1-.38-.13-.55Zm0 0-.1-.61-.22.42c.08.1.2.16.32.19Z" fill="#222" />
  <path d="M24.88 39.72a.51.51 0 0 0-.28.54c.54.27 1.12.5 1.69.66.26-.8-.55-1.66-1.4-1.2h-.01Zm23.72-.18c-1.68-.5-3.37-1-4.93-1.78-.36-.18-.9-.37-1.18-.66-.36-.36-.32-.69-.37-1.1-.23.57-.51 1.1-.84 1.57.32.45.87.72 1.34.98a27.2 27.2 0 0 0 5.01 1.94c3.9 1.16 7.8 2.28 11.7 3.42a.6.6 0 0 0 .4-.03 6.2 6.2 0 0 1-.13-1.13l-11-3.2Zm-8.3-4.63a2 2 0 0 1 .4.67.84.84 0 0 1 .87-.38c.13.02.27.08.38.16a3.9 3.9 0 0 0-.82-1.28c-.52-.56-1.36.27-.84.83" fill="#222" />
  <path d="M42.09 35.84a3.25 3.25 0 0 0-.14-.48.82.82 0 0 0-.38-.16.84.84 0 0 0-.86.38c.05.14.1.28.13.43l.16-.37.57.75.1-.16c-.12.34-.45.44-.73.38.03.18.07.37.13.56.05.15.12.28.2.4.34-.48.63-1 .85-1.56l-.03-.17Z" fill="#222" />
  <path d="m41.67 36.23-.1.16-.57-.75c-.05.12-.1.25-.17.37.05.2.08.4.11.6.28.06.6-.04.73-.38Zm17.98 6.54-.05-.02c0 .38.05.76.12 1.13.43-.2.51-.94-.07-1.1Zm12.85 16.1c-.8-.9-1.6-1.82-2.38-2.73-.21-.24-.63-.2-.84 0-.24.24-.21.6 0 .84l2.3 2.64c.72.8 1.52 1.6 2.07 2.52.4.66 1.42.06 1.02-.6-.59-.98-1.43-1.82-2.18-2.68h.01Zm-3 4.13a9.73 9.73 0 0 1-.24-.17l-.13-.1h-.01c.05.04-.01 0 0 0l-.03-.03c-.35-.3-.68-.62-.97-.98v.01c-.3-.39-.54-.8-.73-1.24l-.02-.04c0 .01-.02-.06 0 0v-.02a8.2 8.2 0 0 1-.32-1c-.07-.32-.43-.5-.73-.42-.32.1-.48.41-.41.73a7 7 0 0 0 3 4.28c.27.17.65.05.81-.2a.6.6 0 0 0-.21-.82h-.01Zm-.11-8.38c2.88-.3 5.78-.75 8.57-1.54a8.22 8.22 0 0 0 5.29-3.97c1.24-2.2 2.95-4.1 5-5.58a32.93 32.93 0 0 1 6.72-3.56c.7-.28.39-1.43-.32-1.14-4.25 1.74-8.5 4-11.26 7.8-.74 1.04-1.24 2.25-2.05 3.23-.87.95-2 1.62-3.24 1.94-2.8.88-5.8 1.34-8.71 1.64a.6.6 0 0 0-.48.33c.16.2.17.48.04.7.1.1.24.17.44.15Zm5.02 16.13c-.52.06-.68.65-.47.97a8 8 0 0 0 1.51-1.12c-.35.05-.69.12-1.04.15Zm-10.83 37.63a3.81 3.81 0 0 1-2.3 1.9c-1.42.4-3.61.44-4.48-.93a13.02 13.02 0 0 1-1.54-4.35c-.64-3.1-.74-6.28-1.56-9.35-.41-1.4-.95-2.77-1.6-4.08a7.59 7.59 0 0 1-.42-4.98l1.16-5.73c.35-1.7.81-3.42.67-5.15a21.6 21.6 0 0 1-1.16-.22c-.01.05-.03.1-.02.18.17 2.01-.46 4.06-.86 6.02-.39 1.9-.85 3.81-1.13 5.74a7.96 7.96 0 0 0 .75 4.74c.84 1.81 1.48 3.6 1.87 5.56.7 3.58.7 7.34 2.1 10.75.57 1.38 1.27 2.66 2.82 3.02 1.4.33 3.16.25 4.47-.36a5.01 5.01 0 0 0 2.2-2.06c-.27-.15-.54-.3-.79-.49a.6.6 0 0 1-.18-.2Z" fill="#222" />
  <path d="M53.51 75.67c-.06-.7-1.03-.75-1.16-.18.38.08.77.16 1.16.22v-.04Zm10.85 31.9a.49.49 0 0 0-.38-.1c-.11.32-.24.62-.4.9.04.08.1.16.18.22.25.2.52.34.78.5.2-.35.37-.7.5-1.09a5.68 5.68 0 0 1-.68-.43ZM91.3 74.35c0-.03 0-.02 0 0s0 .02 0 0Zm.17.71-.04.07c.04.05.1.1.16.13l.18-.4a.6.6 0 0 0-.3.2Zm7.28 21.8.05-.22a7.2 7.2 0 0 0-2.57-2c-.7-.33-1.3.7-.6 1.01 2.55 1.16 4.08 4.06 4.17 6.81a3.8 3.8 0 0 1-2.32 3.62 6 6 0 0 1-2.53.5c-.91 0-1.3-.28-1.88-.96-1.04-1.2-2.14-2.39-3.1-3.67a8.73 8.73 0 0 1-1.64-4.56c-.16-1.57-.3-3.12-.67-4.65-.4-1.63-1.34-3.35-1.03-5.06.02-.1 0-.2-.02-.28l-.3.47c-.23.35-.64.32-.9.13-.06 1.25.32 2.41.7 3.63.54 1.72.83 3.44.99 5.22.13 1.5.31 3 1 4.35.64 1.25 1.6 2.3 2.5 3.37l1.63 1.9c.38.44.74.92 1.32 1.13 1.17.43 2.8.17 3.94-.25a5.13 5.13 0 0 0 3.4-5.87c-.21-1.39-.7-2.72-1.43-3.92-.4.08-.86-.22-.71-.7Z" fill="#222" />
  <path d="m86.3 87.87.31-.47c-.15-.53-1-.68-1.12-.04-.04.22-.06.43-.07.64.25.2.66.22.89-.13h-.01Zm12.26 1.77c-.5-.08-.52-.62-.26-.93l-.44-.4c-.57-.5-1.42.35-.84.85 1 .86 1.91 1.7 2.04 3.08.14 1.5.14 2.94-.26 4.4.24.29.46.6.66.92a.55.55 0 0 0 .43-.4c.51-1.7.54-3.46.32-5.21-.11-.9-.5-1.64-1.01-2.28-.2 0-.42 0-.64-.03Z" fill="#222" />
  <path d="M98.75 96.85c-.15.5.32.78.7.7a8.6 8.6 0 0 0-.65-.92l-.05.22Zm4.64-14.95a.6.6 0 0 1-.18-.06l-.12-.08c.2.29.32.61.27.94-.07.4-.38.77-.57 1.1l-.72 1.2c-.45.76-.87 1.54-1.35 2.27-.39.6-1.03 1.37-1.85 1.23a.59.59 0 0 0-.57.21c.33.3.63.62.9.96a3.03 3.03 0 0 0 2.12-1.2c.73-.91 1.26-2 1.86-3l.92-1.57c.26-.44.47-.89.45-1.4v-.06l-.74-.1c-.29-.03-.42-.23-.42-.45" fill="#222" />
  <path d="M98.3 88.72c-.26.3-.24.84.26.92.22.04.43.04.64.03a8.86 8.86 0 0 0-.9-.95Zm4.04-7.67c-.5-.34-.22-1.04.22-1.1-.27-.25-.53-.5-.8-.8a4.96 4.96 0 0 0-2.04-1.54c-.29-.1-.66.1-.72.42a.6.6 0 0 0 .4.72l.15.05h.01c-.01 0 0 0 0 0l.03.02.25.15.12.08c.02 0 .05.03.06.04l-.01-.01c.02.02.02.02.01 0l.2.19c.3.27.56.57.83.86.59.65 1.28 1.2 2.04 1.64-.21-.3-.5-.54-.75-.72Z" fill="#222" />
  <path d="m103.87 80.87-.06-.05a6.44 6.44 0 0 1-1.25-.88c-.44.07-.71.77-.22 1.11.25.17.54.42.75.71l.12.08a.6.6 0 0 0 .18.05.66.66 0 0 1 .7-.69l-.06-.13-.16-.2Zm.26.33h-.01c.23.37.4.78.42 1.24 4.71.57 9.7.45 13.86-2.1l.02-.02a8.13 8.13 0 0 1-1.54-.5c-3.9 2-8.49 1.96-12.75 1.38Z" fill="#222" />
  <path d="M104.08 81.2c.03.15.02.3-.06.43a.6.6 0 0 1-.63.26c0 .22.13.42.42.45l.73.1a2.53 2.53 0 0 0-.43-1.24h-.03Z" fill="#222" />
  <path d="M103.39 81.9a.6.6 0 0 0 .63-.27c.07-.13.1-.28.06-.43-.43-.03-.7.36-.7.7h.01Zm21.96-5.02a9.43 9.43 0 0 1-5.32 2.39c-2.26.15-4.47-1.38-6.14-2.74-.59-.48-1.43.35-.84.84 1.12.9 2.43 1.85 3.83 2.45.31-.15.62-.32.92-.5.64-.4 1.22.58.62 1a6 6 0 0 0 1.61.13c2.43-.16 4.75-1.4 6.5-3.03a.56.56 0 0 0 .16-.23l-.65.12a.63.63 0 0 1-.69-.43Z" fill="#222" />
  <path d="M117.8 79.32c-.3.18-.6.35-.92.5.5.22 1.02.39 1.54.5.6-.42.02-1.4-.62-1ZM154 57.56l.44.08c-.03-.51-.79-.84-1.09-.28-1.35 2.5-3.54 4.32-5.83 5.95-2.38 1.7-4.8 3.7-7.46 4.94-1.26.6-2.3 1.09-3.31 2.1-1 1.04-2.09 1.98-3.27 2.8a19.24 19.24 0 0 1-7.75 3.02c-.4.06-.5.41-.38.71l.35-.3c.48-.45 1.16.11.98.6a19.96 19.96 0 0 0 10.43-5.5c.6-.61 1.16-1.25 1.92-1.67.62-.35 1.3-.56 1.94-.88 1.41-.72 2.7-1.7 4-2.6 1.26-.88 2.55-1.74 3.79-2.66a19.84 19.84 0 0 0 5.15-5.13l-.23-.04c-.75-.16-.43-1.3.31-1.14" fill="#222" />
  <path d="m125.7 76.58-.35.3c.1.26.35.48.7.43l.63-.12c.18-.5-.5-1.06-.98-.6v-.01Zm49.63-33.76a43.87 43.87 0 0 0-7.25-.04 87.54 87.54 0 0 0-21.33 3.77c-.73.22-.42 1.36.31 1.14a86.55 86.55 0 0 1 21.02-3.72c2.4-.12 4.86-.25 7.25.04.76.09.75-1.1 0-1.2Zm-20.89 14.82-.44-.08c-.75-.16-1.06.98-.32 1.14l.23.04.47-.8a.6.6 0 0 0 .06-.3ZM58.1 63.5c-.75-.12-1.08 1.02-.32 1.14 1.36.23 3.95.68 3.8 2.59-.12 1.5-2.14 2.34-3.3 2.89-.82.37-1.7.7-2.6.77-.52.04-.71-.12-1.04-.47a22 22 0 0 0-4.88-4.17c-.64-.4-1.23.62-.59 1.02.94.6 1.83 1.25 2.66 1.98.8.7 1.47 1.55 2.24 2.3.77.73 1.8.57 2.75.34 1.07-.26 2.1-.74 3.06-1.26 1.49-.8 3.22-2.11 2.83-4.03-.43-2.16-2.76-2.8-4.62-3.1h.01ZM11.15 32.25c-.07.27-.37.45-.59.6A8.7 8.7 0 0 1 4 34.36c-.75-.13-1.07 1-.32 1.15 2.4.45 4.87 0 6.95-1.26.65-.4 1.45-.9 1.67-1.68.2-.74-.94-1.05-1.15-.31ZM232.54.55a.65.65 0 0 1 .39-.04.6.6 0 0 0-.32-.04l-.2.02c.05.02.1.03.13.06ZM62.96 27.28A96.42 96.42 0 0 0 94.2 21.3c5.16-1.87 10.31-3.88 15.76-4.74 5.74-.9 11.58-.62 17.34-1.3 5.4-.65 10.52-2.4 15.69-4.02a76.28 76.28 0 0 1 8.04-2.16c2.8-.56 5.65-.8 8.5-.98 5.71-.37 11.33-1 16.98-1.9 5.8-.94 11.59-1.72 17.45-2.1 11.9-.78 23.86-.57 35.7-2.05a5.13 5.13 0 0 1 2.15-1.48c-11.25 1.64-22.66 1.56-34 2.12-5.7.29-11.39.78-17.03 1.64-5.8.88-11.57 1.94-17.43 2.35-5.6.38-11.07.7-16.5 2.18-5.25 1.43-10.34 3.44-15.67 4.57-5.66 1.2-11.47 1.02-17.21 1.49-5.53.44-10.74 1.87-15.95 3.74-5.83 2.09-11.6 4.19-17.68 5.48-6.3 1.33-12.73 2-19.18 1.97-.4 0-.58.32-.56.63l2.17.45c.08.02.14.05.2.09" fill="#222" />
  <path d="m61.16 27.3 1.8-.03a.6.6 0 0 0-.19-.08c-.72-.16-1.45-.3-2.17-.45.02.28.2.55.56.55ZM232.07.48c-.09.02-.17.06-.26.09l.6-.08a.55.55 0 0 0-.34-.01Z" fill="#222" />
  <path d="m229.66 2.05 2.49-.33.13-.06-.05-.6c0-.26.14-.43.31-.51-.04-.03-.09-.04-.13-.06l-.6.08c-.86.3-1.56.83-2.15 1.48ZM232.54.55c.36.25.4.92-.15 1.07l-.11.05v.03l.65-.1c.63-.09.5-.9 0-1.1a.66.66 0 0 0-.39.05Z" fill="#222" />
  <path d="M232.55.55a.5.5 0 0 0-.31.5c0 .21.02.41.04.61.04 0 .07-.03.1-.04.55-.15.52-.82.17-1.07Zm-4.18 67.07c-.94.1-2.03-.07-2.83-.1l-7.92-.34c-5.2-.23-10.39-.48-15.56-.95-5.22-.43-10.42-1.2-15.55-2.27a92.76 92.76 0 0 1-14.7-4.64 18.4 18.4 0 0 0-8.35-1.25c-3.05.2-6 .15-9-.43 0 .1 0 .2-.07.32-.14.27-.3.52-.47.78 2.66.54 5.35.75 8.05.61 2.96-.16 5.68-.3 8.52.72 2.48.9 4.88 1.98 7.4 2.8 2.61.85 5.27 1.56 7.96 2.16 10.66 2.35 21.61 2.9 32.5 3.36 3.13.14 6.29.36 9.43.4.5 0 .98-.04 1.42-.15-.3-.2-.58-.56-.83-1.02ZM74.38 71.97l.98-.14c.32-.37.63-.74.93-1.13.45-.6 1.48-.02 1.02.6l-.19.23c3.94-.8 7.67-2.37 11.3-4.14 1.04-.5 2.08-1.03 3.12-1.56 1.25-.63 2.52-1.4 3.84-1.88 1.25-.44 2.25-.09 3.32.6a15.65 15.65 0 0 0 10.13 2.89c2.76-.2 5.39-1.13 8.13-1.42 2.7-.3 5.43-.1 8.13-.46a32.3 32.3 0 0 0 13.89-5.2c1.53-1.03 3.47-1.92 3.56-3.96.03-.77-1.15-.77-1.19 0-.04.95-.5 1.2-1.21 1.67-.96.66-1.88 1.37-2.88 1.98-4 2.45-8.5 3.97-13.16 4.44-2.55.25-5.14.07-7.68.4-2.6.35-5.13 1.22-7.76 1.38-2.44.14-4.91-.35-7.11-1.42-1.78-.86-3.42-2.6-5.55-2.28-.97.15-1.86.63-2.73 1.06l-3.26 1.65c-4.64 2.33-9.42 4.6-14.6 5.35-.44.43-.95.8-1.5 1.13.1.14.24.23.47.2v.01Zm-8.9 32.62c-.36.38-1.16.06-1-.57.16-.6.3-1.24.42-1.88-.37-.47-1.28-.16-1.04.5.53 1.38.62 3.28.08 4.86a.5.5 0 0 1 .39.1c.22.16.45.3.69.43.4-1.08.54-2.29.46-3.44Z" fill="#222" />
  <path d="M63.9 92.02a15.4 15.4 0 0 0-3-1.98c-.69-.35-1.29.67-.6 1.02 1.98 1.02 4.5 2.72 4.86 5.1.3 1.93.12 4.01-.26 6 .04.03.08.1.1.15.27.7.43 1.47.48 2.28a.57.57 0 0 0 .14-.26c.37-1.44.62-2.9.74-4.38.12-1.43.2-2.95-.1-4.36a5.83 5.83 0 0 0-1.47-2.7l-.2.1c-.65.27-1.2-.6-.69-.97Z" fill="#222" />
  <path d="M64.9 102.15c-.12.63-.26 1.26-.42 1.87-.16.63.64.94 1 .57a7.98 7.98 0 0 0-.47-2.28.7.7 0 0 0-.1-.16h-.01Zm6.27-26.72c-.45.27-.9.54-1.38.78-.38.19-.86.34-1.12.69a.96.96 0 0 0-.18.84c.11.6.36 1.03.3 1.67-.26 2.5-.36 5.16-1 7.59-.56 2.1-1.74 4.06-3.8 4.96l-.09.06c.32.27.61.56.89.86 4.4-2.1 4.5-7.58 4.96-11.77.06-.61.18-1.23.23-1.85.04-.53-.19-.96-.2-1.45-.01-.45.63-.6 1.03-.8a19.42 19.42 0 0 0 6.31-5.48c-.58.12-1.17.22-1.76.3a18.58 18.58 0 0 1-4.19 3.6Z" fill="#222" />
  <path d="M76.29 70.7c-.3.39-.6.76-.93 1.13.6-.08 1.18-.18 1.76-.3l.2-.23c.45-.62-.58-1.2-1.03-.6ZM63.9 92.02c-.52.36.04 1.25.7.96l.19-.1c-.28-.3-.57-.59-.89-.86Zm27.36-17.4.01-.04v-.2l-.02-.1a2.44 2.44 0 0 0-.14-.36l-.07-.13a.57.57 0 0 0-.23.28c-.85 2.33-2.87 3.96-4.76 5.44-2.11 1.67-4.29 3.38-6.87 4.25l-.06.04c.26.32.46.66.6 1.02 2.69-.97 4.95-2.72 7.17-4.47a20.4 20.4 0 0 0 3.72-3.56c.2-.58.44-1.15.79-1.63a.67.67 0 0 1-.14-.54Z" fill="#222" />
  <path d="M79.12 83.8c-.2-.26-.44-.52-.73-.75a15.2 15.2 0 0 0-5.6-2.6c-.74-.2-1.06.94-.32 1.13 1.66.43 3.26 1.1 4.7 2.04.7.47 1.39 1.06 1.62 1.92.22.83.04 1.73-.14 2.55-.61 2.83-1.9 5.99-4.8 7 .2.08.32.26.35.46.21.07.38.24.5.47 3.11-1.35 4.6-4.9 5.2-8.11.24-1.03.17-2.1-.18-3.1l-.23.1c-.7.24-1-.83-.37-1.11Zm-5.77 12.6a.64.64 0 0 1-.06-.24l-.41-.1c.08.2.25.33.47.35Z" fill="#222" />
  <path d="M73.35 96.4c.08.17.22.3.4.35 0-.04.02-.07.06-.07l.45-.06-.1.06a.54.54 0 0 1-.42.07c-.02.1 0 .34 0 .4 0 .67-.01 1.34-.06 2-.06.9-.14 1.82-.22 2.73-.14 1.59-.26 3.2-1.21 4.54a5.55 5.55 0 0 1-7.24 1.61c-.13.38-.3.74-.5 1.08a6.77 6.77 0 0 0 9.02-2.5c1.08-1.84 1.08-4.15 1.24-6.22.1-1.15.2-2.32.16-3.48 0-.28-.09-.62-.23-.9-.37.17-.75.3-1.16.4h-.2.01Zm-9.8 12c.16-.28.29-.58.4-.9-.36.06-.6.54-.4.9Z" fill="#222" />
  <path d="m74.16 96.68.1-.06-.45.06c-.03 0-.05.02-.06.07.12.03.26.02.41-.07Zm-9.83 10.92a.48.48 0 0 0-.39-.1c-.1.32-.24.62-.4.9.05.09.1.16.19.22.25.19.51.35.78.5.2-.35.37-.71.5-1.09a5.84 5.84 0 0 1-.68-.43Zm9.87-12.05-.01.23c-.08.32-.43.48-.73.41-.06 0-.12-.02-.17-.03 0 .09.02.17.06.25h.19c.41-.1.8-.23 1.16-.4-.12-.22-.29-.4-.5-.46Zm-3.93-1.15c-.3-.05-.65.07-.72.4-.07.29.08.69.4.74.99.14 1.96.32 2.93.53-.15-.3-.08-.71.34-.8.22-.05.42-.11.62-.18l-.07-.04a43.85 43.85 0 0 0-3.5-.66" fill="#222" />
  <path d="m72.87 96.07.42.09c0-.19.06-.38.27-.5.25-.14.46-.16.64-.1a.57.57 0 0 0-.36-.47c-.2.06-.4.13-.62.17-.42.1-.5.5-.35.81Z" fill="#222" />
  <path d="M73.56 95.66a.52.52 0 0 0-.27.5l.17.03c.3.07.65-.09.73-.4a.68.68 0 0 0 0-.24c-.17-.05-.38-.03-.63.11Zm18-23.16a16 16 0 0 0-1.76-1.78c-.23-.2-.61-.25-.83 0-.21.22-.25.62 0 .84.56.5 1.1 1.03 1.59 1.6.2.22.33.38.47.63.42-.29 1.13.01.92.6-.06.17-.14.33-.21.49a.67.67 0 0 1 .63.12c.01-.03.03-.04.03-.07.19-.93-.26-1.73-.84-2.42v-.01Z" fill="#222" />
  <path d="M91.73 74.88c.08-.16.16-.32.22-.5.21-.58-.5-.88-.91-.6l.07.14.07.14c.01.03 0 .02 0 0l.07.22.02.1c0-.01 0-.03 0 0 0 .02 0 .02 0 0v.2c.02-.06 0 .02 0 0v.04c-.04.19 0 .4.13.54l.04-.07a.6.6 0 0 1 .3-.21h-.01Zm-5.15 12.55a51 51 0 0 0 4.54-8.64c.42-1.01.68-2.22 1.34-3.1.2-.27.11-.53-.09-.7-.1.28-.42.42-.7.36l-.11-.06c-.27.53-.6 1.03-.95 1.5-.16.44-.3.87-.46 1.28a48.55 48.55 0 0 1-4.9 9.24c-.19.28-.08.56.13.72.01-.21.03-.42.07-.63.12-.65.98-.5 1.13.03Z" fill="#222" />
  <path d="M91.4 75.16c-.34.5-.61 1.06-.8 1.64.37-.48.69-.98.96-1.5a.5.5 0 0 1-.16-.14Zm.33-.28c-.06.14-.1.28-.17.4.04.03.07.05.12.06.27.07.6-.07.7-.34a.67.67 0 0 0-.65-.12Z" fill="#222" />
  <path d="m91.44 75.09-.04.07c.04.05.1.1.16.13l.17-.41a.6.6 0 0 0-.29.2v.01ZM67.57 50.25c.05.18 0 .34-.1.48.52.14 1.04.26 1.56.36.74.15 1.06-1 .31-1.14-2.25-.44-4.6-1.14-6.33-2.71a6.98 6.98 0 0 1-1.81-2.54 5.76 5.76 0 0 1-.41-2.32c0-.14.02-.27.04-.4l.03-.15.01-.07-.07.03c.06-.06.08-.06.07-.03.64-.21.33-1.25-.38-1.11-.68.13-.8.87-.86 1.45-.02.21-.03.43-.03.64l.05.02c.58.17.5.92.07 1.11l.04.2c.3 1.27.92 2.44 1.8 3.4a10.47 10.47 0 0 0 4.33 2.77c.31-.25.68-.4 1.1-.42.26-.01.51.2.58.43Z" fill="#222" />
  <path d="m66.14 50.32.74.25-.18-.67-.56.42Zm-6.49-7.56-.05-.02c0 .38.05.76.12 1.13.43-.2.51-.94-.07-1.11Zm-6.14 32.9v.04c3.06.42 6.16.37 9.2-.15 3.92-.68 7.71-1.97 11.23-3.83-.2-.33-.05-.92.48-.97.34-.04.69-.1 1.03-.16.47-.44.87-.95 1.18-1.55.34-.68-.68-1.28-1.03-.6-.96 1.92-3.1 2.78-4.99 3.56a39.06 39.06 0 0 1-6.3 2.02c-2.2.5-4.45.79-6.71.8-2.32 0-4.83-.17-6.98-1.13-3.32-1.49-5.48-5.43-4.7-9.04.27-1.27 1.01-1.87 2.22-2.22 1-.29 1.98-.52 2.95-.88 1.8-.66 3.5-1.51 5.2-2.4 3.83-2.01 7.73-4.3 12.19-4.4.23 0 .39-.13.48-.29-.16-.18-.17-.47-.04-.7a.53.53 0 0 0-.44-.2c-1.54.04-3.01.32-4.44.75l-.04.05-.02.04c.04.05.07.12.1.19.07.29-.1.67-.42.73-.5.1-.81-.2-.9-.59-2.25.83-4.4 1.98-6.52 3.1a39.79 39.79 0 0 1-6.33 2.88c-1.9.61-4.1.76-4.92 2.88-1.38 3.62.56 8.07 3.54 10.25 1.14.84 2.46 1.33 3.82 1.64.13-.57 1.1-.5 1.16.18Z" fill="#222" />
  <path d="M68.92 53.76c-.13.23-.12.52.04.7a.64.64 0 0 0-.04-.7Zm-5.57.42c.21-.04.42.02.57.16l.12-.03.35-.52c.81-1.1 1.79-2.07 2.9-2.87a.73.73 0 0 0 .19-.19l-.6-.16.12.43a.7.7 0 0 0-.5.26c-.18.27-.51.39-.8.22a.63.63 0 0 1-.3-.54c-.98.87-1.83 1.87-2.52 2.98-.14.25-.18.55-.12.81l1-.34-.41-.21Z" fill="#222" />
  <path d="M65.7 51.48c.29.17.62.05.8-.22A.7.7 0 0 1 67 51l-.12-.43-.74-.24-.74.61c0 .21.11.43.3.54Zm.19-1.24c-.15.12-.3.26-.41.43a.46.46 0 0 0-.08.27l.74-.62-.25-.08Zm-2.54 3.94.4.21.17-.05a.65.65 0 0 0-.57-.16Z" fill="#222" />
  <path d="m66.7 49.9.18.67.6.16c.1-.14.14-.3.09-.48a.6.6 0 0 0-.57-.43c-.43.02-.8.17-1.11.42l.25.1c.18-.16.37-.3.56-.44Zm-3.04 5.42c.32-.06.5-.44.41-.73a.6.6 0 0 0-.1-.2l-.06.12c0 .07 0 .04-.01.01-.01.03-.01.02 0 0v-.05l-.15-.08c-.33.1-.66.22-.99.34.1.4.4.68.9.6Z" fill="#222" />
  <path d="m63.92 54.34-.17.05.14.08v.03l.01.01.08-.1-.06-.07Zm.06.06.02-.04a.68.68 0 0 1 .04-.05l-.12.03.06.06Z" fill="#222" />
</svg>