<svg width="242" height="104" xmlns="http://www.w3.org/2000/svg">
  <path d="m237.66 76.36-.19.02.19-.02Zm-.35-8.77v-.02h-.01v.02h.01Zm-.31-.86v.01-.01Zm-10.47 2.59.03.06c0-.02-.02-.04-.03-.05v-.01Zm-.13-.17-.03-.06.04.06h-.01Zm-1.55-21.42.23.7-.23-.7Zm-.28-.71-.1-.2.1.2Zm.11 17.78v.02-.02Zm-2.21-2.43h.02-.02Zm-5.23 3-.13-.33v-.02l.13.34v.01Zm.01 25.91-.02-.01.02.01Zm.58-24.65-.08-.16-.01-.03.09.19Zm2.08 8.08-.06-.29.06.29Zm2.37 8.33-.02-.14.02.14Zm.01.3v-.16.17-.01Zm1.34 8.03-.1-.45v-.02l.1.47Zm.45 4.53h-.02.02Zm-.9-.02h.07-.07Zm-9.48-2.09-.3-.55.3.55Zm-1.67.79.2.02h.03l.15.01c-.13 0-.26-.02-.38-.03Zm-1.89-15.2.01.01v-.01h-.01Zm-4.12 10.94v.02-.02Zm-1.73-4.58a6.46 6.46 0 0 1-.07-.5l.03.26.04.24Zm-2.61-6.41-.07-.08.07.08Zm-.12-12.5-.07-.58.07.58Zm-3.36 6.07-.01-.03v.03h.01Zm-1.98-13.94.34.18-.28-.15-.06-.03Zm-.7-.42-.12-.06-.05-.03.16.1.01-.01Zm-1.14-.75-.15-.1.15.1Zm-2.67-2.52-.14-.18-.01-.02.15.2Zm-1-1.53v.01-.01Zm-.68-8.47.03.06-.03-.06Zm-2.12 14.5.23.33-.23-.33Zm-1.67 15.45-.12-.18.56.85.16.26-.16-.26-.44-.67Zm-2.62-3.8.17.24-.17-.24Zm-3.44 19.4.08.08-.08-.08Zm-.34-.31.16.14-.16-.14Zm-.43-.43.29.29-.29-.29Zm-.47-.48.4.4-.4-.4Zm-4.32 5.14h.04-.04Zm-4.93-12.89.18.12-.19-.12h.01Zm-.25-19.98.37.43-.37-.43Zm-6.12-8.85.15.3-.15-.3Zm-8.29-14.2.05.04.08.06-.08-.06a.76.76 0 0 0-.05-.04Zm-.55 1.06.27.21-.27-.21Zm-.29-31.82.01.01.68.24-.68-.24h-.01v-.01Zm-11.38 56.28.48.22-.48-.22Zm2.64-57.82h-.02.02Zm1.67 59.55-.09-.03.09.03Zm8.06-27.14h-.01.01Zm4.73-28.47h-.01l-.64-.3.65.3Zm4.66 40.93h-.02.02Zm.26 1.87-.12-.04.12.04Zm-.03-1.9h-.03.03Zm1.99-36.98-.2-.12.2.12Zm1.26 45.67-.04-.06.04.06Zm-.48-.74-.02-.04.02.04Zm.24.37-.06-.08.06.08Zm-.15-5.73.27.05-.27-.05Zm-.53 4.56-.01-.03.01.03Zm-1.76-3.83.8 1.8-.8-1.8Zm3.74-.5.11.02-.11-.01v-.01Zm.09-39.07.2.05-.2-.05Zm.97 39.19-.15-.02.15.02Zm1.9-5.04h-.03l-.02.02.04-.02h.01Zm7.05-32.48h.02-.02l-.34-.1.34.1Zm.17 27 .02.02-.02-.02Zm1.99-26.21.05.02-.05-.02Zm3.09 2.21-.06-.06.06.06Zm1.87 44.66v.42-.42Zm-.3 8.29.1.14.62.88-.71-1.02h-.01Zm-.1-11.71v-.14.14Zm0-12.25h.01-.01Zm-.19 23.52-.29-.45.3.45h-.01Zm.43-23.54h.03-.03Zm.1 14.28-.02-.1.01.1h.01Zm.02.42-.01-.23.01.23Zm.04 2.24v-.02.02Zm0-.3v-.44.44Zm-2.67 4.12v-.01.01Zm-2.92-21.98.08.01-.08-.01Zm.35 21.7-1.27-.61 1.27.61Zm-4.49 19.53-.2-.21.2.21Zm-1.63-73 .22.04-.22-.04Zm.6.12.22.04-.21-.04h-.01Zm-.34 38.01h.02-.02l-.13.04.13-.04Zm.54 1.02-.01.02.01-.02Zm.51-1.26a.65.65 0 0 0-.07-.06c-.35-.22-.77 0-.91.3.14-.3.56-.52.91-.3l.07.06Zm-.5 1.26Zm.78 10.77-.77-.39.77.39Zm-1.59-19.24h.01-.01Zm4.03 9.58-.12-.02.13.02h-.01Zm.29-1.13-.15-.03.15.03Zm-.3-.06-.14-.03c.05 0 .1.02.14.03Zm.59.12-.15-.03.15.03Zm.58.11-.17-.03.17.03Zm.1-7.61.06.01-.07-.01h.01Zm-.55-.1.08.01-.08-.02v.01Zm.48 7.72.5.09-.5-.1v.01Zm-5.82-39.41.21.03-.21-.03Zm-.7 49.9.9.45-.03-.01-.87-.44Zm.05-8.99-.04-.47.04.47Zm.38 5.61-.02-.16c0 .05 0 .1.02.16Zm.03.24-.02-.14.02.14Zm.16.73-.03-.1.03.1Zm-.36-2.74v-.1.1Zm-1.51 4.53.43.22-.02-.01-.41-.2v-.01Zm.33-4.52-.03-.3.03.3Zm.6 3.67-.07-.19.07.19Zm-4.04-.69-.02-.02.02.02Zm.77 23.24v.01-.01Zm6.51-20.95.01.01.02.01 2.94 1.46.37.18-3.34-1.66Zm5.8 2.87.06.04a1.4 1.4 0 0 0-.06-.03v-.01Zm5.81-43.02-.01-.02a.34.34 0 0 1-.03-.04l.05.06h-.01Zm2.2 2.66-.13-.13.13.13Zm3.8 2.79h-.01.01Zm2.97 18.17c.04 0 .07.02.1.03l-.1-.03Zm-.44-.14.13.04-.13-.04Zm-.44-.16.18.06-.18-.06Zm-2.39 6.95.17.16-.17-.16Zm-.57-7.1h.01-.01Zm-1.17-2.53.23.24a7.03 7.03 0 0 1-.23-.24Zm4.59 13.02-.1-.05.1.05Zm3.19 11.84h-.06.06Zm.33-10.24.1.03-.1-.03Zm.27 9.1v.01-.01Zm-.1-18.81h-.02.02Zm5.26-.42h.03-.03Zm-.09 23.9-.4-.82.4.82Zm-3.19-11.55c0-.06-.02-.11-.03-.17l.03.17Zm.02.16-.01-.1v.1h.01Zm.02.18v-.02.02Zm-.24-13.2h.04l.2.02-.2-.02h-.04Zm.55 16.11v-.04.04Zm-1.31-1.37.11 1.22-.11-1.22Zm-.1-.93-.03-.13.02.13h.01Zm.1.92v-.02l-.06-.48.06.5Zm.54 3.9v-.03.03Zm2.42 13.78v-.1.1Zm11.33-42.6-.04-.02.04.02Zm.88 23.48v-.02.02Zm-1.35-4.22.28.22-.28-.22Zm-1.97-3.3.22.2-.22-.2Zm.4 31.13-.09-.14.08.14h.01Zm-1.16 1.62c-.04-.21-.1-.41-.13-.64.02.23.1.43.13.64Zm.1.7v-.05.06-.01Zm.02.24v-.03.03Zm-.14-2.2-.01-.02-.02-.01.02.01v.02h.01Zm.2-32.09.24.26-.25-.26h.01Zm-.57-.58.26.28-.26-.28Zm-.16 29.2-.15-.34.15.33v.01Zm-1.67-29.43.03.03-.03-.03Zm-1.93-1.99.12.06-.13-.06h.01Zm-.54 24.88-.09-.06.09.06Zm.52-24.88c-.38-.15-.8-.25-1.2-.34.4.1.82.19 1.2.34Zm-1.3-1.57h.01-.01Zm2.87 3.1v-.01.01Zm.9 30.2v-.01h-.01l.01.01Zm15-34.23-.03-.05.03.05Zm1.35 2.16-.04-.06c0 .02.02.04.04.06Zm2.68 3.2-.19-.2.19.2Zm-41.17 24.46-.02-.04v-.01l.02.05Zm.24.53-.02-.02.02.02Zm2.39 5.7-.02-.3.02.3Zm.1 1.83v-.08.08Zm-1 3.96.12-.22-.13.22h.01Zm-51.23-29.74-.17-.12.17.12.01.01h-.01v-.01Zm-7.94-1.97.17.07-.17-.07Zm-3.47-1.96-.45-.29.45.3v-.01Zm-1.31-.85.02.02a.74.74 0 0 1-.03-.02h.01ZM122.7 55l-.41-.27.4.27h.01Zm-9.33-8.34.05.08-.05-.08Zm-.3-.49.13.22-.14-.22h.01Zm10.63 9.47-.42-.27.42.27Zm1.31-52.65h-1.16 1.16Zm1.35 0h-1.07 1.07Zm1.1.03L126.5 3c.31 0 .63 0 .94.02h.02Zm4.21.31c-.06 0-.11 0-.17-.02l.17.03v-.01Zm6.76 58.27-.12-.1.12.1Zm.22.17a.45.45 0 0 1-.13-.1l.13.1Zm-.47-56.83-2.23-.65 2.23.65ZM93.28 50.5h.01-.01Zm7.65-2.69-.5.17.5-.17Zm6.51-45.68h-.01.01Zm.08 33.81-.11-.15.11.15Zm.34.47-.1-.13.1.13Zm.14.2c-.03-.02-.04-.05-.06-.08l.06.09v-.01Zm1.51-34.25h-.01.01Zm.4 35.27v.02h.01v-.02h-.01ZM79.38 61.08l.09-.09-.09.1v-.01Zm-1.09 1.13.07-.07-.07.07Zm-1.12 1.12.06-.06-.06.06Zm.57-.56.06-.06-.06.06Zm-1.66 1.58-.09.08.1-.08h-.01Zm.58-.53-.07.06.07-.06Zm.17-53.77-.02.01h.02v-.01ZM65.17 72.07c1.45-.92 2.92-1.83 4.36-2.77-1.44.94-2.9 1.85-4.36 2.77Zm-9.08 6.63.25-.2-.25.2Zm-5.46-62.04.89-.18-.89.18Zm-15.83 5.9h.01-.01ZM22.55 97.9l-.15.08.15-.08Zm2.68-1.39-.48.26.48-.26Zm-16.38 5.48c.26-.36.48-.75.67-1.17.58-1.26.88-2.7 1.16-3.96-.28 1.25-.58 2.7-1.16 3.96-.19.42-.4.81-.67 1.17Zm-5.51-11.6c.22.76.77 1.4 1.28 2-.51-.6-1.06-1.24-1.28-2Zm-.38-8.08c.11.44.24.87.37 1.3l.29.87-.29-.88c-.13-.42-.26-.85-.37-1.29Zm4.31-39.8-.09 1.52.09-1.52Zm.53-9.6-.93.3.93-.3Zm.22 2.96v.03-.03Zm.33 22.63-.01 1.04.01-1.04Zm18.34 37.21-.4.22.4-.22Zm.73-.41-.34.19.34-.2v.01ZM26.1 26.52l.57-.24-.57.24Zm214.16 43.9c-.75-1.22-1.57-2.4-2.04-3.77-.46-1.3-.67-2.66-1-4a9.92 9.92 0 0 0-1.47-3.4c-.8-1-1.75-1.9-2.8-2.63a21.92 21.92 0 0 1-3.5-3.46 19.3 19.3 0 0 1-2.96-4.33c-.34-.75-.5-1.56-.85-2.3a6.89 6.89 0 0 0-1.3-1.8 22.85 22.85 0 0 0-3.73-3.14.57.57 0 0 0-.25-.1.62.62 0 0 0-.15-.16c-.69-.46-1.32-1-2.05-1.41-.96-.54-1.97-1-2.96-1.49-1.74-.85-3.5-1.7-5.27-2.48-3.47-1.54-7.04-2.72-10.6-4-3.36-1.2-6.78-2.71-9.13-5.5-2.24-2.65-3.26-6.21-6-8.48-2.79-2.3-6.9-3.05-10.38-3.58-1.43-.21-2.92-.05-4.3-.42-.84-.23-1.76-.35-2.47-.85a47.78 47.78 0 0 0-8.4-4.53c-2.92-1.3-5.89-2.42-9.07-2.84-2.11-.28-4.25-.36-6.34-.75-2.07-.38-4.08-1.03-6.1-1.61a41.6 41.6 0 0 0-12.18-1.54c-4.43.03-8.85-.08-13.27-.46a137.5 137.5 0 0 1-6.4-.7c-2.1-.28-4.21-.58-6.33-.45-4.13.27-8 2.42-11.73 4.02l-12.3 5.26c-3.9 1.67-7.9 3.79-12.12 4.51-2.2.38-4.43.3-6.63.56a88.4 88.4 0 0 0-5.57.9 48.99 48.99 0 0 0-10.68 3.18c-3.22 1.44-6.3 3.2-9.5 4.67-6.2 2.8-12.55 5.2-19.04 7.21-1.9.6-3.8 1.2-5.72 1.77a.55.55 0 0 0-.34.28c-.02.01-.03 0-.04.02-2.85 2.13-3.94 5.72-4.21 9.14-.07 1 .06 2.02.37 2.98.42 1.46.4 2.79.22 4.28-.3 2.62-.47 5.26-.53 7.9C1 62.39.74 67.86.8 73.32c.02 2.6.17 5.22.68 7.79.23 1.18.56 2.33.94 3.47.19.57.38 1.13.35 1.74-.04.7-.32 1.36-.48 2.04a4.28 4.28 0 0 0 .22 3.1c.53 1.05 1.44 1.85 2.09 2.82.84 1.28 1.3 2.76 1.8 4.2l1.51 4.4c.1.32.38.43.63.4.12.23.35.41.66.36 7.54-1.1 14.35-4.69 20.85-8.48 3.3-1.94 6.58-3.94 9.96-5.76 3.58-1.94 7.4-3.42 10.9-5.48 3.6-2.1 6.56-5.09 9.93-7.52 3.25-2.35 6.72-4.36 10.06-6.57a49.43 49.43 0 0 0 8.93-7.43c2.71-2.9 5.25-6 8.64-8.16 6.97-4.41 15.58-5.16 22.52-9.64a17.7 17.7 0 0 0 3.27 5.16c3.72 4.13 8.87 7 13.56 9.88 2.73 1.68 5.8 3.19 9.09 2.4.03 0 .06-.02.1-.04.85.8 1.9 1.47 2.74 2 2 1.22 4.14 2.22 6.36 2.97 2.3.83 4.66 1.5 6.99 2.27 2.39.8 4.99 1.63 7.06 3.08 1.52 1.07 2.4 2.87 3.26 4.46.58 1.07 1.05 2.35 1.8 3.32.57.77 1.54 1.25 2.33 1.76l2.39 1.56c-2.15 2.95-.83 7.08 1.2 9.75.56.75 1.21 1.44 1.93 2.04.74.62 1.5 1.03 2.43.5.83-.46 1.57-1.24 2.23-1.92.63-.63 1.2-1.32 1.73-2.03a12.2 12.2 0 0 0 4.73 2.89c2.24.66 4.8.27 6.5-1.38.13-.03.24-.1.33-.22 1.55-2.18 1.65-4.52 1.35-7.1-.12-1.04-.2-1.98-.65-2.93-.5-1.05-1.2-2-1.74-3.04-.57-1.14-.9-2.36-1.55-3.48-.31-.56-.66-1.1-1.02-1.64a.54.54 0 0 0 .3-.35c.32-1.15.7-2.58.5-3.78-.1-.62-.57-1.03-.64-1.65-.1-.73-.1-1.49-.12-2.23-.03-1.32-.01-2.64-.11-3.96-.04-.47-.11-.92-.2-1.38-.04-.23-.13-.58-.13-.89 1.03 1.53 2.3 2.94 3.28 4.38a12.09 12.09 0 0 0 4.22 4.07c.73.38 1.5.77 2.3 1.1a.5.5 0 0 0-.17.44c.2 3.15 1.54 6.2 3.46 8.66.46.6.96 1.17 1.5 1.7.57.55 1.53 1.06 1.54 1.89 0 .85-.2 1.63-.1 2.51.12.9.37 1.78.68 2.63 1.08 2.91 2.5 5.69 5.45 7.01 1.22.55 6.81 1.98 5.96-1.02-.23-.83-.88-1.44-1.1-2.3-.2-.78-.26-1.6-.35-2.4.86 1.2 1.81 2.33 2.83 3.4.1.1.22.14.33.16a9.67 9.67 0 0 0 4.32 3.61c.95.4 2.14.81 3.19.57 1.3-.3 1.32-1.21 1.12-2.33-.26-1.38-.5-2.77-.79-4.14-.28-1.32-.96-2.52-1.1-3.87-.24-2.23.22-4.54-.91-6.57v-.08c-.21-1.64-1-3.14-1.4-4.73a45.5 45.5 0 0 1-1.03-5.57c-.19-1.66-1-2.85-1.7-4.34a20.2 20.2 0 0 1-1.47-4.78 35.41 35.41 0 0 0 4.63 2.74c.3.14.6.27.89.42.46.24.61.48.8.98.48 1.29.78 2.62 1.36 3.87.6 1.3 1.5 2.36 2.55 3.32 2.05 1.86 4.19 3.97 6.8 5.03 2.03.82 4.58.9 6.45-.4.92-.64 1.52-1.41 1.3-2.56-.24-1.29-.9-2.48-1.58-3.58" fill="#FDFCFD" />
  <path d="M136.09 60.85c-3.78.6-7.31-2.13-10.33-4.04-2.83-1.8-5.71-3.54-8.27-5.72-2.48-2.1-4.62-4.63-5.68-7.75-.6-1.76-.94-3.6-1.67-5.31a14.4 14.4 0 0 0-2.62-4.07c-.5-.56-1.34.28-.83.84a13.1 13.1 0 0 1 2.44 3.84c.56 1.4.88 2.9 1.32 4.35.03.12.08.23.12.35.6-.3 1.14.65.53 1.05l-.12.07c.78 1.9 1.88 3.61 3.27 5.16 3.72 4.13 8.87 7 13.56 9.88 2.73 1.68 5.8 3.18 9.08 2.4.04 0 .07-.03.1-.04-.33-.3-.63-.65-.9-1.01Zm53.89 31.45.2-.28c-.04.02-.07.03-.1.07-1.8 1.93-4.68 1.87-6.91.75-2.26-1.14-3.95-3.06-5.64-4.88a31.42 31.42 0 0 0-5.68-4.83c-1.05-.7-2.13-1.37-3.18-2.08-.78-.51-2.06-1.18-2.5-1.75-.76-1.01-1.24-2.36-1.85-3.47-.72-1.31-1.46-2.76-2.53-3.83-1.53-1.54-3.8-2.36-5.79-3.12-2.2-.84-4.46-1.51-6.7-2.23a46.5 46.5 0 0 1-7.03-2.71c-1.1-.56-2.16-1.2-3.15-1.94-1.07-.8-2.47-1.83-2.66-3.24-.1-.75-1.24-.43-1.14.31.09.65.37 1.24.77 1.78l.49-.09c.7-.16 1 .84.41 1.1.86.8 1.9 1.46 2.75 2a31.5 31.5 0 0 0 6.36 2.97c2.3.82 4.66 1.5 6.99 2.27 2.39.8 4.99 1.63 7.06 3.08 1.53 1.07 2.4 2.86 3.26 4.45.59 1.08 1.05 2.36 1.8 3.33.57.77 1.54 1.25 2.33 1.76l2.39 1.56c.06-.09.12-.18.2-.27.48-.59 1.31.25.83.84l-.05.07.06.04a35.06 35.06 0 0 1 6.44 5.61l1.19 1.23.09-.12c.44-.61 1.47-.02 1.02.6l-.26.34a12.2 12.2 0 0 0 4.73 2.89c2.24.66 4.8.26 6.5-1.38-.46.15-1.05-.32-.7-.82v-.01Zm-24.64-37.8-1.43-.41c.37.78.75 1.56 1.1 2.35.42.94.75 1.93 1.26 2.83.8 1.35 1.72 2.62 2.75 3.79-.24-.43.26-1.08.83-.8l.07.03a19.56 19.56 0 0 1-2.8-3.94c-.63-1.26-1.2-2.56-1.78-3.85Zm-1.23-1.59.6.18c-.28-.59-.56-1.17-.85-1.74h-.03c-.55.06-.69-.55-.43-.92-1.1-2.16-2.22-4.33-3.47-6.4a18.94 18.94 0 0 0-4.85-5.3c-.6-.47-1.2.56-.6 1.02a18.65 18.65 0 0 1 5.08 6 210.9 210.9 0 0 1 3.76 7.14l.15.3c.1-.22.33-.37.64-.28Z" fill="#222" />
  <path d="m169.02 63.06.1.13.06.04.07.05.14.07c.48.14 1-.52.58-1a1.57 1.57 0 0 0-.05-.05l-.07-.04c-.57-.28-1.07.37-.83.8Zm-5.16-11.71a28 28 0 0 0 11.81-4.15l-.53-.23c-.27-.12-.32-.42-.25-.67a26.63 26.63 0 0 1-11.05 3.87.6.6 0 0 0-.44.26l.43.85.03.07Zm12.6-5.09.38.15c.86-.6 1.7-1.24 2.48-1.93.57-.5-.27-1.34-.84-.84-.84.75-1.75 1.43-2.68 2.06.08 0 .16 0 .24.02.32.05.44.29.42.54Z" fill="#222" />
  <path d="M163.84 51.35h.02l-.03-.07-.43-.85c-.26.37-.12.98.44.92Zm26.83-3.92c.35-.14.45-.5.37-.78-.1-.11-.19-.23-.28-.36a.5.5 0 0 0-.4 0 18.83 18.83 0 0 1-13.52.12c-.38.27-.77.54-1.17.79 4.76 2 10.18 2.13 15 .23Z" fill="#222" />
  <path d="m175.14 46.97.53.23c.4-.25.79-.52 1.17-.8l-.38-.14a.65.65 0 0 1-.6.6v.02l-.14-.02h.13l-.11-.9.72.3c.02-.25-.1-.5-.42-.54a1.89 1.89 0 0 0-.24-.02l-.91.6c-.08.25-.03.55.25.67Z" fill="#222" />
  <path d="M175.85 46.86a.64.64 0 0 0 .6-.6l-.71-.3.11.9Zm35.11 6.59.07.04c-.76-.83-1.09-1.73-2.22-2.13-2.14-.76-4.4-1.04-6.64-1.34-4.12-.55-8.93-1.4-11.1-5.42-.36-.67-1.38-.07-1.02.6.21.39.45.75.7 1.1.15.06.25.2.3.35 2.16 2.6 5.61 3.7 8.9 4.24 2.28.37 4.58.55 6.81 1.1.84.2 1.89.34 2.44 1.03.36.44.65.95 1.04 1.36-.44-.5.11-1.25.72-.93Z" fill="#222" />
  <path d="M240.26 70.3c-.75-1.23-1.57-2.42-2.04-3.78-.46-1.3-.67-2.67-1-4a9.74 9.74 0 0 0-1.47-3.4c-.8-1-1.75-1.9-2.8-2.64a21.96 21.96 0 0 1-3.5-3.45 19.3 19.3 0 0 1-2.96-4.33c-.34-.75-.5-1.57-.85-2.31a6.88 6.88 0 0 0-1.3-1.8 22.85 22.85 0 0 0-3.73-3.13.57.57 0 0 0-.25-.1c.3.4-.05 1.03-.5.96.03.06.08.1.15.16 1.17.8 2.26 1.7 3.25 2.7.45.46.9.93 1.2 1.5.41.75.57 1.62.91 2.4.98 2.3 2.75 4.36 4.42 6.18 1.66 1.8 4.13 2.93 5.36 5.1 1.22 2.17 1.22 4.79 2.14 7.06.47 1.14 1.14 2.16 1.78 3.2.6.98 1.63 2.37 1.63 3.57 0 1.36-1.99 1.94-3.04 2.04a6.98 6.98 0 0 1-3.66-.72c-2.34-1.13-4.4-3.11-6.26-4.9a9.27 9.27 0 0 1-2.23-3.33c-.46-1.16-.68-2.45-1.2-3.57-.52-1.11-1.88-1.43-2.9-1.96a35.38 35.38 0 0 1-9.77-7.6c-.02.4-.43.78-.88.54l-.3-.16-.05-.03a.95.95 0 0 1-.05-.02c-.04-.04-.08-.05-.12-.1a36.92 36.92 0 0 0 5.69 5.29c.28-.35.92-.38 1 .17l.13.64a35.5 35.5 0 0 0 4.63 2.74c.3.14.6.27.89.42.46.23.61.48.8.98.48 1.28.78 2.62 1.36 3.87.61 1.3 1.5 2.36 2.55 3.32 2.05 1.86 4.19 3.97 6.8 5.03 2.03.82 4.58.9 6.45-.4.92-.64 1.52-1.42 1.3-2.56-.24-1.3-.9-2.48-1.58-3.58Z" fill="#222" />
  <path d="m211.08 53.55-.72.92.05.03.06.03c.5.18 1.06-.5.6-.98" fill="#222" />
  <path d="m210.47 54.53.29.16c.45.24.86-.15.88-.53l-.56-.61c.45.47-.11 1.16-.61.98Zm0 0-.06-.03.06.03Zm.56-1.03a2 2 0 0 0-.07-.05c-.6-.32-1.16.43-.72.93l.13.1.7-.93c0-.02-.02-.04-.04-.06Zm-38.58 1.87c.05-.3.15-.58.35-.8.47-.51 1.19.12.94.66.58-.08 1.15-.18 1.72-.33a.53.53 0 0 0 .32-.24c-.14-.1-.29-.2-.42-.31-.22-.18-.24-.4-.15-.6h-.07c-3.47.92-7.05.34-10.43-.66l.63 1.4c2.33.63 4.72 1 7.11.88Zm-7.75-2.28-.59-.18c-.3-.1-.53.06-.65.28l.45.9 1.43.4-.63-1.4" fill="#222" />
  <path d="M174.83 64.37c-.87-1.16-.87-2.8-1-4.2-.1-1.2-.17-2.42-.2-3.63 0-.2-.11-1 .01-1.13a.54.54 0 0 0 .1-.18c-.43.06-.86.11-1.3.14-.09.57.01 1.23.03 1.75.03.96.08 1.91.16 2.87.1 1.26.15 2.73.63 3.97l1.67.82a.48.48 0 0 0-.1-.4" fill="#222" />
  <path d="M173.81 64.97c.35.46 1.02.22 1.12-.2l-1.67-.82c.14.37.32.7.55 1.02Zm-1.01-10.4c-.2.22-.3.5-.35.8.43-.03.87-.08 1.3-.14.24-.54-.48-1.17-.95-.66Zm5.8 36.23a18.77 18.77 0 0 1-3.29 3.45c-.4.32-.68.52-1.15.2-.3-.22-.57-.48-.83-.72a11.07 11.07 0 0 1-1.52-1.77c-1.5-2.18-2.75-5.68-.9-8.04l-.98-.64c-2.15 2.95-.83 7.07 1.2 9.74.56.76 1.2 1.45 1.93 2.05.74.6 1.5 1.03 2.43.5.83-.47 1.57-1.24 2.24-1.92.62-.64 1.18-1.32 1.72-2.03-.3-.27-.58-.54-.85-.82Z" fill="#222" />
  <path d="m178.7 90.7-.09.1.85.83.26-.34c.45-.62-.57-1.2-1.02-.6Zm-7.72-6.84c.48-.58-.36-1.42-.84-.83l-.2.27.99.64.05-.08Zm15.09-24.38c-.49.7-.15 1.77-.02 2.53.24 1.3.18 2.67.2 3.98 0 .66.01 1.33.05 1.99.03.62.02 1.33.27 1.9.12.28.37.5.46.8.08.3 0 .7-.02 1-.05.67-.19 1.3-.35 1.94l.74 1.1a.55.55 0 0 0 .29-.35c.33-1.15.7-2.6.52-3.8-.1-.61-.58-1.01-.66-1.63-.09-.74-.1-1.5-.11-2.23-.03-1.32-.01-2.65-.11-3.97-.04-.46-.11-.91-.2-1.37-.04-.23-.13-.58-.13-.9-.26-.37-.5-.77-.72-1.17a.64.64 0 0 0-.2.18h-.01Zm.43 14.59c-.17.55.45.86.85.66l-.75-1.1-.1.44Zm11.3-3.66c.87.3 1.76.5 2.65.55.76.03.76-1.15 0-1.18-1.92-.1-3.92-1.1-5.58-2-1.69-.94-2.77-2.37-3.84-3.93-.83-1.2-1.78-2.31-2.62-3.5-.9-1.25-1.86-2.7-2.03-4.26 0-.06-.03-.1-.04-.14.07.33-.1.73-.55.73l-.5-.02c.17.93.53 1.8.99 2.64.48-.28 1.2.24.82.78-.08.1-.1.25-.1.4 1.03 1.52 2.3 2.94 3.28 4.37 1.15 1.67 2.41 3.12 4.22 4.07.73.39 1.5.78 2.3 1.1.32-.25.92-.12 1 .39Z" fill="#222" />
  <path d="M196.8 70.02c.32.14.65.26.99.38-.08-.5-.69-.64-1-.38h.01Zm4.1-9.52a.48.48 0 0 0-.47.24c.46.15.93.28 1.4.37-.2-.33-.5-.57-.93-.6v-.01Zm-13.8-.42c.38-.54-.34-1.05-.82-.78.22.4.46.8.72 1.18 0-.15.02-.3.1-.4Zm-1.31-4.58a31.04 31.04 0 0 1-5.14-.47c-1.5-.27-3.26-.52-4.46-1.52-.36-.3-.84-.08-.98.25.53-.1.81.53.57.9 1.28.88 2.86 1.2 4.37 1.48 1.7.3 3.41.48 5.13.53a7.1 7.1 0 0 1-.09-.58c-.07-.7.94-.74 1.15-.14a.54.54 0 0 0-.55-.45Z" fill="#222" />
  <path d="M175.36 54.35c.13.12.28.22.42.32.24-.38-.04-1-.57-.9-.09.18-.07.4.15.6v-.02Zm9.84 1.74c.02.2.05.38.09.57l.5.02c.44 0 .62-.4.55-.73-.21-.6-1.22-.57-1.14.14Zm27.18 31.12-.05-.07-.01.1c-.02.16 0 .35 0 .52 0 .33.11.58.16.88.19 1.12.12 2.37.48 3.51.17.56.48 1 .74 1.5.2.44.31.8-.27.84-1.65.1-3.3-.31-4.7-1.18a7.55 7.55 0 0 1-2.71-3.12 17.63 17.63 0 0 1-1.73-4.58 7.4 7.4 0 0 1-.03-2.52c.07-.48.16-.96-.08-1.4-.23-.46-.7-.74-1.06-1.06-.5-.45-.99-.93-1.44-1.44a14.9 14.9 0 0 1-3.86-8.72l-.02-.06a13.6 13.6 0 0 1-1-.38.5.5 0 0 0-.17.44c.2 3.14 1.54 6.2 3.46 8.66.46.6.97 1.17 1.5 1.7.57.55 1.53 1.05 1.54 1.88 0 .85-.2 1.64-.1 2.52a12 12 0 0 0 .69 2.63c1.07 2.9 2.48 5.7 5.44 7 1.22.55 6.81 1.98 5.96-1.02-.23-.82-.88-1.44-1.1-2.3-.2-.78-.26-1.6-.35-2.4-.45-.63-.88-1.27-1.29-1.93Zm3.55-27.54a.6.6 0 0 0-.14.48c.4 2.5 1.22 4.9 2.45 7.12.48.9.72 1.64.84 2.66.2 1.63.52 3.26.88 4.85.18.82.4 1.63.67 2.42.3.9.73 1.75.85 2.7l.03.07c.14-.4.79-.62 1.08-.13l.07.14v-.09c-.2-1.63-1-3.13-1.4-4.72a44.16 44.16 0 0 1-1.03-5.58c-.19-1.66-1-2.84-1.7-4.33a20.3 20.3 0 0 1-1.47-4.78c-.23-.16-.47-.3-.7-.47l-.43-.34Z" fill="#222" />
  <path d="m215.93 59.67.44.34.69.47c-.04-.2-.09-.42-.12-.64-.09-.55-.73-.52-1.01-.17Zm5.57 20.3c-.04.14-.03.3.07.47 1.03 1.72.65 3.8.78 5.72.07 1.02.3 1.93.67 2.88.39 1.03.59 2.08.79 3.16l.3 1.63.15.75c.03.14.21.75.17.9-.29.8-2.37-.04-2.91-.28a8.58 8.58 0 0 1-4.13-3.87.51.51 0 0 0-.62-.27c.2.21.37.44.57.64.43.45-.03 1.07-.5 1a9.66 9.66 0 0 0 4.3 3.62c.96.4 2.15.81 3.2.57 1.3-.3 1.33-1.2 1.12-2.33-.26-1.38-.5-2.77-.79-4.14-.28-1.33-.96-2.52-1.1-3.88-.24-2.22.22-4.53-.91-6.56 0 .63-.99.62-1.15 0" fill="#222" />
  <path d="M221.5 79.97c.17.63 1.15.64 1.16 0l-.07-.13c-.3-.5-.94-.28-1.08.13h-.01Zm-16.44-18.83c.75-.17.43-1.31-.31-1.14-1.46.34-2.9-.03-4.28-.53-1.2-.45-2.38-.97-3.51-1.58-2.14-1.16-4.08-2.7-5.24-4.88-.36-.67-1.38-.07-1.02.6 1.29 2.41 3.47 4.14 5.85 5.4 1.19.63 2.51 1.3 3.89 1.74a.48.48 0 0 1 .47-.23c.44.04.73.28.93.6a7.6 7.6 0 0 0 3.22.02Z" fill="#222" />
  <path d="M216.77 91.06c-1.9-2.09-3.5-4.4-4.72-6.95-.69-1.43-1.14-2.9-1.68-4.39-.46-1.27-1.9-1.9-2.92-2.67-1.27-.98-1.9-2.61-2.6-4.02-.8-1.51-1.4-3.11-1.83-4.77-.37-1.6-.4-3.24-.63-4.86-.09-.64-.15-1.63-.55-2.27-.47-.1-.94-.23-1.4-.38-.2.34-.06.92.47.96.08 0 .38 2.35.4 2.54.1.82.15 1.63.25 2.44.17 1.46.52 2.86 1.05 4.22.56 1.41 1.21 2.8 1.94 4.13a8.09 8.09 0 0 0 2.3 3.03c.63.46 1.37.86 1.93 1.4.58.55.69 1.36.94 2.09.67 1.9 1.54 3.74 2.58 5.48-.11-.46.53-.95 1.01-.55.28.23.19.77.2 1.09 0 .13-.04.57-.09.45.06.23.18.48.2.74.03.12.04.25.05.38.86 1.2 1.8 2.34 2.83 3.4.1.1.22.14.33.16a9.38 9.38 0 0 1-.46-.79c-.22-.4.06-.77.4-.86Z" fill="#222" />
  <path d="M213.42 88.03a.64.64 0 0 1-.03-.15l.03.15c.05.1.08-.32.08-.45 0-.32.1-.86-.19-1.1-.48-.4-1.12.1-1.01.56l.03.06v-.03c0-.04 0-.05 0 0l.01.05.09.15.04.05-.03-.03c.39.63.8 1.25 1.23 1.85l-.04-.37c-.03-.26-.15-.51-.21-.74Zm3.92 3.67c-.2-.2-.38-.43-.57-.64-.34.1-.62.46-.4.86.14.27.3.53.46.78.47.07.94-.55.51-1ZM100.3 27.33c-4.23.28-8.43-.04-12.57-.93-1.84-.4-3.71-.81-5.61-.6-1.96.2-3.8.92-5.67 1.52-.72.23-.41 1.37.31 1.14 1.87-.6 3.74-1.37 5.71-1.52 2.05-.15 4.05.44 6.04.83 3.88.76 7.84 1 11.78.75.76-.05.76-1.24 0-1.2h.01Zm119.55 14.99c.46.07.8-.56.52-.96-.46-.07-.8.55-.52.96Zm-42.21 42.44c1.33-.83 2.67-1.65 4.03-2.43.18-.1.45-.3.66-.28.13.02.29.16.4.23.94.67 1.84 1.4 2.67 2.2.54.52 1.06 1.04 1.58 1.58.5.5 1.03 1 1.39 1.62.84 1.42-.44 2.32-1.57 2.96-.66.37-.07 1.4.6 1.02 1.3-.74 2.7-1.8 2.4-3.5-.2-.84-.65-1.6-1.27-2.2-.64-.7-1.31-1.37-1.99-2.03-.69-.66-1.4-1.3-2.15-1.9-.6-.46-1.35-1.18-2.16-1.17-.43.02-.8.24-1.16.45-1.36.77-2.7 1.58-4.03 2.43-.64.4-.05 1.43.6 1.02Z" fill="#222" />
  <path d="m186.5 74.06.1-.43-.74-1.09c-.73-1.05-1.4-2.26-2.33-3.16-1.03-1-2.47-1.53-3.74-2.15l-4.9-2.44c-.1.41-.78.65-1.13.2a4.18 4.18 0 0 1-.55-1.03l-3.34-1.66.05.06c.42.48-.1 1.14-.57 1l10.2 5.06c.74.37 1.51.72 2.23 1.14.85.5 1.4 1.18 1.95 1.97.97 1.4 1.96 2.8 2.89 4.23.88 1.38 1.43 2.8 2.09 4.28.53 1.2 1.37 2.25 1.93 3.44.58 1.24.6 2.9.66 4.25a7.18 7.18 0 0 1-1.18 4.3c.53-.38 1.23.38.74.9-.07.08-.15.14-.22.2a.6.6 0 0 0 .32-.2c1.55-2.19 1.65-4.54 1.35-7.1-.12-1.05-.2-1.99-.65-2.94-.5-1.06-1.2-2-1.73-3.04-.58-1.14-.92-2.36-1.56-3.49-.32-.55-.66-1.1-1.02-1.63-.4.2-1.01-.1-.85-.67Z" fill="#222" />
  <path d="m190.16 91.99-.19.29c-.35.5.24.97.7.82l.23-.2c.5-.53-.21-1.29-.74-.91ZM5.9 32.62c.24-.1.54-.06.73.21l.22.36c6.5-1.97 12.96-4.07 19.23-6.67 2.94-1.22 5.84-2.55 8.7-3.96 3.36-1.65 6.59-3.41 10.2-4.5a64.83 64.83 0 0 1 11.6-2.33c1.97-.2 3.96-.18 5.93-.46 2.08-.3 4.07-.97 6.01-1.76C76.51 10.3 84.37 6.74 92.3 3.36c2.07-.88 4.17-1.74 6.44-1.92 2.12-.16 4.24.12 6.34.4 4.32.58 8.66.97 13.02 1.13 4.27.15 8.59-.2 12.84.27 4.17.46 8.05 2.2 12.16 2.94 3.73.67 7.47.63 11.09 1.89a58.99 58.99 0 0 1 9.02 4.12c1.24.68 2.39 1.55 3.63 2.22.69.38 1.59.5 2.35.7 1.3.35 2.64.2 3.98.38 2 .27 4 .72 5.94 1.29 1.9.56 3.7 1.36 5.08 2.82 1.22 1.28 2.06 2.87 2.94 4.4 1.74 3 3.87 5.34 6.96 7 3.07 1.64 6.45 2.58 9.72 3.76 3.76 1.35 7.38 3.02 10.95 4.78.89.44 1.8.85 2.65 1.33.78.42 1.46 1 2.19 1.49.08.05.16.08.24.1-.3-.41.05-1.03.51-.97a.6.6 0 0 0-.16-.16c-.68-.46-1.32-1-2.04-1.41-.96-.54-1.98-1-2.97-1.48-1.74-.86-3.49-1.7-5.26-2.49-3.47-1.54-7.04-2.72-10.6-4-3.36-1.2-6.79-2.7-9.14-5.5-2.24-2.65-3.26-6.21-6-8.48-2.78-2.3-6.9-3.06-10.38-3.58-1.43-.21-2.92-.05-4.3-.42-.84-.23-1.76-.35-2.46-.85a47.77 47.77 0 0 0-8.4-4.53c-2.93-1.3-5.9-2.42-9.08-2.84-2.11-.28-4.24-.36-6.34-.75-2.07-.38-4.08-1.02-6.1-1.61a41.67 41.67 0 0 0-12.18-1.54c-4.43.03-8.85-.08-13.27-.46-2.13-.18-4.26-.42-6.39-.7-2.1-.28-4.22-.58-6.34-.45-4.13.27-7.99 2.42-11.73 4.02l-12.3 5.26c-3.9 1.67-7.89 3.8-12.12 4.51-2.19.38-4.42.3-6.62.57-1.87.22-3.73.54-5.57.9-3.66.7-7.29 1.65-10.69 3.17-3.21 1.44-6.29 3.2-9.49 4.67-6.2 2.79-12.55 5.2-19.04 7.2-1.9.62-3.81 1.2-5.73 1.78a.56.56 0 0 0-.34.28c.22-.14.43-.1.58.02h.01Zm130.7 28.11-.5.09c.26.36.57.7.9 1 .6-.25.3-1.25-.4-1.09ZM110.58 43.3c.13.39.27.76.41 1.13l.12-.07c.61-.4.08-1.35-.53-1.05v-.01Zm-.08.21c-6.18 4.04-13.67 5.08-20.2 8.35-3.43 1.71-6.2 4.14-8.78 6.94-2.75 2.98-5.43 5.88-8.73 8.28-3.2 2.32-6.62 4.3-9.91 6.48-3.39 2.23-6.37 4.91-9.6 7.35-3.35 2.54-7.23 4.11-10.98 5.97-3.36 1.7-6.66 3.54-9.88 5.5-7.04 4.17-14.23 8.44-22.36 9.92-.18.3-.38.59-.6.85-.22.26-.5.23-.7.08a.66.66 0 0 1-.23.06c.12.23.35.4.66.36 7.54-1.1 14.35-4.7 20.85-8.49 3.3-1.93 6.58-3.94 9.96-5.76 3.58-1.93 7.4-3.42 10.9-5.47 3.6-2.1 6.56-5.1 9.93-7.53 3.25-2.35 6.72-4.35 10.06-6.57a49.38 49.38 0 0 0 8.93-7.42c2.71-2.9 5.25-6.01 8.64-8.16 6.97-4.42 15.58-5.16 22.52-9.65-.15-.37-.29-.74-.41-1.12l-.07.03Z" fill="#222" />
  <path d="m5.64 33.47-.02-.03c-.25-.35-.02-.68.29-.8a.45.45 0 0 0-.58-.02c-.16.3-.02.73.3.85h.01Zm2.85 69.35a.62.62 0 0 0 .04.47c.08 0 .15-.03.22-.06a.67.67 0 0 1-.26-.41ZM6.07 33.46l.8-.25c-.08-.12-.14-.24-.23-.36-.19-.28-.49-.3-.73-.21a.7.7 0 0 1 .16.82Zm2.97 69.12c.11.32-.05.55-.29.65.2.15.49.18.7-.08.23-.26.43-.55.6-.85-.34.07-.69.13-1.04.18l.03.1Z" fill="#222" />
  <path d="m6.07 33.45-.09.03a.53.53 0 0 1-.34-.01l.16.26.09-.08a.63.63 0 0 0 .18-.2Zm2.81 69.05.13-.02-.16-.48-.23.32a.58.58 0 0 0-.14.5.46.46 0 0 1 .4-.31v-.01Z" fill="#222" />
  <path d="m5.98 33.48.09-.02a.68.68 0 0 0-.16-.82c-.32.12-.54.45-.29.8l.02.03c.1.04.21.05.34.01Zm3.06 69.1-.03-.1-.13.02a.5.5 0 0 0-.4.32.7.7 0 0 0 .27.41c.24-.1.4-.33.3-.65h-.01Z" fill="#222" />
</svg>