<svg width="310" height="200" xmlns="http://www.w3.org/2000/svg">
  <path d="M308.87 198.51H.8V16.76h308.08V198.5Z" fill="#fff" />
  <path fill="#CEDBE6" d="M.79.49h308.08v16.26H.79z" />
  <path d="M21.82 9.05a2.93 2.93 0 1 1-5.86 0 2.93 2.93 0 0 1 5.86 0Z" fill="#EB5F6F" />
  <path d="M31.28 9.05a2.93 2.93 0 1 1-5.86 0 2.93 2.93 0 0 1 5.86 0Z" fill="#FFCE49" />
  <path d="M40.73 9.05a2.93 2.93 0 1 1-5.86 0 2.93 2.93 0 0 1 5.86 0Z" fill="#8FCACF" />
  <path fill="#C4CFE2" d="M164.29 137.08h99.74v12.06h-99.74z" />
  <path d="M220.66 40.07H164.3v-5.78h56.37v5.78Zm69.28 9.63h-24.8v-5.78h24.8v5.79Zm-48.58 0h-77.07v-5.78h77.07v5.79m48.58 17.69H164.3v-3.14h125.66v3.13Zm0 6.86H164.3v-3.14h125.66v3.14Zm0 99.8H164.3v-3.13h125.66v3.13Zm-87.11 6.87h-38.54v-3.13h38.54v3.13Zm87.11-99.81H164.3V78h125.66v3.13Zm0 6.87H164.3v-3.13h125.66v3.13Zm0 11.44H164.3V96.3h125.66v3.13Zm0 6.87H164.3v-3.14h125.66v3.14Zm0 6.86H164.3v-3.13h125.66v3.13Zm-40.07 6.86H164.3v-3.13h85.58v3.13Z" fill="#E8ECF5" />
  <path d="M12.25 130.8V85.23h28.4v45.57h-28.4Zm0 50.13v-45.56h28.4v45.56h-28.4Zm0-100.6V34.77h28.4v45.56h-28.4Zm138.15 100.6H45.82V34.29h104.56v146.64Z" fill="#D7DDE7" />
  <path d="M89.9 120.86a2.6 2.6 0 1 0 0 5.2 2.6 2.6 0 0 0 0-5.2Zm10.9 0a2.6 2.6 0 1 0 0 5.2 2.6 2.6 0 0 0 0-5.2Zm-13.69-4.39-.42-2.72h17.18l-.43 2.72H87.11Zm18.5-13.93-.44 2.87H85.39l-.45-2.87h20.68Zm-19.8 5.5h18.95l-.48 3.1h-18l-.48-3.1Zm27-14.04h-4.67c-.64 0-1.2.47-1.3 1.1l-.76 4.82H83.41c-.38 0-.74.16-1 .45-.24.3-.35.68-.3 1.06l2.59 16.55c.1.64.64 1.11 1.3 1.11h18.57c.64 0 1.2-.47 1.3-1.11l.41-2.68 2.98-18.67h3.55a1.31 1.31 0 0 0 0-2.63" fill="#fff" />
  <path fill-opacity=".1" d="M.79.49h308.08V198.5H.79z" />
</svg>