<svg width="550" height="416" xmlns="http://www.w3.org/2000/svg">
  <g clip-path="url(#a)">
    <path d="M533.98 296.98H16v-277h518v276.98l-.02.02Z" fill="#fff" />
    <path d="M16.01 13H534v6.98H16V13h.01Z" fill="#CEDBE6" />
    <path d="M26.15 16.57a1.56 1.56 0 0 1-1.58 1.56A1.58 1.58 0 0 1 23 16.57 1.56 1.56 0 0 1 24.57 15a1.58 1.58 0 0 1 1.58 1.57Z" fill="#EB5F6F" />
    <path d="M31.38 16.57a1.56 1.56 0 0 1-1.57 1.56 1.58 1.58 0 0 1-1.58-1.56A1.56 1.56 0 0 1 29.81 15a1.58 1.58 0 0 1 1.57 1.57Z" fill="#FFCE49" />
    <path d="M36.62 16.57a1.56 1.56 0 0 1-1.57 1.56 1.58 1.58 0 0 1-1.57-1.56A1.56 1.56 0 0 1 35.05 15a1.58 1.58 0 0 1 1.57 1.57Z" fill="#8FCACF" />
    <path d="M534 297H16V13h518v284Zm3.97-297H12.42A12.23 12.23 0 0 0 .2 12.24v297.93h550V12.24C550.2 5.48 544.72 0 537.97 0Z" fill="#1A1817" />
    <path d="M274.82 310.17H0v18.67a24.34 24.34 0 0 0 14.94 22.44 24.15 24.15 0 0 0 9.26 1.85h501.6a24.15 24.15 0 0 0 22.36-15 24.34 24.34 0 0 0 1.84-9.3v-18.66H274.82Z" fill="#2B2B2D" />
    <path d="M226.33 353.13v25.79h95.38v-25.8h-95.38Zm135.63 57.07c-36.06-15.45-40.25-31.34-40.25-31.34h-95.38s-4.18 15.89-40.24 31.34v5.92h176.2v-5.92h-.33Z" fill="#1F1E20" />
    <path fill-rule="evenodd" clip-rule="evenodd" d="M274.53 340a7.54 7.54 0 0 0 7.47-6.38 2.03 2.03 0 0 1-.7-.23.93.93 0 0 1-.44-.03l-.07-.02c-.74.66-1.23.94-2 .94-.19.3-.23.4-.12.84-.04.08-.18.23-.31.17-.14-.06-.28-.32-.3-.8.1-.16.13-.25.2-.4v-.01c-.17.16-.26.24-.42.3 0 .21-.03.3-.21.43.02.21.03.33-.1.52h-.02c-.1.04-.17.06-.3 0-.02.07-.02.1-.21.1-.1-.02-.14-.06-.21-.31 0-.23-.03-.34-.1-.52 0-.21.02-.33.1-.52-.24-.1-.33-.21-.32-.53 0-.02.05-.05.15-.1.16-.07.42-.18.7-.42a.51.51 0 0 1-.31-.25l-.55-.17c-.1-.06-.15-.09-.2 0-.15.08-.25.11-.53.06-.22.05-.62.09-.85-.06-.1-.06-.14-.1-.16-.2.05-.14.3-.19.77-.28a25 25 0 0 0 .67-.14c.17-.01.4.01.69.05l.36.05c.47-.09.85-.2 1.23-.3.61-.17 1.22-.34 2.24-.43.5-.08.9-.13 1.29-.17a7.54 7.54 0 0 0-7.44-6.19 7.55 7.55 0 0 0-7.19 5.2 7.2 7.2 0 0 1 1.59-.51c.47 0 2.05.22 3.26.63.2.11.29.26.39.45 0 .03.02.05.03.07.53.18.8.32 1.26.62l.04.05c.28.4.45.63.6 1.1-.04.1-.07.16-.32.1-.2-.16-.3-.25-.42-.51a.5.5 0 0 1-.21-.1c.16.52.25.82.31 1.35l-.02.04c-.03.07-.05.12-.4-.25.03.12.03.18 0 .2-.1.04-.37.05-.52-.51-.09-.36-.22-.54-.53-.84-.07.47.01.71.2 1.15-.13.17-.23.24-.52.1-.1.1-.16.12-.2.1-.2-.14-.25-.25-.22-.51a1.9 1.9 0 0 0-1.26-.74 2.4 2.4 0 0 1-1.05-.73l-.07.03c-.53.2-.85.32-.98.6-.49.4-.88.7-1.3.94a7.53 7.53 0 0 0 7.53 6.97Z" fill="#1A1817" />
  </g>
  <defs>
    <clipPath id="a">
      <path fill="#fff" d="M0 0h550v416H0z" />
    </clipPath>
  </defs>
</svg>