<svg width="393" height="450" xmlns="http://www.w3.org/2000/svg">
<g clip-path="url(#clip0_3_87)">
<path d="M357.329 446.569L358.409 428.582L361.377 423.499C361.377 423.499 354.617 426.273 343.299 426.273C331.974 426.273 325.319 423.544 325.319 423.544L328.646 429.101L329.825 446.569C329.825 448.445 335.982 449.961 343.58 449.961C351.178 449.961 357.335 448.439 357.335 446.569H357.329ZM353.936 362.585L356.196 353.624L368.706 340.426L365.405 337.605L352.167 351.669L349.547 362.368C347.569 362.302 345.598 362.27 343.62 362.27C329.675 362.27 318.376 363.864 318.376 365.832C318.376 367.8 329.675 369.394 343.62 369.394C357.565 369.394 368.87 367.8 368.87 365.832C368.87 364.388 362.739 363.142 353.936 362.578" fill="#D34A47"/>
<path d="M352.626 367.596C352.626 367.596 352.135 367.708 350.694 367.714C349.253 367.714 348.237 367.701 347.825 367.334C347.718 367.215 347.66 367.061 347.661 366.901C347.661 366.638 347.838 366.494 348.074 366.396L348.29 366.743C348.198 366.776 348.139 366.809 348.139 366.855C348.139 367.052 349.613 367.183 350.739 367.17C351.866 367.157 353.228 367.058 353.228 366.868C353.228 366.809 353.124 366.757 352.947 366.711L353.163 366.376C353.451 366.461 353.707 366.638 353.707 366.947C353.707 367.458 353.052 367.537 352.626 367.603" fill="white"/>
<path d="M368.673 340.452C368.988 340.085 368.516 339.153 367.612 338.372C366.708 337.585 365.719 337.244 365.405 337.612C365.09 337.972 365.569 338.904 366.473 339.691C367.376 340.478 368.359 340.813 368.673 340.452ZM356.726 402.639C356.431 399.778 362.968 395.633 361.292 395.501C357.682 395.711 355.881 399.746 354.067 403.977C353.405 405.525 351.119 412.131 349.632 411.317C348.139 410.504 351.565 405.072 352.528 401.845C351.414 402.658 347.353 405.827 346.305 402.862C344.622 404.298 341.019 405.072 341.425 401.3C340.528 402.894 338.517 405.118 336.1 404.193C332.93 402.986 337.934 392.845 339.179 393.356C340.43 393.868 338.93 396.177 338.543 397.076C337.679 399.044 336.683 401.53 337.345 402.035C338.491 402.907 341.589 398.749 341.661 398.657C342.238 397.883 343.888 392.851 345.224 393.429C346.561 394.006 341.903 400.651 343.646 401.969C343.993 402.232 345.427 401.805 346.305 400.854C346.868 400.244 346.672 398.886 348.558 394.38C350.445 389.867 352.121 384.251 353.418 384.678C354.709 385.111 353.641 387.991 353.183 389.066C351.001 394.104 347.242 402.435 349.017 401.805C350.785 401.176 351.715 401.143 353.451 399.096C355.187 397.063 355.108 393.698 356.268 393.77C357.427 393.842 357.23 394.918 356.949 395.738C358.089 394.426 362.353 391.671 363.381 394.406C364.606 397.633 357.289 402.304 359.11 402.068C360.885 401.838 363.774 400.001 365.005 398.335L368.392 367.786C368.392 367.786 364.986 370.614 343.292 370.614C321.612 370.614 318.546 367.846 318.546 367.846L321.428 395.731C322.967 391.369 326.603 382.539 332.327 382.835C334.934 382.966 338.419 388.004 335.439 388.174C334.174 388.246 334.043 385.662 332.557 385.281C331.476 385.006 329.969 385.885 329 386.843C327.068 388.745 322.908 396.23 323.459 399.969C324.159 404.731 330.009 398.316 330.998 396.407C331.699 395.069 332.17 391.093 333.69 391.507C335.216 391.92 333.559 396.033 332.452 399.654C331.207 403.734 330.559 408.031 329 407.532C327.448 407.04 329.982 401.779 329.891 400.861C328.43 402.212 325.732 405.643 322.286 403.944L324.074 421.262C324.074 421.262 328.836 425.034 343.174 425.034C357.519 425.034 362.451 421.321 362.451 421.321L364.678 401.261C362.857 403.039 357.099 406.194 356.733 402.639" fill="#D34A47"/>
<path d="M163.829 345.365H227.809C230.114 345.364 232.396 345.818 234.526 346.702C236.655 347.585 238.59 348.88 240.219 350.513C241.848 352.146 243.14 354.084 244.02 356.218C244.901 358.351 245.352 360.637 245.35 362.945V424.587C245.352 426.896 244.901 429.182 244.02 431.315C243.14 433.448 241.848 435.387 240.219 437.02C238.59 438.652 236.655 439.948 234.526 440.831C232.396 441.714 230.114 442.169 227.809 442.168H163.829C161.523 442.169 159.24 441.716 157.11 440.833C154.98 439.95 153.044 438.655 151.415 437.022C149.785 435.389 148.492 433.45 147.611 431.317C146.731 429.183 146.279 426.896 146.281 424.587V362.952C146.279 360.643 146.731 358.356 147.611 356.223C148.492 354.089 149.785 352.15 151.415 350.517C153.044 348.884 154.98 347.589 157.11 346.707C159.24 345.824 161.523 345.37 163.829 345.372V345.365Z" fill="#001E36"/>
<path d="M168.577 413.252V370.679C168.577 370.397 168.695 370.227 168.99 370.227C169.691 370.227 170.346 370.227 171.296 370.187C172.291 370.148 173.326 370.148 174.44 370.102C175.553 370.063 176.745 370.063 178.029 370.023C179.306 369.977 180.544 369.977 181.782 369.977C185.168 369.977 187.972 370.397 190.284 371.263C192.358 371.968 194.248 373.126 195.819 374.655C197.15 375.994 198.177 377.605 198.832 379.378C199.456 381.1 199.777 382.918 199.782 384.75C199.782 388.305 198.956 391.244 197.306 393.56C195.647 395.875 193.33 397.635 190.657 398.611C187.854 399.641 184.756 400.015 181.369 400.015C180.38 400.015 179.719 400.015 179.306 399.975C178.894 399.929 178.317 399.929 177.531 399.929V413.213C177.54 413.281 177.536 413.35 177.517 413.417C177.499 413.483 177.467 413.545 177.425 413.599C177.382 413.653 177.329 413.698 177.268 413.731C177.208 413.763 177.141 413.784 177.073 413.79H169.069C168.741 413.79 168.577 413.626 168.577 413.252V413.252ZM177.57 378.216V392.117C178.147 392.156 178.684 392.195 179.182 392.195H181.369C182.981 392.195 184.592 391.946 186.118 391.454C187.435 391.065 188.612 390.302 189.505 389.257C190.369 388.227 190.782 386.816 190.782 384.993C190.821 383.714 190.494 382.434 189.832 381.319C189.145 380.244 188.133 379.417 186.944 378.958C185.393 378.349 183.734 378.068 182.07 378.131C180.996 378.131 180.046 378.131 179.267 378.171C178.442 378.131 177.859 378.171 177.57 378.216ZM225.536 389.591C224.298 388.929 222.982 388.476 221.573 388.181C220.047 387.853 218.521 387.643 216.956 387.643C216.118 387.615 215.281 387.715 214.473 387.938C213.943 388.063 213.491 388.351 213.196 388.765C212.993 389.093 212.868 389.506 212.868 389.88C212.868 390.254 213.032 390.621 213.281 390.956C213.648 391.415 214.146 391.782 214.683 392.071C215.633 392.569 216.622 393.022 217.611 393.435C219.84 394.187 221.972 395.2 223.964 396.453C225.323 397.307 226.447 398.489 227.233 399.89C227.888 401.215 228.222 402.665 228.182 404.154C228.222 406.095 227.645 408.044 226.571 409.657C225.418 411.306 223.812 412.582 221.947 413.331C219.923 414.203 217.447 414.663 214.48 414.663C212.58 414.663 210.72 414.499 208.86 414.125C207.403 413.872 205.987 413.427 204.648 412.8C204.36 412.636 204.157 412.34 204.196 412.012V404.816C204.196 404.685 204.236 404.528 204.36 404.442C204.491 404.357 204.609 404.403 204.733 404.482C206.322 405.423 208.048 406.109 209.849 406.515C211.421 406.922 213.071 407.132 214.722 407.132C216.294 407.132 217.408 406.922 218.148 406.555C218.809 406.266 219.261 405.558 219.261 404.816C219.261 404.233 218.934 403.701 218.279 403.163C217.611 402.619 216.248 402.002 214.231 401.215C212.155 400.482 210.185 399.481 208.369 398.237C207.073 397.313 205.999 396.112 205.225 394.721C204.57 393.396 204.242 391.946 204.281 390.503C204.281 388.719 204.773 387.026 205.683 385.498C206.732 383.838 208.238 382.516 210.019 381.693C211.958 380.696 214.395 380.237 217.322 380.237C219.019 380.237 220.748 380.368 222.445 380.611C223.682 380.775 224.875 381.109 225.995 381.562C226.158 381.608 226.322 381.772 226.407 381.936C226.447 382.1 226.486 382.264 226.486 382.434V389.178C226.486 389.342 226.407 389.506 226.283 389.591C225.909 389.676 225.7 389.676 225.536 389.591V389.591Z" fill="#31A8FF"/>
<path d="M30.7064 450C35.669 449.993 40.4257 448.013 43.9311 444.495C47.4364 440.977 49.4036 436.209 49.4001 431.239V412.478H30.7064C25.7438 412.485 20.9871 414.465 17.4817 417.983C13.9764 421.501 12.0092 426.269 12.0127 431.239C12.0092 436.209 13.9764 440.977 17.4817 444.495C20.9871 448.013 25.7438 449.993 30.7064 450V450Z" fill="#0ACF83"/>
<path d="M12.0127 393.717C12.0092 388.747 13.9764 383.979 17.4817 380.461C20.9871 376.943 25.7438 374.963 30.7064 374.956H49.4001V412.478H30.7064C25.7438 412.471 20.9871 410.491 17.4817 406.973C13.9764 403.455 12.0092 398.687 12.0127 393.717V393.717Z" fill="#A259FF"/>
<path d="M12.0127 356.195C12.0092 351.225 13.9764 346.457 17.4817 342.939C20.9871 339.421 25.7438 337.441 30.7064 337.434H49.4001V374.956H30.7064C25.7438 374.949 20.9871 372.969 17.4817 369.451C13.9764 365.933 12.0092 361.165 12.0127 356.195V356.195Z" fill="#F24E1E"/>
<path d="M49.4001 337.434H68.0872C73.0509 337.44 77.8093 339.419 81.3161 342.937C84.8229 346.455 86.791 351.224 86.7875 356.195C86.791 361.165 84.8238 365.933 81.3184 369.451C77.8131 372.969 73.0563 374.949 68.0938 374.956H49.4001V337.434Z" fill="#FF7262"/>
<path d="M86.7809 393.717C86.7844 398.687 84.8173 403.455 81.3119 406.973C77.8065 410.491 73.0498 412.471 68.0872 412.478C63.1258 412.469 58.3708 410.489 54.8668 406.971C51.3629 403.453 49.3966 398.686 49.4001 393.717C49.3966 388.748 51.3629 383.981 54.8668 380.464C58.3708 376.946 63.1258 374.965 68.0872 374.956C73.0498 374.963 77.8065 376.943 81.3119 380.461C84.8173 383.979 86.7844 388.747 86.7809 393.717V393.717Z" fill="#1ABCFE"/>
<path d="M299.728 243.105C299.826 243.321 299.938 243.518 300.055 243.715C300.108 243.833 300.18 243.951 300.245 244.056C300.35 244.273 300.468 244.483 300.579 244.686L301.228 245.781C301.346 245.978 301.464 246.175 301.601 246.372C301.824 246.765 302.093 247.146 302.328 247.533C302.44 247.697 302.538 247.861 302.656 248.018C303.114 248.727 303.52 249.31 303.966 249.881C304.28 250.308 304.595 250.727 304.929 251.147L305.282 251.613L306.199 252.728C306.304 252.853 306.416 253.004 306.533 253.135C306.94 253.62 307.372 254.093 307.798 254.571L307.817 254.598C308.335 255.253 308.916 255.855 309.553 256.395L309.573 256.408C309.9 256.749 310.228 257.084 310.581 257.418L311.001 257.812C311.459 258.245 311.918 258.671 312.396 259.085L312.422 259.098L312.651 259.308C313.077 259.675 313.503 260.036 313.935 260.377L314.452 260.81C314.799 261.092 315.166 261.354 315.52 261.63L316.083 262.063C316.47 262.351 316.876 262.633 317.269 262.915L317.708 263.217L317.826 263.309L318.985 264.07L319.483 264.398C320.092 264.792 320.695 265.152 321.291 265.513C321.903 265.875 322.526 266.221 323.157 266.55C323.406 266.694 323.662 266.812 323.917 266.943L324.88 267.455L325.122 267.553L325.135 267.54L325.528 267.737C326.026 267.98 326.544 268.216 327.081 268.452C327.179 268.491 327.29 268.531 327.395 268.59C327.985 268.852 328.581 269.101 329.196 269.337C329.341 269.377 329.491 269.449 329.635 269.501C330.192 269.718 330.762 269.928 331.338 270.131L331.535 270.21C332.17 270.42 332.792 270.63 333.434 270.82L333.893 270.958C334.548 271.155 335.19 271.391 335.858 271.515C378.262 279.216 390.583 246.109 390.583 246.109C380.234 259.544 361.855 263.086 344.458 259.144C343.809 258.993 343.168 258.789 342.513 258.599C341.596 258.337 340.679 258.048 339.781 257.733L340.174 257.851L339.912 257.753C339.355 257.563 338.812 257.359 338.262 257.143C338.131 257.084 337.993 257.031 337.856 256.985L337.81 256.972C337.201 256.73 336.611 256.48 336.028 256.224C335.897 256.179 335.792 256.12 335.661 256.074C334.967 255.77 334.279 255.453 333.598 255.122L334.168 255.372C334.017 255.306 333.873 255.241 333.729 255.162C333.343 254.978 332.956 254.768 332.576 254.571C332.288 254.44 332 254.289 331.725 254.138L331.803 254.178C331.338 253.929 330.873 253.66 330.402 253.41C330.258 253.312 330.1 253.227 329.943 253.135C329.242 252.728 328.55 252.306 327.867 251.869L328.129 252.026C327.952 251.921 327.782 251.81 327.611 251.685L327.638 251.705C327.192 251.429 326.76 251.141 326.334 250.845L325.921 250.55C325.478 250.248 325.041 249.935 324.611 249.612L324.71 249.678L324.159 249.271C323.799 248.989 323.432 248.714 323.072 248.418L322.581 248.025C322.062 247.613 321.553 247.188 321.055 246.752V246.746L319.614 245.447L319.208 245.053C318.867 244.712 318.52 244.384 318.173 244.05L317.773 243.63C317.347 243.21 316.928 242.777 316.522 242.331L316.496 242.305L316.43 242.239C315.992 241.76 315.559 241.275 315.134 240.783C315.022 240.652 314.924 240.52 314.806 240.389L313.869 239.248C313.445 238.715 313.03 238.175 312.625 237.628L312.461 237.398C302.813 224.272 299.322 206.147 307.044 191.283L300.226 199.922C291.449 212.484 292.536 228.824 299.243 242.167C299.4 242.488 299.571 242.79 299.734 243.105H299.728Z" fill="#1266A9"/>
<path d="M329.275 225L329.229 224.934L329.196 224.888L329.275 225.007V225Z" fill="black"/>
<path d="M333.893 230.431L334.266 230.799C334.738 231.258 335.216 231.698 335.707 232.144L335.773 232.196C336.264 232.629 336.821 233.088 337.397 233.534L337.482 233.6C337.626 233.698 337.744 233.81 337.875 233.908C338.458 234.354 339.041 234.781 339.644 235.207L339.709 235.24C339.965 235.423 340.233 235.594 340.528 235.778C340.639 235.85 340.777 235.955 340.895 236.027C341.334 236.309 341.766 236.565 342.205 236.834L342.401 236.932C342.775 237.162 343.181 237.378 343.567 237.575C343.698 237.66 343.836 237.719 343.98 237.798L344.792 238.218L344.923 238.284C345.48 238.552 346.05 238.808 346.606 239.064L346.986 239.215C347.445 239.412 347.91 239.609 348.368 239.779C348.578 239.845 348.768 239.937 348.958 239.996C349.384 240.153 349.829 240.297 350.242 240.442L350.818 240.625C351.421 240.816 352.036 241.058 352.672 241.157C385.422 246.555 393 221.431 393 221.431C386.175 231.219 372.97 235.883 358.901 232.242C358.196 232.063 357.497 231.862 356.805 231.638L357.047 231.704C356.851 231.652 356.674 231.593 356.484 231.534L355.193 231.087L354.604 230.864C354.145 230.674 353.667 230.504 353.222 230.307C353.078 230.241 352.953 230.202 352.842 230.143L351.119 229.356L350.268 228.91L349.777 228.66C349.397 228.464 349.043 228.254 348.683 228.044C348.59 228 348.5 227.949 348.414 227.893H348.427C347.988 227.63 347.537 227.362 347.117 227.086C346.973 227.007 346.842 226.909 346.711 226.824L345.86 226.273C345.264 225.859 344.681 225.42 344.091 224.987C343.96 224.862 343.829 224.764 343.698 224.659C337.515 219.805 332.629 213.179 330.317 205.675C327.88 197.875 328.417 189.131 332.629 182.034L327.454 189.341C321.088 198.44 321.448 210.601 326.406 220.224C327.304 222.002 328.221 223.504 329.229 224.934C330.172 226.286 331.214 227.86 332.465 228.942C332.917 229.454 333.395 229.939 333.893 230.431V230.431Z" fill="#1266A9"/>
<path d="M303.985 249.907L303.966 249.881L303.94 249.848L303.985 249.914V249.907ZM321.147 246.831L321.192 246.864L321.199 246.877L321.147 246.831Z" fill="black"/>
<path d="M350.34 181.43C346.587 186.914 346.233 193.73 348.814 199.778C351.565 206.2 357.172 211.244 363.708 213.632C363.97 213.737 364.232 213.822 364.514 213.921L364.874 214.032C365.254 214.157 365.641 214.294 366.034 214.38C384.112 217.856 389.011 205.13 390.334 203.254C386.024 209.421 378.806 210.897 369.944 208.751C369.175 208.563 368.418 208.329 367.678 208.05L367.809 208.089C366.886 207.77 365.983 207.397 365.104 206.974L365.261 207.046C363.676 206.283 362.171 205.364 360.767 204.304C352.842 198.308 347.949 186.894 353.124 177.599L350.34 181.43Z" fill="#1266A9"/>
<path d="M231.542 230.51C228.071 230.53 225.071 231.363 222.556 232.609C221.632 230.766 220.702 229.152 220.545 227.952C220.375 226.555 220.159 225.702 220.375 224.029C220.584 222.363 221.554 219.995 221.554 219.805C221.534 219.628 221.338 218.775 219.346 218.755C217.355 218.735 215.633 219.142 215.436 219.667C215.24 220.192 214.86 221.392 214.604 222.632C214.257 224.462 210.622 230.923 208.552 234.315C207.871 233.003 207.294 231.835 207.176 230.904C207 229.507 206.784 228.647 207 226.981C207.216 225.315 208.179 222.947 208.179 222.75C208.166 222.579 207.969 221.72 205.978 221.7C203.98 221.681 202.264 222.094 202.068 222.619C201.871 223.144 201.661 224.383 201.236 225.584C200.83 226.791 195.996 237.575 194.731 240.389C194.231 241.525 193.696 242.645 193.127 243.748C192.721 244.522 193.107 243.807 193.068 243.879L192.531 244.909V244.929C192.256 245.414 191.967 245.88 191.83 245.88C191.738 245.88 191.542 244.581 191.869 242.797C192.59 239.058 194.325 233.213 194.306 232.996C194.306 232.898 194.633 231.875 193.186 231.35C191.771 230.825 191.273 231.697 191.155 231.697C191.037 231.697 190.939 232.006 190.939 232.006C190.939 232.006 192.511 225.426 187.946 225.426C185.077 225.426 181.134 228.555 179.175 231.409L172.52 235.056C171.459 235.633 170.359 236.257 169.311 236.821L169.095 236.585C163.56 230.668 153.329 226.482 153.755 218.519C153.905 215.633 154.914 208.004 173.411 198.767C188.561 191.198 200.692 193.277 202.801 197.895C205.801 204.488 196.317 216.754 180.57 218.519C174.571 219.201 171.42 216.872 170.628 216C169.796 215.082 169.678 215.049 169.37 215.219C168.866 215.495 169.173 216.308 169.37 216.794C169.828 218.014 171.767 220.192 175.055 221.274C177.937 222.225 184.985 222.75 193.494 219.45C203.037 215.744 210.484 205.458 208.297 196.865C206.07 188.114 191.594 185.241 177.918 190.109C169.776 193.021 160.953 197.56 154.6 203.517C147.054 210.582 145.855 216.754 146.36 219.313C148.122 228.457 160.678 234.413 165.708 238.821C165.46 238.953 165.224 239.084 165.014 239.208C162.499 240.448 152.923 245.473 150.519 250.793C147.814 256.808 150.945 261.131 153.034 261.715C159.499 263.519 166.115 260.278 169.697 254.945C173.254 249.606 172.828 242.679 171.184 239.517L171.125 239.399L173.103 238.238C174.381 237.477 175.638 236.781 176.739 236.178C176.123 237.87 175.678 239.864 175.442 242.777C175.173 246.188 176.562 250.616 178.402 252.361C179.061 252.926 179.916 253.207 180.78 253.141C182.909 253.141 183.878 251.37 184.946 249.258C186.256 246.68 187.422 243.689 187.422 243.689C187.422 243.689 185.968 251.783 189.937 251.783C191.384 251.783 192.839 249.901 193.494 248.93V248.95L193.611 248.753C193.697 248.635 193.769 248.51 193.847 248.386V248.346C194.424 247.336 195.721 245.027 197.653 241.203C199.438 237.572 201.072 233.869 202.552 230.103C202.552 230.103 202.781 231.619 203.502 234.105C203.928 235.581 204.851 237.188 205.572 238.762C204.989 239.576 204.642 240.042 204.642 240.042L204.661 240.061C204.196 240.684 203.679 241.34 203.135 242.003C201.157 244.364 198.799 247.067 198.485 247.841C198.118 248.759 198.196 249.435 198.917 249.98C199.441 250.367 200.365 250.439 201.354 250.367C203.129 250.249 204.367 249.802 204.989 249.527C206.107 249.131 207.163 248.579 208.126 247.887C209.116 247.2 209.912 246.268 210.437 245.182C210.961 244.096 211.196 242.892 211.12 241.688C211.008 240.177 210.622 238.698 209.98 237.326C210.157 237.07 210.327 236.821 210.504 236.545C213.563 232.065 215.921 227.138 215.921 227.138C215.921 227.138 216.157 228.647 216.871 231.14C217.237 232.393 217.971 233.77 218.632 235.135C215.764 237.477 213.969 240.199 213.347 241.983C212.207 245.283 213.098 246.772 214.781 247.126C215.534 247.277 216.615 246.929 217.427 246.582C218.436 246.254 219.654 245.689 220.781 244.856C222.713 243.413 224.573 241.419 224.475 238.723C224.416 237.477 224.082 236.257 223.643 235.095C226.08 234.085 229.237 233.501 233.239 233.987C241.852 234.997 243.555 240.389 243.221 242.646C242.894 244.896 241.092 246.136 240.496 246.523C239.894 246.89 239.704 247.028 239.763 247.297C239.835 247.71 240.11 247.69 240.627 247.611C241.348 247.493 245.16 245.768 245.311 241.616C245.546 236.276 240.496 230.458 231.536 230.51H231.542ZM165.126 252.964C162.283 256.087 158.281 257.274 156.578 256.264C154.744 255.195 155.451 250.596 158.955 247.277C161.084 245.263 163.855 243.4 165.669 242.252L167.438 241.183L167.628 241.071L168.073 240.796C169.37 245.532 168.125 249.684 165.126 252.964V252.964ZM185.928 238.782C184.946 241.209 182.85 247.434 181.599 247.087C180.511 246.792 179.856 242.082 181.383 237.424C182.156 235.076 183.806 232.281 184.769 231.192C186.341 229.448 188.044 228.864 188.463 229.579C188.968 230.51 186.551 237.267 185.928 238.782ZM203.089 247.008C202.67 247.218 202.277 247.375 202.107 247.257C201.976 247.185 202.277 246.89 202.277 246.89C202.277 246.89 204.426 244.581 205.277 243.518C205.762 242.895 206.345 242.173 206.96 241.36V241.596C206.96 244.391 204.295 246.254 203.096 247.008H203.089ZM216.327 243.977C216.019 243.748 216.058 243.033 217.1 240.776C217.816 239.322 218.818 238.027 220.047 236.972C220.237 237.562 220.355 238.12 220.335 238.644C220.316 242.134 217.84 243.433 216.327 243.977Z" fill="#CF649A"/>
<path d="M97.202 220.579L53.9458 177.284C52.7495 176.087 51.1274 175.414 49.4361 175.414C47.7448 175.414 46.1228 176.087 44.9265 177.284L35.9399 186.271L47.3369 197.685C48.6791 197.23 50.1219 197.16 51.5015 197.485C52.8811 197.81 54.1422 198.515 55.1415 199.522C56.1408 200.528 56.8384 201.795 57.155 203.178C57.4716 204.561 57.3946 206.006 56.9326 207.348L67.9104 218.342C69.5346 217.773 71.3036 217.774 72.9271 218.345C74.5506 218.916 75.932 220.023 76.8445 221.484C77.7571 222.944 78.1466 224.673 77.949 226.384C77.7514 228.096 76.9786 229.69 75.7573 230.904C74.5147 232.14 72.8838 232.908 71.1407 233.078C69.3976 233.249 67.6492 232.811 66.1915 231.838C64.7337 230.866 63.6562 229.419 63.141 227.743C62.6259 226.066 62.705 224.263 63.3647 222.638L53.1271 212.386V239.366C54.681 240.137 55.9241 241.418 56.6493 242.996C57.3746 244.573 57.5381 246.352 57.1127 248.036C56.6872 249.72 55.6985 251.206 54.3113 252.249C52.9241 253.291 51.2222 253.826 49.4891 253.764C47.756 253.702 46.0964 253.047 44.7869 251.908C43.4774 250.77 42.597 249.216 42.2925 247.506C41.988 245.797 42.2777 244.034 43.1133 242.512C43.9489 240.99 45.2801 239.801 46.8849 239.143V211.913C45.9572 211.534 45.1138 210.974 44.4033 210.266C43.6929 209.558 43.1296 208.717 42.7459 207.789C42.3622 206.862 42.1658 205.868 42.1679 204.865C42.17 203.861 42.3707 202.868 42.7584 201.942L31.5252 190.692L1.86675 220.382C0.671214 221.58 -0.000366211 223.205 -0.000366211 224.898C-0.000366211 226.592 0.671214 228.217 1.86675 229.415L45.123 272.722C45.7154 273.316 46.419 273.787 47.1933 274.109C47.9677 274.43 48.7977 274.595 49.6359 274.595C50.4741 274.595 51.3041 274.43 52.0785 274.109C52.8529 273.787 53.5564 273.316 54.1489 272.722L97.202 229.618C97.795 229.025 98.2654 228.32 98.5863 227.545C98.9072 226.769 99.0724 225.938 99.0724 225.098C99.0724 224.259 98.9072 223.428 98.5863 222.652C98.2654 221.877 97.795 221.172 97.202 220.579Z" fill="#DE4C36"/>
<path d="M302.944 101.316L293.931 0H393L383.974 101.302L343.403 112.566L302.951 101.316H302.944Z" fill="#D4B830"/>
<path d="M343.469 103.953L376.245 94.8477L383.961 8.28499H343.469V103.953Z" fill="#FDD83C"/>
<path d="M377.359 44.9934H359.877V32.2675H378.459L379.559 19.8367H346.908V57.4176H363.82L362.326 73.5284L346.908 76.3491V89.2981L373.92 83.1385L377.359 44.9934Z" fill="#4D4D4D"/>
<path d="M340.135 19.8367H312.442L313.588 32.274H327.683V74.5517L320.78 73.5415L319.895 63.6297H307.45L309.18 83.1385C340.135 89.2981 309.298 83.1385 340.135 89.2981V19.8367Z" fill="black"/>
<path d="M245.625 0L236.599 101.302L196.028 112.566L155.576 101.316L146.55 0H245.625Z" fill="#264DE4"/>
<path d="M228.87 94.8542L236.586 8.27843H196.094V103.946L228.87 94.8411V94.8542Z" fill="#2965F1"/>
<path d="M167.222 45.8593L168.335 58.2835H196.094V45.8593H167.222ZM196.094 20.7092H164.995L166.121 33.1334H196.087V20.7092H196.094ZM196.094 91.0627V78.1268L196.035 78.1399L182.221 74.4009L181.343 64.4956H168.892L170.628 84.0044L196.035 91.0692L196.087 91.0561L196.094 91.0627Z" fill="#EBEBEB"/>
<path d="M211.323 58.2835L209.882 74.4009L196.048 78.1399V91.0692L221.475 84.0109L221.659 81.9118L224.573 49.1982L224.875 45.8593L227.115 20.7092H196.048V33.1334H213.523L212.397 45.8593H196.042V58.2835H211.316H211.323Z" fill="white"/>
<path d="M9.0128 101.316L0 0H99.0687L90.0428 101.302L49.4721 112.566L9.0128 101.316V101.316Z" fill="#E44D26"/>
<path d="M49.5377 103.953L82.3138 94.8477L90.0297 8.28499H49.5377V103.953Z" fill="#F16529"/>
<path d="M49.5376 45.8593H33.1168L31.9836 33.1334H49.5245V20.7092H18.4448L18.7395 24.0415L21.7853 58.2835H49.5442V45.8593H49.5376ZM49.5376 78.1268L49.4787 78.1465L35.6647 74.4074L34.787 64.5022H22.3355L24.0712 84.0109L49.4787 91.0758L49.5311 91.0627V78.1268H49.5376Z" fill="#EBEBEB"/>
<path d="M49.4918 45.8593V58.2835H64.7664L63.3254 74.4009L49.4918 78.1399V91.0692L74.9189 84.0109L75.1023 81.9118L78.0171 49.1982L78.3184 45.8593H49.4918ZM49.4918 20.7092V33.1334H79.4515L79.7004 30.3455L80.2637 24.0481L80.5585 20.7092H49.4918V20.7092Z" fill="white"/>
</g>
<defs>
<clipPath id="clip0_3_87">
<rect width="393" height="450" fill="white"/>
</clipPath>
</defs>
</svg>
