<svg display="none" xmlns="http://www.w3.org/2000/svg">
  <symbol id="html">
    <path d="M6.97173 78.3507L0 0H76.6333L69.6515 78.3406L38.2685 87.0507L6.97173 78.3507V78.3507Z" fill="#E44D26" />
    <path d="M38.3192 80.39L63.6728 73.3489L69.6413 6.40706H38.3192V80.39Z" fill="#F16529" />
    <path d="M38.3192 35.4646H25.617L24.7405 25.6232H38.309V16.0151H14.2677L14.4957 18.5921L16.8517 45.0726H38.3242V35.4646H38.3192ZM38.3192 60.4181L38.2736 60.4333L27.588 57.5418L26.909 49.8817H17.2773L18.62 64.9685L38.2736 70.432L38.3141 70.4218V60.4181H38.3192Z" fill="#EBEBEB" />
    <path d="M38.2838 35.4646V45.0726H50.0992L48.9846 57.5367L38.2838 60.4282V70.4269L57.9525 64.9685L58.0944 63.3451L60.3491 38.0466L60.5822 35.4646H38.2838ZM38.2838 16.0151V25.6232H61.4587L61.6512 23.4672L62.087 18.5972L62.3149 16.0151H38.2838V16.0151Z" fill="white" />
  </symbol>
  <symbol id="css">
    <path d="M77 0L70.0181 78.3406L38.6352 87.0507L7.34344 78.3507L0.361572 0H77Z" fill="#264DE4" />
    <path d="M64.0395 73.3539L70.008 6.40198H38.6859V80.385L64.0395 73.3438V73.3539Z" fill="#2965F1" />
    <path d="M16.352 35.4646L17.2133 45.0726H38.6859V35.4646H16.352ZM38.6859 16.0151H14.6293L15.5008 25.6232H38.6808V16.0151H38.6859ZM38.6859 70.4218V60.4181L38.6403 60.4282L27.9547 57.5367L27.2757 49.8766H17.644L18.9867 64.9634L38.6403 70.4269L38.6808 70.4167L38.6859 70.4218Z" fill="#EBEBEB" />
    <path d="M50.4659 45.0726L49.3512 57.5367L38.6504 60.4282V70.4269L58.3192 64.9685L58.4611 63.3451L60.7157 38.0466L60.9488 35.4646L62.6816 16.0151H38.6504V25.6232H52.1683L51.2968 35.4646H38.6453V45.0726H50.4608H50.4659Z" fill="white" />
  </symbol>
  <symbol id="js">
    <path d="M7.33843 78.3507L0.366699 0H77L70.0181 78.3406L38.6352 87.0507L7.34349 78.3507H7.33843Z" fill="#D4B830" />
    <path d="M38.6859 80.39L64.0395 73.3489L70.008 6.40706H38.6859V80.39Z" fill="#FDD83C" />
    <path d="M64.9008 34.7949H51.3778V24.9535H65.752L66.6032 15.3404H41.3458V44.403H54.428L53.2728 56.862L41.3458 59.0433V69.0572L62.2408 64.2938L64.9008 34.7949Z" fill="#4D4D4D" />
    <path d="M36.1069 15.3404H14.6851L15.5717 24.9586H26.4752V57.6534L21.1349 56.8721L20.4509 49.207H10.8243L12.1619 64.2938C36.1069 69.0572 12.2531 64.2938 36.1069 69.0572V15.3404Z" fill="black" />
  </symbol>
  <symbol id="git">
    <path d="M75.1893 35.5809L41.729 2.09983C40.8037 1.17391 39.5489 0.653778 38.2406 0.653778C36.9324 0.653778 35.6776 1.17391 34.7522 2.09983L27.8008 9.04968L36.6168 17.8765C37.655 17.5244 38.7711 17.4708 39.8383 17.7218C40.9055 17.9728 41.8809 18.5184 42.654 19.2966C43.427 20.0748 43.9666 21.0545 44.2115 22.1243C44.4564 23.1941 44.3968 24.3113 44.0394 25.3489L52.5312 33.851C53.7875 33.4111 55.156 33.412 56.4118 33.8535C57.6676 34.295 58.7362 35.1508 59.4421 36.2806C60.148 37.4103 60.4492 38.7468 60.2964 40.0706C60.1436 41.3944 59.5457 42.6269 58.6011 43.5656C57.6398 44.5215 56.3783 45.1155 55.0299 45.2472C53.6815 45.3789 52.3291 45.0402 51.2015 44.2883C50.0739 43.5364 49.2404 42.4176 48.8419 41.1212C48.4435 39.8248 48.5046 38.4303 49.0149 37.1738L41.0957 29.2448V50.1096C42.2977 50.7059 43.2593 51.6966 43.8203 52.9167C44.3813 54.1367 44.5078 55.5123 44.1787 56.8144C43.8496 58.1165 43.0849 59.2663 42.0118 60.0723C40.9387 60.8784 39.6222 61.2919 38.2816 61.244C36.941 61.1961 35.6573 60.6897 34.6443 59.8092C33.6314 58.9286 32.9504 57.7271 32.7148 56.4049C32.4792 55.0827 32.7033 53.7195 33.3497 52.5427C33.9961 51.3658 35.0258 50.4462 36.2672 49.9372V28.8796C35.5496 28.5861 34.8971 28.1532 34.3476 27.6059C33.7981 27.0585 33.3623 26.4075 33.0655 25.6905C32.7687 24.9736 32.6167 24.2048 32.6184 23.4287C32.6201 22.6526 32.7753 21.8845 33.0752 21.1688L24.3858 12.4688L1.44398 35.4287C0.519187 36.3552 -0.000305176 37.6115 -0.000305176 38.9214C-0.000305176 40.2313 0.519187 41.4875 1.44398 42.4141L34.9042 75.9053C35.3625 76.3645 35.9068 76.7288 36.5057 76.9774C37.1047 77.2259 37.7468 77.3539 38.3952 77.3539C39.0436 77.3539 39.6856 77.2259 40.2846 76.9774C40.8836 76.7288 41.4278 76.3645 41.8861 75.9053L75.1893 42.5713C75.648 42.1125 76.0119 41.5676 76.2601 40.9679C76.5084 40.3681 76.6361 39.7253 76.6361 39.0761C76.6361 38.4269 76.5084 37.7841 76.2601 37.1843C76.0119 36.5846 75.648 36.0398 75.1893 35.5809Z" fill="#DE4C36" />
  </symbol>
  <symbol id="scss">
    <path d="M66.1067 33.2612C63.4214 33.2764 61.1008 33.9207 59.1552 34.8845C58.4408 33.459 57.7214 32.2111 57.5998 31.2828C57.468 30.2023 57.3008 29.5428 57.468 28.2492C57.6302 26.9607 58.38 25.1294 58.38 24.9823C58.3648 24.8453 58.2128 24.1858 56.6726 24.1706C55.1323 24.1554 53.7998 24.4699 53.6478 24.8757C53.4958 25.2816 53.2019 26.2099 53.0043 27.1687C52.7358 28.584 49.9238 33.5808 48.3227 36.2035C47.7958 35.1889 47.3499 34.2859 47.2587 33.5656C47.1219 32.4851 46.9547 31.8205 47.1219 30.532C47.2891 29.2435 48.0339 27.4122 48.0339 27.26C48.0238 27.1281 47.8718 26.4635 46.3315 26.4483C44.7862 26.4331 43.4587 26.7527 43.3067 27.1585C43.1547 27.5644 42.9926 28.5231 42.6632 29.4515C42.3491 30.3849 38.6099 38.7247 37.632 40.901C37.2452 41.7794 36.8312 42.6456 36.3907 43.4983C36.0766 44.0969 36.3755 43.5439 36.3451 43.5997L35.9296 44.3962V44.4114C35.7168 44.7868 35.4939 45.147 35.3875 45.147C35.3166 45.147 35.1646 44.1425 35.4179 42.7627C35.9752 39.8712 37.3179 35.3512 37.3027 35.1838C37.3027 35.1077 37.556 34.3164 36.4363 33.9105C35.3419 33.5047 34.9568 34.1794 34.8656 34.1794C34.7744 34.1794 34.6984 34.4178 34.6984 34.4178C34.6984 34.4178 35.9144 29.3297 32.383 29.3297C30.1638 29.3297 27.1136 31.7495 25.5987 33.9562L20.451 36.7767C19.6302 37.2231 18.779 37.705 17.9683 38.1413L17.8011 37.9587C13.5198 33.383 5.60563 30.1465 5.93496 23.988C6.05149 21.7559 6.83176 15.8561 21.14 8.71353C32.8592 2.85942 42.2427 4.46752 43.8742 8.03883C46.1947 13.1371 38.8582 22.6234 26.6779 23.988C22.0368 24.5156 19.5998 22.7147 18.9867 22.04C18.3432 21.3298 18.252 21.3044 18.0139 21.4363C17.6238 21.6494 17.8619 22.2784 18.0139 22.6538C18.3686 23.5974 19.8683 25.2816 22.4118 26.1186C24.6411 26.8542 30.0928 27.26 36.6744 24.7083C44.0566 21.8421 49.8174 13.8879 48.1251 7.24238C46.4024 0.475156 35.2051 -1.74676 24.6259 2.01732C18.328 4.26968 11.5032 7.78011 6.58856 12.3863C0.751757 17.8498 -0.175444 22.6234 0.214689 24.6018C1.57762 31.6734 11.2904 36.2796 15.1816 39.6886C14.9891 39.79 14.8067 39.8915 14.6446 39.9878C12.699 40.9466 5.29149 44.8325 3.43203 48.9466C1.33949 53.5984 3.76136 56.9414 5.37762 57.3929C10.3784 58.788 15.4958 56.2819 18.2672 52.1577C21.0184 48.0284 20.6891 42.6714 19.4174 40.2263L19.3718 40.135L20.9019 39.2371C21.8899 38.6486 22.8627 38.1109 23.7139 37.6442C23.2376 38.953 22.8931 40.4951 22.7107 42.7475C22.503 45.3854 23.5771 48.8096 25.0008 50.159C25.5099 50.596 26.1713 50.8131 26.84 50.7626C28.4867 50.7626 29.2366 49.393 30.0624 47.7595C31.0758 45.7659 31.9776 43.4526 31.9776 43.4526C31.9776 43.4526 30.8528 49.7126 33.9232 49.7126C35.043 49.7126 36.1678 48.2567 36.6744 47.5059V47.5211L36.7656 47.3689C36.8315 47.2776 36.8872 47.1812 36.948 47.0848V47.0544C37.3939 46.2731 38.3971 44.4875 39.8918 41.53C41.2723 38.7223 42.5367 35.8587 43.6816 32.9467C43.6816 32.9467 43.859 34.1185 44.4163 36.0411C44.7456 37.1825 45.46 38.4254 46.0174 39.6429C45.5664 40.2719 45.2979 40.6321 45.2979 40.6321L45.3131 40.6473C44.9534 41.1292 44.5531 41.6365 44.1326 42.1489C42.6024 43.9751 40.7784 46.0652 40.5352 46.6638C40.2515 47.374 40.3123 47.8965 40.8696 48.3175C41.275 48.6168 41.9894 48.6726 42.7544 48.6168C44.1275 48.5255 45.0851 48.1806 45.5664 47.9675C46.4311 47.6614 47.2481 47.2344 47.9934 46.6993C48.7592 46.1678 49.3749 45.4471 49.7806 44.6071C50.1863 43.7672 50.3683 42.8365 50.3088 41.9054C50.2225 40.7366 49.9237 39.5933 49.4272 38.5319C49.564 38.3341 49.6958 38.1413 49.8326 37.9283C52.1987 34.4635 54.0227 30.6537 54.0227 30.6537C54.0227 30.6537 54.2051 31.8205 54.7574 33.7482C55.0411 34.7171 55.6086 35.7824 56.1203 36.8376C53.9011 38.6486 52.5128 40.7539 52.0315 42.1337C51.1499 44.6853 51.839 45.8369 53.1411 46.1108C53.7238 46.2275 54.5598 45.9586 55.188 45.6898C55.9683 45.4361 56.9107 44.9998 57.7822 44.3556C59.2768 43.2396 60.7158 41.6974 60.6398 39.6125C60.5942 38.6486 60.3358 37.7051 59.9963 36.8072C61.8811 36.0259 64.3232 35.5744 67.419 35.9498C74.0816 36.7311 75.399 40.901 75.1406 42.646C74.8872 44.386 73.4939 45.3448 73.0328 45.6441C72.5667 45.9282 72.4198 46.0347 72.4654 46.2427C72.5211 46.5623 72.7339 46.5471 73.1342 46.4862C73.6915 46.3949 76.6403 45.0607 76.7568 41.8496C76.9392 37.7203 73.0328 33.2206 66.1016 33.2612H66.1067ZM14.7307 50.6257C12.5318 53.0404 9.43603 53.9586 8.11869 53.1773C6.70003 52.3505 7.24722 48.7944 9.95789 46.2275C11.6046 44.6701 13.7478 43.2294 15.1512 42.3417L16.5192 41.5148L16.6662 41.4285L17.0107 41.2155C18.0139 44.8781 17.0512 48.0892 14.7307 50.6257V50.6257ZM30.8224 39.6581C30.0624 41.5351 28.4411 46.3492 27.4734 46.0804C26.6323 45.8521 26.1256 42.2098 27.3062 38.608C27.904 36.7919 29.1808 34.6309 29.9256 33.7888C31.1416 32.4394 32.459 31.9879 32.7832 32.5409C33.1734 33.2612 31.3038 38.4863 30.8224 39.6581ZM44.0971 46.0195C43.7728 46.1818 43.4688 46.3036 43.3371 46.2123C43.2358 46.1565 43.4688 45.9282 43.4688 45.9282C43.4688 45.9282 45.1307 44.1425 45.7894 43.3207C46.1643 42.8388 46.6152 42.2808 47.0915 41.6518V41.8344C47.0915 43.9954 45.0294 45.4361 44.1022 46.0195H44.0971ZM54.3368 43.6758C54.0987 43.4983 54.1291 42.9453 54.9347 41.2003C55.4884 40.0754 56.264 39.0745 57.2147 38.258C57.3616 38.7146 57.4528 39.1457 57.4376 39.5516C57.4224 42.2503 55.5072 43.2548 54.3368 43.6758Z" fill="#CF649A" />
  </symbol>
  <symbol id="jq">
    <path d="M4.85061 51.0012C4.92661 51.1686 5.01274 51.3208 5.10394 51.4729C5.14448 51.5643 5.20021 51.6556 5.25088 51.7367C5.33195 51.9041 5.42314 52.0665 5.50927 52.2237L6.01088 53.0709C6.10208 53.2231 6.19327 53.3753 6.29967 53.5275C6.47194 53.8318 6.67968 54.1261 6.86208 54.4254C6.94821 54.5522 7.02421 54.679 7.11541 54.8008C7.47008 55.3486 7.78421 55.8001 8.12874 56.2415C8.37194 56.5712 8.61514 56.8959 8.87354 57.2205L9.14713 57.5807L9.85648 58.4431C9.93755 58.5395 10.0237 58.6562 10.1149 58.7576C10.429 59.133 10.7634 59.4982 11.0927 59.8686L11.1079 59.8889C11.5082 60.3958 11.958 60.8614 12.4506 61.2788L12.4658 61.289C12.7191 61.5528 12.9725 61.8115 13.2461 62.0702L13.5703 62.3746C13.925 62.7094 14.2797 63.0391 14.6495 63.3587L14.6698 63.3689L14.8471 63.5312C15.1765 63.8153 15.5058 64.0943 15.8402 64.3581L16.2405 64.6929C16.509 64.911 16.7927 65.1139 17.0663 65.327L17.5021 65.6618C17.801 65.885 18.1151 66.1031 18.4191 66.3213L18.7586 66.5546L18.8498 66.6257L19.7466 67.2141L20.1317 67.4678C20.6029 67.7721 21.069 68.0511 21.5301 68.3302C22.0041 68.6102 22.4856 68.8775 22.9741 69.1317C23.1666 69.2433 23.3642 69.3346 23.5618 69.436L24.3066 69.8317L24.4941 69.9078L24.5042 69.8977L24.8082 70.0499C25.1933 70.2376 25.5935 70.4202 26.009 70.6028C26.085 70.6332 26.1711 70.6637 26.2522 70.7093C26.7082 70.9123 27.1693 71.105 27.6455 71.2876C27.757 71.3181 27.8735 71.3739 27.985 71.4145C28.4157 71.5819 28.8565 71.7442 29.3023 71.9015L29.4543 71.9623C29.9458 72.1247 30.4271 72.287 30.9237 72.4341L31.2783 72.5406C31.785 72.6928 32.2815 72.8755 32.7983 72.9718C65.6 78.9274 75.1303 53.3245 75.1303 53.3245C67.125 63.7138 52.908 66.4532 39.4509 63.4044C38.9493 63.2877 38.4527 63.1304 37.9461 62.9833C37.2367 62.7804 36.5274 62.5572 35.8333 62.3137L36.1373 62.405L35.9346 62.3289C35.504 62.1818 35.0834 62.0246 34.6578 61.8571C34.5565 61.8115 34.4501 61.7709 34.3437 61.7354L34.3082 61.7252C33.837 61.5375 33.381 61.3448 32.9301 61.1469C32.8288 61.1114 32.7477 61.0658 32.6464 61.0303C32.1095 60.7958 31.5774 60.5506 31.0503 60.2947L31.4911 60.4875C31.3746 60.4367 31.2631 60.386 31.1517 60.3251C30.8527 60.1831 30.5538 60.0208 30.2599 59.8686C30.037 59.7671 29.8141 59.6504 29.6013 59.5338L29.6621 59.5642C29.3023 59.3714 28.9426 59.1634 28.5778 58.9707C28.4663 58.8946 28.3447 58.8286 28.2231 58.7576C27.6809 58.4427 27.1454 58.1163 26.617 57.7785L26.8197 57.9003C26.6829 57.8191 26.5511 57.7329 26.4194 57.6365L26.4397 57.6517C26.0951 57.4387 25.7607 57.2155 25.4314 56.9872L25.1122 56.7589C24.7689 56.5249 24.431 56.283 24.0989 56.0335L24.1749 56.0842L23.7493 55.7697C23.4706 55.5515 23.1869 55.3385 22.9082 55.1102L22.5282 54.8058C22.127 54.4872 21.7334 54.159 21.3477 53.8217V53.8166L20.233 52.8122L19.9189 52.5078C19.6554 52.244 19.3869 51.9904 19.1183 51.7317L18.8093 51.407C18.4799 51.0823 18.1557 50.7475 17.8415 50.4026L17.8213 50.3823L17.7706 50.3315C17.4311 49.9612 17.0967 49.5858 16.7674 49.2054C16.6813 49.1039 16.6053 49.0024 16.5141 48.901L15.7895 48.0183C15.4612 47.6064 15.1403 47.1887 14.8269 46.7653L14.7002 46.5878C7.23701 36.4369 4.53647 22.4205 10.5101 10.9254L5.23567 17.6064C-1.55367 27.3209 -0.712602 39.9575 4.47567 50.2758C4.59727 50.5243 4.729 50.7577 4.85567 51.0012H4.85061Z" fill="#1266A9" />
    <path d="M27.7065 37L27.6709 36.9493L27.6456 36.9138L27.7065 37.0051V37Z" fill="black" />
    <path d="M31.2784 41.2003L31.5672 41.4844C31.932 41.8395 32.3019 42.1794 32.6819 42.5244L32.7325 42.565C33.1125 42.8998 33.5432 43.2549 33.989 43.5998L34.0549 43.6505C34.1664 43.7266 34.2576 43.8129 34.3589 43.889C34.8099 44.2339 35.2608 44.5637 35.7269 44.8934L35.7776 44.9188C35.9752 45.0608 36.1829 45.1927 36.4109 45.3347C36.497 45.3905 36.6034 45.4717 36.6946 45.5275C37.0341 45.7457 37.3685 45.9435 37.708 46.1515L37.86 46.2276C38.1488 46.4051 38.4629 46.5725 38.7619 46.7247C38.8632 46.7907 38.9696 46.8363 39.081 46.8972L39.7093 47.2219L39.8106 47.2726C40.2413 47.4806 40.6821 47.6784 41.1128 47.8763L41.4066 47.993C41.7613 48.1451 42.121 48.2973 42.4757 48.4292C42.6378 48.4799 42.7848 48.551 42.9317 48.5966C43.261 48.7184 43.6056 48.83 43.9248 48.9416L44.3706 49.0836C44.8368 49.2307 45.313 49.4184 45.8045 49.4945C71.1378 53.6695 77 34.2403 77 34.2403C71.7205 41.8091 61.5061 45.4159 50.6229 42.6005C50.0776 42.4624 49.5369 42.3067 49.0016 42.1338L49.189 42.1845C49.037 42.1439 48.9002 42.0982 48.7533 42.0526L47.7552 41.7076L47.2992 41.5352C46.9445 41.388 46.5746 41.2561 46.2301 41.104C46.1186 41.0532 46.0224 41.0228 45.9362 40.9771L44.6037 40.3684L43.945 40.0234L43.565 39.8307C43.2712 39.6785 42.9976 39.5162 42.7189 39.3538C42.6471 39.3197 42.5777 39.2807 42.5112 39.2371H42.5213C42.1818 39.0342 41.8322 38.8262 41.508 38.6132C41.3965 38.5523 41.2952 38.4762 41.1938 38.4103L40.5352 37.9841C40.0741 37.6645 39.6232 37.3247 39.1672 36.9899C39.0658 36.8935 38.9645 36.8174 38.8632 36.7362C34.0802 32.9823 30.3005 27.8587 28.512 22.0553C26.6272 16.0236 27.0426 9.26146 30.3005 3.7726L26.2978 9.4238C21.373 16.4599 21.6517 25.865 25.4872 33.3069C26.1813 34.6817 26.8906 35.8434 27.6709 36.9493C28.4005 37.9943 29.2061 39.2118 30.1738 40.0488C30.5234 40.4445 30.8933 40.8199 31.2784 41.2003V41.2003Z" fill="#1266A9" />
    <path d="M8.14399 56.2617L8.12879 56.2414L8.10852 56.2161L8.14399 56.2668V56.2617ZM21.4187 53.8826L21.4541 53.9079L21.4592 53.9181L21.4187 53.8826Z" fill="black" />
    <path d="M44.0008 3.30589C41.0976 7.54682 40.824 12.8176 42.8202 17.4948C44.9482 22.4611 49.2853 26.3622 54.3419 28.2087C54.5445 28.2899 54.7472 28.3558 54.9651 28.4319L55.2437 28.5181C55.5376 28.6145 55.8365 28.7211 56.1405 28.787C70.1245 31.4756 73.9144 21.6342 74.9379 20.1834C71.604 24.9519 66.0205 26.0933 59.1653 24.4345C58.5706 24.2891 57.9852 24.1078 57.4123 23.8917L57.5136 23.9221C56.8001 23.6752 56.1014 23.3872 55.421 23.0597L55.5427 23.1155C54.317 22.5254 53.1527 21.8151 52.0669 20.9951C45.9362 16.3584 42.1514 7.5316 46.1541 0.343323L44.0008 3.30589Z" fill="#1266A9" />
  </symbol>
  <symbol id="figma">
    <path d="M14.7525 88C18.5912 87.9946 22.2707 86.4634 24.9823 83.7428C27.6938 81.0222 29.2155 77.335 29.2128 73.4916V58.9831H14.7525C10.9138 58.9885 7.23428 60.5197 4.52274 63.2403C1.8112 65.9609 0.28955 69.6481 0.29224 73.4916C0.28955 77.335 1.8112 81.0222 4.52274 83.7428C7.23428 86.4634 10.9138 87.9946 14.7525 88V88Z" fill="#0ACF83" />
    <path d="M0.29224 44.4746C0.28955 40.6312 1.8112 36.9439 4.52274 34.2234C7.23428 31.5028 10.9138 29.9715 14.7525 29.9662H29.2128V58.9831H14.7525C10.9138 58.9777 7.23428 57.4465 4.52274 54.7259C1.8112 52.0053 0.28955 48.3181 0.29224 44.4746V44.4746Z" fill="#A259FF" />
    <path d="M0.29224 15.4577C0.28955 11.6143 1.8112 7.92706 4.52274 5.20649C7.23428 2.48592 10.9138 0.954658 14.7525 0.94928H29.2128V29.9662H14.7525C10.9138 29.9608 7.23428 28.4295 4.52274 25.7089C1.8112 22.9884 0.28955 19.3012 0.29224 15.4577V15.4577Z" fill="#F24E1E" />
    <path d="M29.2128 0.94928H43.668C47.5076 0.953314 51.1884 2.48398 53.901 5.20469C56.6136 7.92541 58.136 11.6134 58.1333 15.4577C58.136 19.3012 56.6143 22.9884 53.9028 25.7089C51.1913 28.4295 47.5118 29.9608 43.673 29.9662H29.2128V0.94928Z" fill="#FF7262" />
    <path d="M58.1282 44.4746C58.1309 48.3181 56.6093 52.0053 53.8977 54.7259C51.1862 57.4465 47.5067 58.9777 43.668 58.9831C39.8301 58.9764 36.1519 57.4445 33.4415 54.7241C30.731 52.0037 29.2101 48.3172 29.2128 44.4746C29.2101 40.6321 30.731 36.9456 33.4415 34.2252C36.1519 31.5047 39.8301 29.9729 43.668 29.9662C47.5067 29.9715 51.1862 31.5028 53.8977 34.2234C56.6093 36.9439 58.1309 40.6312 58.1282 44.4746V44.4746Z" fill="#1ABCFE" />
  </symbol>
  <symbol id="photoshop">
    <path d="M13.7275 0.0823679H63.2187C65.0016 0.0817 66.7671 0.432962 68.4143 1.11608C70.0614 1.7992 71.5579 2.80078 72.8182 4.06349C74.0784 5.3262 75.0776 6.82528 75.7586 8.47499C76.4397 10.1247 76.7892 11.8926 76.7872 13.6777V61.3477C76.7892 63.1327 76.4397 64.9007 75.7586 66.5504C75.0776 68.2001 74.0784 69.6992 72.8182 70.9619C71.5579 72.2246 70.0614 73.2262 68.4143 73.9093C66.7671 74.5924 65.0016 74.9437 63.2187 74.943H13.7275C11.9442 74.9443 10.1781 74.5936 8.53034 73.9107C6.88258 73.2279 5.38549 72.2264 4.12473 70.9637C2.86397 69.7009 1.8643 68.2016 1.18294 66.5515C0.50157 64.9015 0.151879 63.1332 0.153878 61.3477V13.6828C0.151879 11.8973 0.50157 10.1289 1.18294 8.47889C1.8643 6.82885 2.86397 5.32955 4.12473 4.06677C5.38549 2.804 6.88258 1.80252 8.53034 1.1197C10.1781 0.436884 11.9442 0.0861107 13.7275 0.0874457V0.0823679Z" fill="#001E36" />
    <path d="M17.4008 52.5817V19.6587C17.4008 19.4405 17.492 19.3086 17.72 19.3086C18.2622 19.3086 18.7688 19.3086 19.5035 19.2782C20.2736 19.2478 21.0742 19.2478 21.9355 19.2123C22.7968 19.1818 23.7189 19.1818 24.712 19.1514C25.7 19.1159 26.6576 19.1159 27.6152 19.1159C30.2347 19.1159 32.4032 19.4405 34.1918 20.1101C35.7957 20.6551 37.2583 21.551 38.4731 22.7328C39.5027 23.7688 40.2976 25.0145 40.8038 26.3853C41.2867 27.7173 41.5353 29.123 41.5384 30.54C41.5384 33.2895 40.9 35.5622 39.6232 37.3529C38.3405 39.1432 36.5482 40.5045 34.4805 41.259C32.312 42.0554 29.9155 42.3446 27.296 42.3446C26.531 42.3446 26.0192 42.3446 25.7 42.3142C25.3808 42.2787 24.935 42.2787 24.327 42.2787V52.5512C24.334 52.604 24.3303 52.6577 24.3162 52.7091C24.302 52.7604 24.2776 52.8083 24.2445 52.85C24.2114 52.8917 24.1702 52.9263 24.1234 52.9516C24.0767 52.977 24.0253 52.9927 23.9723 52.9977H17.7808C17.5275 52.9977 17.4008 52.8708 17.4008 52.5817V52.5817ZM24.3574 25.4874V36.2369C24.8032 36.2673 25.2187 36.2977 25.6038 36.2977H27.296C28.5424 36.2977 29.7888 36.105 30.9694 35.7245C31.9883 35.4236 32.8982 34.8333 33.5888 34.0251C34.2576 33.2286 34.5768 32.138 34.5768 30.7277C34.6072 29.7385 34.3539 28.7493 33.8422 27.8869C33.3105 27.0555 32.5277 26.4157 31.6078 26.0607C30.4085 25.5903 29.1252 25.3727 27.8382 25.4215C27.0072 25.4215 26.2726 25.4215 25.6696 25.4519C25.0312 25.4215 24.5803 25.4519 24.3574 25.4874ZM61.4605 34.2838C60.5029 33.7714 59.4846 33.4214 58.3952 33.1931C57.2147 32.9395 56.0342 32.7771 54.8232 32.7771C54.1753 32.756 53.5279 32.8329 52.903 33.0054C52.4926 33.1018 52.1429 33.325 51.9149 33.6446C51.7579 33.8983 51.6616 34.2178 51.6616 34.507C51.6616 34.7961 51.7883 35.0802 51.9808 35.339C52.2646 35.6941 52.6496 35.9781 53.0651 36.2013C53.7998 36.5869 54.5648 36.9369 55.3299 37.2565C57.0541 37.838 58.7037 38.6213 60.2445 39.59C61.2958 40.2508 62.165 41.1647 62.7728 42.2482C63.2795 43.2729 63.5379 44.394 63.5075 45.5456C63.5379 47.0472 63.092 48.5538 62.2611 49.8017C61.3694 51.0763 60.1265 52.0633 58.684 52.6426C57.1184 53.3172 55.2032 53.6724 52.908 53.6724C51.4387 53.6724 49.9998 53.5455 48.5608 53.2564C47.4342 53.0613 46.3386 52.7167 45.303 52.2316C45.08 52.1048 44.923 51.8766 44.9534 51.6229V46.058C44.9534 45.9565 44.9838 45.8347 45.08 45.7688C45.1814 45.7029 45.2726 45.7384 45.3688 45.7992C46.5978 46.527 47.933 47.0576 49.3259 47.3718C50.5419 47.6864 51.8187 47.8487 53.0955 47.8487C54.3115 47.8487 55.1728 47.6864 55.7453 47.4023C56.2571 47.1791 56.6067 46.6312 56.6067 46.058C56.6067 45.6065 56.3534 45.1956 55.8467 44.7796C55.3299 44.3585 54.276 43.8817 52.7155 43.2729C51.1101 42.7064 49.5857 41.9322 48.1808 40.9699C47.1784 40.2557 46.3476 39.3268 45.7488 38.2508C45.2422 37.2261 44.9888 36.105 45.0192 34.9889C45.0192 33.6091 45.3992 32.3003 46.1035 31.1183C46.915 29.8344 48.0798 28.8127 49.4576 28.176C50.9574 27.405 52.8422 27.0499 55.107 27.0499C56.4192 27.0499 57.7568 27.1513 59.0691 27.339C60.0267 27.4658 60.9488 27.7245 61.8152 28.0746C61.9419 28.1101 62.0686 28.2369 62.1344 28.3637C62.1648 28.4906 62.1952 28.6174 62.1952 28.7493V33.9642C62.1952 34.091 62.1344 34.2178 62.0382 34.2838C61.7494 34.3497 61.5872 34.3497 61.4605 34.2838V34.2838Z" fill="#31A8FF" />
  </symbol>
  <symbol id="gulp">
    <path d="M30.4069 85.3469L31.2429 71.437L33.5381 67.5055C33.5381 67.5055 28.3093 69.6514 19.5541 69.6514C10.7939 69.6514 5.64613 67.5411 5.64613 67.5411L8.21999 71.8378L9.13198 85.3469C9.13198 86.7978 13.8947 87.9696 19.772 87.9696C25.6493 87.9696 30.412 86.7927 30.412 85.3469H30.4069ZM27.7824 20.3987L29.5304 13.4692L39.2077 3.26251L36.6541 1.08115L26.4144 11.9574L24.3877 20.2313C22.8576 20.1806 21.3325 20.1552 19.8024 20.1552C9.01545 20.1552 0.275452 21.3879 0.275452 22.9098C0.275452 24.4317 9.01545 25.6644 19.8024 25.6644C30.5893 25.6644 39.3344 24.4317 39.3344 22.9098C39.3344 21.7938 34.592 20.8299 27.7824 20.3936" fill="#D34A47" />
    <path d="M26.7691 24.2744C26.7691 24.2744 26.3891 24.3606 25.2744 24.3657C24.1597 24.3657 23.3744 24.3556 23.0552 24.0715C22.9729 23.9795 22.9278 23.8602 22.9285 23.7367C22.9285 23.5338 23.0653 23.4221 23.2477 23.346L23.4149 23.6149C23.344 23.6403 23.2984 23.6656 23.2984 23.7012C23.2984 23.8534 24.4384 23.9548 25.3099 23.9447C26.1813 23.9345 27.2352 23.8584 27.2352 23.7113C27.2352 23.6657 27.1541 23.6251 27.0173 23.5896L27.1846 23.3308C27.4075 23.3968 27.6051 23.5338 27.6051 23.7722C27.6051 24.1679 27.0984 24.2288 26.7691 24.2795" fill="white" />
    <path d="M39.1825 3.28281C39.4257 2.99873 39.0609 2.27839 38.3617 1.67472C37.6625 1.06597 36.8974 0.802164 36.6542 1.08625C36.411 1.36525 36.7809 2.08563 37.4801 2.69437C38.1793 3.30312 38.9393 3.56182 39.1825 3.28281ZM29.9409 51.3738C29.7129 49.162 34.7694 45.9559 33.4724 45.8545C30.6806 46.0168 29.2873 49.1367 27.8838 52.4087C27.3721 53.6059 25.6038 58.7143 24.4537 58.0852C23.2984 57.4562 25.9483 53.2558 26.6931 50.76C25.8318 51.389 22.6905 53.8392 21.8798 51.5463C20.5777 52.6572 17.791 53.2558 18.1051 50.3389C17.411 51.5716 15.8555 53.2913 13.9859 52.5761C11.5336 51.6426 15.4046 43.8 16.3673 44.1957C17.335 44.5913 16.1747 46.377 15.8758 47.072C15.207 48.5938 14.4369 50.5165 14.9486 50.9071C15.8353 51.5818 18.2318 48.3656 18.2875 48.2945C18.7334 47.6959 20.0102 43.805 21.0438 44.2515C22.0774 44.6979 18.475 49.8367 19.8227 50.8564C20.0913 51.0593 21.2009 50.7295 21.8798 49.994C22.3155 49.5222 22.1635 48.4721 23.6227 44.987C25.0819 41.4969 26.379 37.1545 27.3822 37.4842C28.3803 37.819 27.5545 40.046 27.1998 40.878C25.5126 44.774 22.6043 51.2165 23.9774 50.7295C25.3454 50.2425 26.0649 50.2172 27.4075 48.6344C28.7502 47.0618 28.6894 44.4595 29.5862 44.5153C30.483 44.5711 30.331 45.403 30.1131 46.0371C30.9947 45.0225 34.2932 42.8919 35.0886 45.0073C36.0361 47.5032 30.3766 51.1151 31.7851 50.9324C33.1582 50.7549 35.3926 49.3345 36.3451 48.046L38.9646 24.4215C38.9646 24.4215 36.3299 26.6079 19.5491 26.6079C2.77843 26.6079 0.407227 24.4672 0.407227 24.4672L2.63657 46.032C3.82724 42.6586 6.63924 35.8305 11.0675 36.0587C13.084 36.1602 15.7795 40.0562 13.4742 40.1881C12.4963 40.2439 12.395 38.2452 11.2448 37.9509C10.4088 37.7379 9.24351 38.4176 8.49365 39.1583C6.99898 40.6294 3.78163 46.4176 4.20723 49.3091C4.74936 52.992 9.27391 48.0307 10.039 46.5545C10.5811 45.5197 10.9459 42.4455 12.1214 42.7651C13.3019 43.0847 12.02 46.2654 11.1638 49.0656C10.2011 52.221 9.69952 55.5437 8.49365 55.1582C7.29285 54.7777 9.25364 50.7093 9.18271 49.999C8.05284 51.0441 5.96538 53.6972 3.30031 52.3833L4.6835 65.7757C4.6835 65.7757 8.36697 68.6926 19.4579 68.6926C30.5539 68.6926 34.3691 65.8214 34.3691 65.8214L36.0918 50.3085C34.6833 51.6832 30.2297 54.1233 29.9459 51.3738" fill="#D34A47" />
  </symbol>
  <symbol id="github">
    <g clip-path="url(#a)">
      <path d="M15.94 0a15.94 15.94 0 0 0-5.04 31.06c.8.15 1.09-.34 1.09-.76l-.02-2.97c-4.44.96-5.37-1.88-5.37-1.88-.73-1.84-1.77-2.33-1.77-2.33-1.45-1 .1-.97.1-.97 1.6.1 2.45 1.64 2.45 1.64 1.42 2.44 3.73 1.73 4.64 1.32a3.4 3.4 0 0 1 1.01-2.13c-3.54-.4-7.26-1.77-7.26-7.87 0-1.74.62-3.17 1.64-4.28-.17-.4-.71-2.02.15-4.22 0 0 1.34-.43 4.39 1.63a15.27 15.27 0 0 1 7.98 0c3.04-2.06 4.38-1.63 4.38-1.63.87 2.2.32 3.82.16 4.22a6.16 6.16 0 0 1 1.64 4.28c0 6.12-3.73 7.47-7.28 7.86.57.5 1.08 1.46 1.08 2.95l-.02 4.38c0 .42.29.92 1.1.76A15.94 15.94 0 0 0 15.94 0Z" />
    </g>
    <defs>
      <clipPath id="a">
        <path fill="#fff" d="M0 0h32v31.13H0z" />
      </clipPath>
    </defs>
  </symbol>
  <symbol id="telegram">
    <path d="M12.032 28.212c.735 0 1.054-.343 1.47-.735.638-.613 8.827-8.582 8.827-8.582l-5.026-1.225-4.658 2.942-.613 7.355v.245Z" />
    <path d="m12.522 20.71 11.867 8.753c1.348.735 2.329.368 2.672-1.25l4.83-22.753c.49-1.986-.76-2.869-2.06-2.28L1.49 14.115c-1.937.784-1.912 1.863-.343 2.329l7.282 2.28L25.27 8.108c.785-.49 1.52-.221.932.318L12.523 20.71Z" />
  </symbol>
  <symbol id="whatsapp">
    <g clip-path="url(#a1)">
      <path d="M27.34 4.65C24.33 1.65 20.33 0 16.07 0A15.92 15.92 0 0 0 .13 15.86c0 2.8.74 5.52 2.13 7.92L0 32l8.45-2.2A15.92 15.92 0 0 0 32 15.87c0-4.24-1.66-8.22-4.66-11.22Zm-11.27 24.4c-2.38 0-4.72-.64-6.75-1.84l-.48-.29-5.01 1.31 1.33-4.86-.31-.5a13.1 13.1 0 0 1-2.03-7.01 13.23 13.23 0 0 1 22.61-9.32c2.5 2.5 3.88 5.8 3.88 9.33 0 7.26-5.94 13.18-13.24 13.18Z" />
      <path fill-rule="evenodd" clip-rule="evenodd" d="M12.13 9.12c-.3-.65-.6-.66-.89-.67l-.75-.01c-.26 0-.69.1-1.05.49-.36.39-1.38 1.34-1.38 3.27 0 1.92 1.41 3.79 1.61 4.05.2.26 2.72 4.34 6.72 5.91 3.33 1.3 4 1.05 4.72.98.73-.06 2.33-.95 2.66-1.86.33-.92.33-1.7.23-1.86-.1-.17-.36-.26-.75-.46-.4-.2-2.33-1.14-2.7-1.28-.35-.13-.62-.2-.88.2a22.9 22.9 0 0 1-1.24 1.54c-.23.26-.46.3-.86.1-.39-.2-1.66-.61-3.16-1.95a11.81 11.81 0 0 1-2.19-2.71c-.23-.4-.03-.6.17-.8.18-.18.4-.46.6-.69.19-.23.25-.39.39-.65.13-.26.06-.5-.04-.69-.1-.2-.86-2.13-1.21-2.9Z" />
      <path d="M27.2 4.6A15.69 15.69 0 0 0 16.08 0 15.73 15.73 0 0 0 .32 15.68c0 2.76.72 5.46 2.1 7.83L.18 31.64l8.35-2.18a15.74 15.74 0 0 0 23.28-13.77c0-4.19-1.63-8.13-4.6-11.09ZM16.08 28.72c-2.36 0-4.66-.63-6.67-1.82l-.48-.28-4.95 1.3 1.32-4.82-.31-.49c-1.31-2.07-2-4.47-2-6.93a13.08 13.08 0 0 1 22.35-9.2 12.92 12.92 0 0 1 3.83 9.2c0 7.2-5.88 13.04-13.1 13.04Z" />
    </g>
    <defs>
      <clipPath id="a1">
        <path d="M0 0h32v32H0z" />
      </clipPath>
    </defs>
  </symbol>
  <symbol id="arrow-prev">
    <path d="M.3 7.3a1 1 0 0 0 0 1.4l6.36 6.37a1 1 0 0 0 1.41-1.41L2.41 8l5.66-5.66A1 1 0 0 0 6.66.93L.29 7.29ZM95 7H1v2h94V7Z" />
  </symbol>
  <symbol id="arrow-next">
    <path d="M94.7 8.7a1 1 0 0 0 0-1.4L88.35.92a1 1 0 1 0-1.41 1.41L92.59 8l-5.66 5.66a1 1 0 0 0 1.41 1.41l6.37-6.36ZM0 9h94V7H0v2Z" />
  </symbol>
</svg>