<svg display="none" xmlns="http://www.w3.org/2000/svg">
  <symbol id="github">
    <g clip-path="url(#a)">
      <path d="M15.94 0a15.94 15.94 0 0 0-5.04 31.06c.8.15 1.09-.34 1.09-.76l-.02-2.97c-4.44.96-5.37-1.88-5.37-1.88-.73-1.84-1.77-2.33-1.77-2.33-1.45-1 .1-.97.1-.97 1.6.1 2.45 1.64 2.45 1.64 1.42 2.44 3.73 1.73 4.64 1.32a3.4 3.4 0 0 1 1.01-2.13c-3.54-.4-7.26-1.77-7.26-7.87 0-1.74.62-3.17 1.64-4.28-.17-.4-.71-2.02.15-4.22 0 0 1.34-.43 4.39 1.63a15.27 15.27 0 0 1 7.98 0c3.04-2.06 4.38-1.63 4.38-1.63.87 2.2.32 3.82.16 4.22a6.16 6.16 0 0 1 1.64 4.28c0 6.12-3.73 7.47-7.28 7.86.57.5 1.08 1.46 1.08 2.95l-.02 4.38c0 .42.29.92 1.1.76A15.94 15.94 0 0 0 15.94 0Z" />
    </g>
    <defs>
      <clipPath id="a">
        <path fill="#fff" d="M0 0h32v31.13H0z" />
      </clipPath>
    </defs>
  </symbol>
  <symbol id="telegram">
    <path d="M10.53 24.69c.64 0 .92-.3 1.28-.65l7.73-7.5-4.4-1.08-4.08 2.58-.53 6.43v.22Z" />
    <path d="m10.96 18.12 10.38 7.66c1.18.64 2.04.32 2.34-1.1l4.22-19.9c.43-1.74-.66-2.51-1.8-2L1.3 12.35c-1.7.69-1.67 1.63-.3 2.04l6.37 2 14.74-9.3c.69-.42 1.33-.19.82.28L10.96 18.12Z" />
  </symbol>
  <symbol id="whatsapp">
    <g clip-path="url(#a)">
      <path d="M23.92 4.07A13.88 13.88 0 0 0 14.06 0 13.93 13.93 0 0 0 .12 13.87c0 2.45.64 4.84 1.86 6.94L0 28l7.4-1.93A13.93 13.93 0 0 0 28 13.88c0-3.7-1.45-7.19-4.08-9.81Zm-9.86 21.35c-2.09 0-4.12-.56-5.9-1.61l-.43-.25-4.38 1.14 1.17-4.25-.28-.44a11.46 11.46 0 0 1-1.77-6.14 11.58 11.58 0 0 1 19.78-8.14 11.44 11.44 0 0 1 3.4 8.15c0 6.36-5.2 11.54-11.6 11.54Z" />
      <path fill-rule="evenodd" clip-rule="evenodd" d="M10.61 7.98c-.25-.57-.53-.58-.77-.59h-.66c-.23 0-.6.08-.92.42-.31.35-1.2 1.17-1.2 2.86s1.23 3.32 1.4 3.55c.17.23 2.38 3.8 5.88 5.17 2.91 1.14 3.5.92 4.14.86.63-.06 2.03-.83 2.32-1.63.29-.8.29-1.49.2-1.63-.09-.14-.32-.23-.66-.4s-2.04-1-2.35-1.12c-.32-.11-.55-.17-.78.18-.23.34-.89 1.11-1.09 1.34-.2.23-.4.26-.74.09-.35-.18-1.46-.54-2.77-1.7A10.33 10.33 0 0 1 10.69 13c-.2-.34-.02-.53.15-.7.16-.15.35-.4.52-.6.17-.2.23-.34.34-.57.12-.23.06-.43-.02-.6-.1-.17-.76-1.87-1.07-2.55Z" />
      <path d="M23.8 4.02A13.73 13.73 0 0 0 14.07 0C6.46 0 .28 6.16.28 13.72c0 2.41.63 4.77 1.84 6.85L.16 27.68l7.3-1.9a13.77 13.77 0 0 0 20.37-12.05 13.6 13.6 0 0 0-4.02-9.7Zm-9.74 21.1c-2.06 0-4.08-.54-5.84-1.58l-.41-.25-4.34 1.13 1.16-4.2-.27-.44a11.33 11.33 0 0 1-1.76-6.06 11.44 11.44 0 0 1 19.56-8.06 11.3 11.3 0 0 1 3.35 8.07c0 6.28-5.14 11.4-11.45 11.4Z" />
    </g>
    <defs>
      <clipPath id="a">
        <path fill="#fff" d="M0 0h28v28H0z" />
      </clipPath>
    </defs>
  </symbol>
  <symbol id="arrow-prev">
    <path d="M.3 7.3a1 1 0 0 0 0 1.4l6.36 6.37a1 1 0 0 0 1.41-1.41L2.41 8l5.66-5.66A1 1 0 0 0 6.66.93L.29 7.29ZM95 7H1v2h94V7Z" />
  </symbol>
  <symbol id="arrow-next">
    <path d="M94.7 8.7a1 1 0 0 0 0-1.4L88.35.92a1 1 0 1 0-1.41 1.41L92.59 8l-5.66 5.66a1 1 0 0 0 1.41 1.41l6.37-6.36ZM0 9h94V7H0v2Z" />
  </symbol>
</svg>