<svg width="18" height="18" xmlns="http://www.w3.org/2000/svg">
  <path d="M14.25 18H1.5A1.5 1.5 0 0 1 0 16.5V3c0-.83.67-1.5 1.5-1.5h8.62a.37.37 0 1 1 0 .75H1.5A.75.75 0 0 0 .75 3v13.5c0 .41.34.75.75.75h12.75c.83 0 1.5-.67 1.5-1.5V7.87a.38.38 0 1 1 .75 0v7.88A2.25 2.25 0 0 1 14.25 18ZM17.63 6a.38.38 0 0 1-.38-.37V.75h-4.87a.38.38 0 0 1 0-.75h5.25c.2 0 .37.17.37.37v5.26c0 .2-.17.37-.37.37" fill="#fff" />
  <path d="M9 9.38a.37.37 0 0 1-.27-.64L17.36.1a.38.38 0 0 1 .53.53L9.26 9.27a.38.38 0 0 1-.26.1Z" fill="#fff" />
</svg>