<svg width="97" height="96" fill="none" xmlns="http://www.w3.org/2000/svg">
  <path fill-rule="evenodd" clip-rule="evenodd" d="M48.34 96c24.24 0 44.32-17.73 47.8-40.85-2-.39-3.66-.89-4.48-1.48-1.1.22-1.8.06-2.8-.16a51.7 51.7 0 0 0-.5-.1c-4.71 4.17-7.81 5.96-12.79 6.01-1.19 1.93-1.47 2.57-.74 5.35-.26.49-1.14 1.45-2.02 1.07-.88-.37-1.78-2.05-1.95-5.08.67-1.05.9-1.63 1.29-2.54l.06-.14c-1.1 1.08-1.68 1.59-2.7 2.01.03 1.3-.21 1.9-1.34 2.67.13 1.4.18 2.17-.68 3.35l-.1.03c-.69.21-1.1.34-1.92-.03-.09.44-.15.7-1.34.67-.6-.17-.92-.44-1.35-2a6.99 6.99 0 0 0-.67-3.35 9.4 9.4 0 0 1 .67-3.35c-1.55-.63-2.1-1.31-2.02-3.34-.08-.17.3-.34.95-.63 1.01-.45 2.7-1.2 4.44-2.71a3.24 3.24 0 0 1-1.96-1.6l-3.5-1.08-.03-.02c-.62-.35-.98-.56-1.31.02-.9.5-1.52.7-3.37.4-1.35.27-3.92.54-5.39-.4-.65-.4-.92-.69-1.08-1.34.32-.84 1.94-1.16 4.99-1.77 1.19-.24 2.6-.53 4.24-.9 1.08-.07 2.52.12 4.43.37l2.3.3a83.06 83.06 0 0 0 7.86-1.91c3.92-1.1 7.84-2.2 14.36-2.77 3.14-.48 5.75-.82 8.24-1.1A48.25 48.25 0 0 0 48.34 0a48.31 48.31 0 0 0-46 33.26C6.9 31.46 10.99 30 12.47 30c3.04 0 13.13 1.42 20.87 4.01 1.35.76 1.85 1.72 2.49 2.95l.2.4a30.55 30.55 0 0 1 8.08 4l.22.31c1.8 2.52 2.9 4.03 3.82 7.05-.23.68-.43 1-2.02.67a8.48 8.48 0 0 1-2.69-3.34 3.1 3.1 0 0 1-1.35-.67c1.06 3.4 1.65 5.32 2.02 8.7-.06.07-.1.17-.13.26-.19.46-.33.8-2.56-1.6.16.76.21 1.14 0 1.33-.6.19-2.34.25-3.37-3.34-.54-2.29-1.38-3.46-3.36-5.35-.42 3 .08 4.57 1.34 7.36-.9 1.1-1.52 1.51-3.36.66-.7.59-1.03.75-1.35.67-1.18-.95-1.58-1.62-1.34-3.34-2.47-2.91-4.32-3.9-8.08-4.68-2.62-.98-4.1-1.9-6.74-4.68l-.42.16c-3.42 1.28-5.46 2.05-6.3 3.85a66.96 66.96 0 0 1-8.3 6C1.87 76.31 22.8 96 48.33 96Z" fill="#FFB300" />
</svg>