<svg width="550" height="388" fill="none" xmlns="http://www.w3.org/2000/svg">
  <path fill="#282526" d="M0 0h550v388H0z" />
  <circle cx="255.5" cy="175.5" r="147.5" fill="url(#a)" />
  <path d="m262.5 258-92.5 6.5L297.5 308l-35-50Z" fill="url(#b)" />
  <path d="M170 313v-48.5l127 43L206 179l12-11.5 151-27L447.5 250 433 264v35l-131 66-132-52Z" fill="#090B0A" />
  <path d="M302.5 320 433 263.5" stroke="#1A1D1C" />
  <path d="M302.5 364.5V320l15-16m0 0s-98.5-135-99-136m99 136L446 249" stroke="#313332" />
  <path d="m250.5 149-13 15 14.5-2.5 9.5-12.5h-11ZM343.5 136l-9 10.5 11.5-2 5.5-8.5h-8Z" fill="#CCA33A" />
  <circle cx="318" cy="346" r="3" fill="#B89A4E" />
  <circle cx="425.5" cy="294.5" r="2.5" fill="#B89A4E" />
  <path d="m171.92 92.84.43.32a4.6 4.6 0 0 0-.67 1.55c-.07.33-.1.66-.06 1a.92.92 0 0 1 .2-.07.69.69 0 0 1 .72.2c.14.14.21.33.21.55 0 .3-.08.53-.25.69a.88.88 0 0 1-.63.24 1 1 0 0 1-.85-.42c-.19-.28-.28-.63-.28-1.04a4 4 0 0 1 .14-.97c.1-.39.25-.76.42-1.14.18-.37.38-.68.62-.91Zm2.82 0 .43.32a4.6 4.6 0 0 0-.67 1.55c-.08.33-.1.66-.07 1a.92.92 0 0 1 .21-.07.69.69 0 0 1 .72.2c.14.14.2.33.2.55 0 .3-.08.53-.25.69a.88.88 0 0 1-.62.24 1 1 0 0 1-.85-.42c-.2-.28-.29-.63-.29-1.04a4 4 0 0 1 .15-.97c.1-.39.24-.76.41-1.14.18-.37.4-.68.63-.91ZM178.66 109.34c-.33 0-.61-.08-.85-.24-.23-.16-.35-.4-.35-.74 0-.2.07-.37.2-.53a.6.6 0 0 1 .49-.24c.26 0 .43.07.51.24.1.17.15.32.15.45v.1c0 .04 0 .08-.02.12.03.03.1.04.18.04.12 0 .26-.06.41-.16.15-.11.28-.27.4-.47.14-.23.3-.58.48-1.05.2-.47.4-1.03.64-1.68l-2.5-5.35a12.27 12.27 0 0 1-.85-2.2l-.76.03V97h3.31v.48h-.06c-.45.03-.7.2-.74.51-.04.3.08.76.37 1.38l1.87 4.01a112.44 112.44 0 0 0 1.38-4.01l.25-.72.28-.67c.1-.2.18-.33.25-.39l-1.1.07V97h2.51v.48c-.4.15-.7.4-.9.75-.19.34-.39.79-.59 1.33l-2 5.58c-.32.9-.61 1.66-.88 2.28-.26.63-.56 1.1-.88 1.42-.32.33-.72.5-1.2.5ZM189.92 105.26c-.74 0-1.4-.18-2-.52a3.78 3.78 0 0 1-1.4-1.47 4.73 4.73 0 0 1-.5-2.25c0-.75.16-1.45.5-2.1.33-.65.8-1.17 1.41-1.57a3.72 3.72 0 0 1 3.36-.38c.4.14.75.36 1.05.65.3.3.53.66.7 1.1.17.45.25.96.25 1.56l-5.63.1c0 .8.09 1.52.26 2.14.18.6.47 1.08.86 1.42.4.34.9.5 1.52.5a3.94 3.94 0 0 0 1.98-.66c.3-.2.55-.42.73-.67l.38.32c-.29.45-.63.8-1.04 1.07a4.36 4.36 0 0 1-2.43.76Zm-2.2-5.56h4.07c0-.38-.06-.75-.17-1.1-.11-.36-.3-.66-.55-.88-.25-.23-.6-.35-1-.35-.63 0-1.14.18-1.56.56-.4.36-.67.95-.8 1.77ZM199.87 105a4.79 4.79 0 0 1-.06-.48 7.13 7.13 0 0 0-.05-.43c-.36.36-.76.65-1.18.86-.42.2-.86.3-1.33.3-.81 0-1.42-.17-1.81-.54a1.8 1.8 0 0 1-.6-1.36c0-.49.16-.91.46-1.26.3-.37.7-.66 1.18-.88a7.57 7.57 0 0 1 3.25-.67v-1c0-.37-.03-.72-.1-1.05-.06-.33-.2-.6-.41-.82-.22-.21-.56-.32-1.03-.33-.3-.01-.63.04-.96.17-.32.13-.55.35-.7.66.08.08.14.18.16.3.03.1.05.21.05.3 0 .13-.06.28-.16.45-.11.16-.3.24-.56.23-.23 0-.4-.08-.52-.23a.92.92 0 0 1-.17-.56c0-.36.13-.68.4-.97.28-.29.65-.52 1.13-.69a4.85 4.85 0 0 1 1.64-.26c.9 0 1.55.24 1.98.72.43.47.63 1.22.62 2.24v1.2l-.01 1.2v1.2a8.75 8.75 0 0 1-.07 1.1l.56-.04.58-.03v.67h-2.29Zm-.14-3.92a6.6 6.6 0 0 0-2.26.5c-.33.16-.6.37-.81.64-.2.25-.3.57-.3.94.03.4.16.7.4.9.24.19.53.28.86.28.43 0 .81-.08 1.13-.24.33-.17.66-.4.98-.7a4.13 4.13 0 0 1-.02-.38v-.94l.02-1ZM208.71 104.52c.33 0 .56-.08.7-.24.12-.17.2-.4.22-.69.02-.3.03-.64.03-1.02v-2.24c0-.92-.15-1.6-.45-2.07-.29-.45-.75-.68-1.38-.67a2.9 2.9 0 0 0-2.08 1v4.71a9.89 9.89 0 0 1-.08 1.1c.17-.02.34-.02.5-.02l.51-.04v.66h-3.26v-.48c.33 0 .56-.08.69-.24.12-.17.2-.4.22-.69.03-.3.05-.64.05-1.02v-8.05c0-.16.02-.35.05-.56l-.58.03-.56.03v-.67c.47 0 .83-.02 1.09-.06.26-.04.46-.1.59-.16.14-.07.25-.14.32-.21h.46v4.88a5.14 5.14 0 0 1 1.7-.91c.32-.1.63-.15.93-.15.93 0 1.6.3 2 .88.41.58.63 1.48.64 2.7l.01 2.98a9.89 9.89 0 0 1-.06 1.1c.17-.02.34-.02.5-.02l.5-.04v.66h-3.26v-.48ZM214.66 107.86l-.43-.32a4.53 4.53 0 0 0 .67-1.57c.09-.33.1-.65.06-.97a.94.94 0 0 1-.2.06.61.61 0 0 1-.2.04.72.72 0 0 1-.52-.23.79.79 0 0 1-.21-.56c0-.3.08-.53.25-.69a.91.91 0 0 1 .63-.24c.37 0 .65.15.85.44.19.27.28.62.28 1.02a5.49 5.49 0 0 1-1.18 3.02ZM225.12 105.05l-2.1-6.15a8.35 8.35 0 0 1-.42-1.3l-.84.06V97h3.39v.48c-.48.01-.75.18-.8.5-.04.3.02.72.2 1.23l.73 2.24.25.78.26.77.29-.86.3-.9 1.43-4.24h.65l1.62 4.66.25.72.26.73a30.41 30.41 0 0 0 .48-1.39l1.06-3.04a19 19 0 0 1 .22-.6c.08-.2.16-.35.26-.47l-.93.05V97h2.78v.48c-.28.01-.5.05-.69.11a1.3 1.3 0 0 0-.72.64c-.07.15-.14.32-.2.51l-2.3 6.3h-.65l-1.52-4.36a32.74 32.74 0 0 0-.38-1.12l-.2-.56a33.66 33.66 0 0 0-.38 1.12l-.19.56-1.5 4.37h-.61ZM239.18 105.26c-.73 0-1.4-.18-2-.52a3.78 3.78 0 0 1-1.39-1.47 4.73 4.73 0 0 1-.51-2.25c0-.75.16-1.45.5-2.1.34-.65.81-1.17 1.42-1.57a3.72 3.72 0 0 1 3.36-.38c.4.14.74.36 1.04.65.3.3.53.66.7 1.1.17.45.26.96.26 1.56l-5.63.1c0 .8.08 1.52.25 2.14.18.6.47 1.08.87 1.42.4.34.9.5 1.52.5a3.94 3.94 0 0 0 1.98-.66c.3-.2.54-.42.72-.67l.38.32c-.28.45-.63.8-1.03 1.07a4.36 4.36 0 0 1-2.44.76Zm-2.2-5.56h4.08c0-.38-.06-.75-.18-1.1-.1-.36-.29-.66-.54-.88-.26-.23-.6-.35-1.01-.35-.62 0-1.14.18-1.56.56-.4.36-.67.95-.8 1.77ZM253.96 104.52c.33 0 .56-.08.69-.24.13-.17.2-.4.22-.69.03-.3.04-.64.04-1.02v-2.24c0-.92-.15-1.6-.45-2.07-.29-.45-.75-.68-1.38-.67a2.9 2.9 0 0 0-2.08 1v4.71a9.08 9.08 0 0 1-.08 1.1c.17-.02.34-.02.5-.02l.51-.04v.66h-3.26v-.48c.33 0 .56-.08.68-.24.13-.17.2-.4.23-.69.03-.3.05-.64.05-1.02v-8.05c0-.16.02-.35.04-.56l-.57.03-.56.03v-.67c.47 0 .83-.02 1.09-.06.26-.04.46-.1.59-.16.14-.07.24-.14.32-.21h.46v4.88a5.2 5.2 0 0 1 1.7-.91c.32-.1.63-.15.93-.15.92 0 1.6.3 2 .88.41.58.63 1.48.64 2.7l.01 2.98a9.08 9.08 0 0 1-.06 1.1c.17-.02.33-.02.5-.02l.5-.04v.66h-3.26v-.48ZM263.59 105a5.1 5.1 0 0 1-.07-.48 7.13 7.13 0 0 0-.04-.43c-.37.36-.76.65-1.19.86-.41.2-.86.3-1.33.3-.8 0-1.4-.17-1.8-.54a1.8 1.8 0 0 1-.6-1.36c0-.49.15-.91.45-1.26.31-.37.7-.66 1.19-.88a7.57 7.57 0 0 1 3.25-.67v-1c0-.37-.04-.72-.1-1.05-.07-.33-.2-.6-.42-.82-.21-.21-.55-.32-1.02-.33-.31-.01-.63.04-.96.17-.32.13-.56.35-.7.66.08.08.13.18.15.3.04.1.05.21.05.3 0 .13-.05.28-.16.45-.1.16-.3.24-.56.23-.22 0-.4-.08-.51-.23a.92.92 0 0 1-.18-.56c0-.36.14-.68.4-.97.28-.29.66-.52 1.14-.69a4.85 4.85 0 0 1 1.63-.26c.9 0 1.56.24 1.99.72.42.47.63 1.22.62 2.24v1.2c0 .4 0 .8-.02 1.2v1.2a7.96 7.96 0 0 1-.06 1.1l.56-.04.58-.03v.67h-2.3Zm-.15-3.92a6.6 6.6 0 0 0-2.25.5c-.33.16-.6.37-.82.64-.2.25-.3.57-.29.94.03.4.15.7.39.9.24.19.53.28.86.28.44 0 .82-.08 1.14-.24.33-.17.65-.4.97-.7a4.13 4.13 0 0 1-.01-.38v-.94l.01-1ZM267.15 109.08v-.48c.33 0 .56-.08.69-.26.13-.16.2-.39.22-.68.02-.3.03-.63.03-1.01l.04-7.73v-.51c0-.17.03-.35.06-.53l-.58.03-.56.03v-.67c.47 0 .82-.02 1.06-.06.25-.04.42-.1.53-.16.12-.07.21-.14.29-.21h.48a13.9 13.9 0 0 1 .06.86c.32-.28.7-.51 1.14-.68a3.3 3.3 0 0 1 3.07.2c.53.32.96.78 1.3 1.38.32.59.49 1.3.49 2.11 0 .9-.2 1.7-.58 2.39a4.22 4.22 0 0 1-1.48 1.6 3.84 3.84 0 0 1-3.94.03v2.65a8.32 8.32 0 0 1-.06 1.1l.5-.04c.16 0 .33 0 .5-.02v.66h-3.26Zm4.2-4.46c.52 0 .96-.16 1.32-.47.37-.32.66-.75.85-1.3a5.47 5.47 0 0 0 .05-3.53 2.8 2.8 0 0 0-.79-1.3c-.35-.33-.82-.5-1.4-.5-.37 0-.72.1-1.06.28-.33.17-.61.38-.83.62v.2l.01.41v.88l-.01 1.57v2.51a3.09 3.09 0 0 0 1.87.63ZM277.02 109.08v-.48c.33 0 .56-.08.69-.26.12-.16.2-.39.22-.68.02-.3.03-.63.03-1.01l.03-7.73v-.51c.01-.17.03-.35.07-.53l-.58.03-.56.03v-.67c.47 0 .82-.02 1.06-.06.24-.04.42-.1.52-.16.12-.07.22-.14.3-.21h.47a13.9 13.9 0 0 1 .07.86c.32-.28.7-.51 1.13-.68a3.3 3.3 0 0 1 3.07.2c.54.32.97.78 1.3 1.38.33.59.5 1.3.5 2.11 0 .9-.2 1.7-.58 2.39a4.22 4.22 0 0 1-1.49 1.6 3.84 3.84 0 0 1-3.93.03v2.65a8.32 8.32 0 0 1-.07 1.1l.5-.04c.17 0 .34 0 .51-.02v.66h-3.26Zm4.2-4.46c.52 0 .95-.16 1.32-.47.37-.32.65-.75.84-1.3a5.47 5.47 0 0 0 .05-3.53 2.8 2.8 0 0 0-.78-1.3c-.35-.33-.82-.5-1.4-.5-.37 0-.72.1-1.06.28-.34.17-.61.38-.84.62v.2c.01.07.02.2.02.41v.88c0 .39 0 .9-.02 1.57v2.51a3.09 3.09 0 0 0 1.88.63ZM288.13 109.34c-.33 0-.6-.08-.84-.24-.24-.16-.36-.4-.36-.74 0-.2.07-.37.2-.53a.6.6 0 0 1 .5-.24c.25 0 .42.07.5.24.1.17.15.32.15.45v.1c0 .04 0 .08-.02.12.04.03.1.04.18.04.13 0 .26-.06.42-.16.14-.11.28-.27.4-.47.13-.23.3-.58.48-1.05.19-.47.4-1.03.63-1.68l-2.5-5.35a11.07 11.07 0 0 1-.85-2.2l-.76.03V97h3.31v.48h-.06c-.45.03-.7.2-.74.51-.04.3.09.76.37 1.38l1.88 4.01a120.88 120.88 0 0 0 1.37-4.01l.26-.72c.1-.26.18-.48.27-.67.1-.2.18-.33.25-.39l-1.1.07V97h2.51v.48c-.4.15-.7.4-.9.75-.19.34-.38.79-.58 1.33l-2 5.58c-.33.9-.62 1.66-.89 2.28a4.5 4.5 0 0 1-.88 1.42c-.31.33-.71.5-1.2.5ZM296.2 97.32l-.43-.32a4.6 4.6 0 0 0 .67-1.55c.09-.34.11-.67.07-1l-.21.09-.2.01a.72.72 0 0 1-.52-.22.79.79 0 0 1-.2-.56c0-.3.08-.53.25-.69a.91.91 0 0 1 .62-.24c.38 0 .66.14.85.43.2.28.29.62.29 1.03a5.86 5.86 0 0 1-.58 2.11 3.4 3.4 0 0 1-.6.91Zm2.82 0-.43-.32a4.6 4.6 0 0 0 .67-1.55c.09-.34.1-.67.06-1l-.2.09-.2.01a.72.72 0 0 1-.52-.22.79.79 0 0 1-.21-.56c0-.3.08-.53.25-.69a.91.91 0 0 1 .63-.24c.37 0 .65.14.85.43.19.28.28.62.28 1.03a5.86 5.86 0 0 1-.58 2.11 3.4 3.4 0 0 1-.6.91Z" fill="#F0EFE9" />
  <defs>
    <radialGradient id="a" cx="0" cy="0" r="1" gradientUnits="userSpaceOnUse" gradientTransform="rotate(64.8 -34.41 332.4) scale(197.277 178.264)">
      <stop stop-color="#D9AE40" />
      <stop offset="1" stop-color="#FAE9C0" stop-opacity=".15" />
    </radialGradient>
    <linearGradient id="b" x1="172" y1="239.5" x2="262.5" y2="275.5" gradientUnits="userSpaceOnUse">
      <stop stop-color="#57471F" stop-opacity="0" />
      <stop offset="1" stop-color="#C9A343" />
    </linearGradient>
  </defs>
</svg>