<svg width="550" height="388" xmlns="http://www.w3.org/2000/svg">
  <path fill="#85090A" d="M0 0h550v388H0z" />
  <g filter="url(#a)">
    <path d="M295.3 265.8s-12.6 9.5-20.5 6.5c-21-8-67.2-29.5-67.2-29.5l-32.4-16-15.9-8.5-7.5-4s-5-2.8-7-5.5c-1.5-2-.5-7-.5-7s6.5-21.5 12.5-33.5c2.7-5.4 11.5-11 11.5-11l16-10c37-23.8 66.5-35 101-50 1.3-.5 2.2-.2 3.5 0 8 1.5 19.5 6.5 19.5 6.5s30.4 11.5 49 22c18.7 10.5 35.5 15.5 46 30.5 7 10-7.5 34.5-7.5 34.5l-6 9c-35.5 26.5-94.5 66-94.5 66Z" fill="#222" />
    <path d="M291.3 218.3c-2-1.6-123.5-58.5-123.5-58.5l3.5-2 121 56c3.5 1.8 6 5 6.5 8s-.5 5.5-1.5 8-10 21-16.5 36c-1.5 3.5-8 4.5-7 3l19-40s2-3.5 1.5-5.5-1-3.4-3-5ZM207.8 151.8c1 0-4.5.3-4.5 0 0-.5 25-13.2 40.5-21.5 17-9 27-14 41-20 2.4-1 9 .5 9 .5s59 28.5 67.5 34c1 .7 1.8 1 2 2 .4 1.5-.5 3-2 4.5-4 4-67 37.5-71.5 41-.3.3-1-1.6-.5-2 3-2.5 61.5-33.5 70.5-40.5.6-.4 1.3-1.9.5-2.5-2.5-2-50-26.5-68-34.5-.5-.2-4.3-1.1-6-.5-25 10-79.5 39.4-78.5 39.5ZM381.8 203.8l-86 58.5 3.5-9 86-58.5-3.5 9Z" fill="#535353" />
    <path d="m289.8 192.3-86.5-40.5h4.5l82 38v2.5Z" fill="#535353" />
    <circle cx="160.2" cy="191.8" r="2.5" transform="rotate(25.3 160.2 191.8)" fill="#911414" />
    <circle cx="166.2" cy="194.8" r="2.5" transform="rotate(25.3 166.2 194.8)" fill="#911414" />
    <circle cx="163.1" cy="185.5" r="2.5" transform="rotate(25.3 163.1 185.5)" fill="#911414" />
    <circle cx="169.1" cy="188.5" r="2.5" transform="rotate(25.3 169.1 188.5)" fill="#911414" />
    <circle cx="166.1" cy="179.1" r="2.5" transform="rotate(25.3 166.1 179.1)" fill="#911414" />
    <circle cx="172.1" cy="182.1" r="2.5" transform="rotate(25.3 172.1 182.1)" fill="#911414" />
    <path fill="#468C3C" d="m188 178.2 94 45.4-14.2 29.3-93.9-45.4z" />
    <path d="m210.7 209.9.3 1-.8 1.5-1 .2 1.5-2.7Zm1.7 4.4-.3-1 .8-1.5 1-.3-1.5 2.8Zm-1-3.8-.4-.6.7-.1 1.7.9.2.5-.6.2-1.7-1Zm1.2-3.8 2.8 1.5-1 .3-1.5-.8-.3-1Zm-1.8 3 1.4-2.8.4 1-.8 1.5-1 .2Zm4.6-1.2-1.4 2.8-.4-1 .8-1.5 1-.3ZM215.4 212.3l.3 1-.8 1.5-1 .3 1.5-2.8Zm2.3 4.8-.3-1 .8-1.6 1-.2-1.5 2.8Zm.3-5.5-.1.3-.6-.3-.6-1.8.2-.6.5.3.6 1.8v.3Zm-2.5.5 1-2 .4 1-.4.7-1 .3Zm4.8 0-1 2-.4-1 .4-.8 1-.3Zm-2.1-.4.2-.2 1.8-.5.6.2-.4.5-1.8.5-.6-.2.2-.3ZM182.8 199.4l1.7-.5 2.6 1.3.4 1.7-4.7-2.5Zm5.3 2.2-.6-1.7 1.4-2.6 1.7-.4-2.5 4.7Zm-1.9-6.5-.4-1 1-.2 2.9 1.6.5 1-1.1.1-2.9-1.5Zm2.2-6.5 4.7 2.5-1.6.6-2.6-1.3-.5-1.8Zm-3 5 2.4-4.7.6 1.6-1.4 2.7-1.7.5ZM192.9 199.4l1 .6-.5 1.1-1.1-.6.6-1Zm1.3-2.6 1.1.6-.5 1.1-1.2-.6.6-1.1ZM200 207.8l-.6-1.7 1.3-2.6 1.7-.5-2.4 4.8Zm-2-6.5a32 32 0 0 0-.5-1l1-.1 3 1.4.5 1-1 .2-3-1.5Zm-1-1.4 2.4-4.8.7 1.6-1.3 2.7-1.7.5Zm8-2-2.5 4.7-.6-1.6 1.3-2.7 1.7-.5ZM201.5 209.2l1.7-.7 2.7 1.3.4 1.7-4.8-2.3Zm2.3-5.5.6 1.7-1.3 2.6-1.7.5 2.4-4.8Zm3.1 7.5-.6-1.7 1.3-2.6 1.7-.5-2.4 4.8Zm-2-6.5-.5-1 1-.2 3 1.5.4 1-1 .2-3-1.5Zm2-6.5 4.8 2.4-1.6.6-2.7-1.3-.5-1.7Zm-3 5.1 2.4-4.8.7 1.6-1.3 2.7-1.7.5ZM231.8 217.7l-.6-1.7 1.4-2.6 1.7-.5-2.5 4.8Zm-4-8.1.6 1.7-1.4 2.6-1.7.5 2.5-4.8Zm-.4 9.3.2-.5.9.6 1.1 3-.3 1-1-.5-1-3.1.1-.5Zm4.2-.8-1.7 3.5-.7-1.7.7-1.3 1.7-.5Zm-8.2.1 1.7-3.5.7 1.7-.7 1.3-1.7.5Zm3.6.5-.3.4-3.2.9-1-.4.7-.9 3.2-.8 1 .3-.4.5ZM232.7 218.8l.6 1.7-1.3 2.6-1.7.4 2.4-4.7Zm3 7.5-.6-1.7 1.4-2.6 1.7-.4-2.5 4.7Zm-2-6.5a36 36 0 0 0-.4-1l1-.2 3 1.5.4 1-1 .2-3-1.5Zm2.2-6.5 4.8 2.5-1.7.6-2.6-1.4-.5-1.7Zm-3 5 2.4-4.7.7 1.6-1.4 2.7-1.7.5Zm7.9-1.9-2.5 4.8-.6-1.7 1.3-2.6 1.8-.5ZM240.2 224.4l-1.2 2.3-1.7.5 2.5-4.8.4 2Zm2.5.9.8 2.6-1 1.5a1128.5 1128.5 0 0 0-.7-2.7l-.7-2.5 1.6 1.1Zm-3-2.9.7 1.7-1.4 2.6-1.7.5 2.5-4.8Zm1.1 1-.4-1 1-.1 3 1.5.4 1-1 .1-3-1.5Zm2.2-6.4 4.7 2.4-1.6.6-2.6-1.3-.5-1.7Zm-3 5 2.4-4.8.6 1.7-1.4 2.6-1.7.5Zm7.8-2-2.4 4.8-.6-1.6 1.3-2.7 1.7-.5Zm-6.7 4.2 1.6.8a503.3 503.3 0 0 1 .8 2.9l-1 1.5a1128.5 1128.5 0 0 0-.7-2.7l-.7-2.5ZM246.7 224.8l2.5-4.8.6 1.7-1.3 2.6-1.8.5Zm9-1.4-2.5 4.8-.6-1.7 1.4-2.6 1.7-.5Zm-9.2 1.8.6 1.7-1.4 2.6-1.6.5 2.4-4.8Zm4 8.1-.5-1.7 1.3-2.6 1.7-.5-2.4 4.8Zm-1.2-9.2 1-2.2.5 6.7-1.1 2.1-.4-6.6ZM253.4 234.7l-.6-1.7 1.3-2.6 1.7-.5-2.4 4.8Zm5-10-2.4 4.8-.6-1.6 1.3-2.6 1.7-.5ZM257.6 230.4l2.5-4.8.6 1.6-1.3 2.7-1.8.5Zm9-1.5-2.5 4.8-.6-1.6 1.4-2.7 1.7-.5Zm-9.2 1.8.6 1.7-1.3 2.6-1.7.5 2.4-4.8Zm4 8.1-.5-1.7 1.3-2.6 1.7-.5-2.4 4.8Zm-1.2-9.2 1-2.2.5 6.7-1.1 2.2-.4-6.7ZM263.7 239.7l1.6-.5 2.4 1.2.4 1.5-4.4-2.2Zm2.2-5 .5 1.6-1.2 2.4-1.5.4 2.2-4.4Zm2.7 7-.5-1.6 1.2-2.4 1.6-.4-2.3 4.4Zm-1.7-6-.5-1h1l2.7 1.3.4.9-1 .2-2.6-1.4Zm2-6 4.3 2.3-1.5.6-2.4-1.3-.5-1.5Zm-2.8 4.7 2.2-4.4.6 1.5-1.3 2.4-1.5.5Z" fill="#152C1E" />
    <path d="M189.3 246.3c.5-3-2.5-9-2.5-14 0-2 78.5 36 78.5 36-5 5-25.5 22-29 23-2 .6-3.5.3-5.5-.5a527.9 527.9 0 0 1-50.5-23.5c-1-.8-4.5-4.5-3-8 1.7-3.8 11.5-10 12-13Z" fill="#222" />
    <path d="M188.8 229.3a37.1 37.1 0 0 0 3 16c4.5 4.5 35 18.5 35 17 0-4.1-1.5-8-.5-10.5.7-1.6 7.5-4.5 7.5-5.5 0-.5-9.5-4.5-11-4-2.3.8-3 2-5 3.5-1.6 1.2-18.5-6-18.5-7 0-.6-.3-1.1 0-1.5.5-.5 4.8-2.3 4.5-2.5a83 83 0 0 0-13.5-7c-1 0-1 .5-1.5 1.5Z" fill="#535353" />
    <path d="M228.3 254.8c-.2.5 0 8.7.5 8.5 1.5-.5 6.5-4 8-5.5.4-.3-2-4-2.5-4s-5.6.3-6 1ZM235.2 248.1c0-.5-6.1 3.6-5.8 3.9.4.3 5.5-.3 5.5-.3s.4-2.9.3-3.6Z" fill="#535353" />
    <path d="M180.3 259.8c.5-1 10.7-11.3 11.5-11.5.8-.2 3.5 1.5 3.5 2s-8 7-10.5 10.5c-1.6 2.3-.8 2.7.5 4 2 2 28.5 15 46 22 1 .4 4 .8 5 0 5-4 23-18.5 24-19s1.8.4 1.5 1c-.5 1-16.5 13-24.5 19-2.9 2.2-4.5 1.7-6 1-16.5-7.5-46-20-49.5-23-2.3-2-2.5-4-1.5-6Z" fill="#535353" />
    <path d="M243.3 260.3c-1.5-1.5-5-2.5-5-3 0-1 .5-1.1 1-1a18 18 0 0 1 6.5 3.5c.8.8-.1 3.7-.5 4.5-2 5-7 9.5-10 13-1.5 1.8-3 1-2.5.5 2-2 12.9-15.1 10.5-17.5Z" fill="#535353" />
    <path d="M247.8 261.3c2 3.5-10.1 16-10.5 17-1 2.5 17-12.5 17.5-13 1-1-7.7-4.5-7-4Z" fill="#535353" />
  </g>
  <defs>
    <filter id="a" x="143" y="97" width="271.2" height="204.6" filterUnits="userSpaceOnUse" color-interpolation-filters="sRGB">
      <feFlood flood-opacity="0" result="BackgroundImageFix" />
      <feColorMatrix in="SourceAlpha" values="0 0 0 0 0 0 0 0 0 0 0 0 0 0 0 0 0 0 127 0" result="hardAlpha" />
      <feOffset dx="4" dy="5" />
      <feGaussianBlur stdDeviation="2.5" />
      <feComposite in2="hardAlpha" operator="out" />
      <feColorMatrix values="0 0 0 0 0 0 0 0 0 0 0 0 0 0 0 0 0 0 0.25 0" />
      <feBlend in2="BackgroundImageFix" result="effect1_dropShadow_1_3" />
      <feBlend in="SourceGraphic" in2="effect1_dropShadow_1_3" result="shape" />
    </filter>
  </defs>
</svg>