<svg width="78" height="87" xmlns="http://www.w3.org/2000/svg">
  <path d="m77.36 0-7.01 78.3L38.82 87 7.38 78.3.36 0h77Z" fill="#264DE4" />
  <path d="m64.34 73.31 6-66.91H38.87v73.94l25.47-7.04v.01Z" fill="#2965F1" />
  <path d="m16.43 35.44.86 9.6h21.58v-9.6H16.43Zm22.44-19.43H14.7l.87 9.6h23.3V16Zm0 54.37v-10l-.05.01-10.74-2.89-.68-7.65h-9.67l1.34 15.08 19.75 5.46.04-.01Z" fill="#EBEBEB" />
  <path d="M50.7 45.05 49.58 57.5l-10.75 2.9v9.99l19.76-5.46.15-1.62L61 38.02l.23-2.58 1.75-19.43H38.83v9.6h13.58l-.87 9.83H38.83v9.6H50.7Z" fill="#fff" />
</svg>