<svg width="76" height="87" viewBox="0 0 76 87" fill="none" xmlns="http://www.w3.org/2000/svg">
<path d="M23.5 87C27.3493 86.9946 31.0389 85.4643 33.7579 82.7453C36.4769 80.0263 38.0027 76.3412 38 72.5V58H23.5C19.6507 58.0054 15.9611 59.5357 13.2421 62.2547C10.5231 64.9737 8.99731 68.6588 9 72.5C8.99731 76.3412 10.5231 80.0263 13.2421 82.7453C15.9611 85.4643 19.6507 86.9946 23.5 87V87Z" fill="#0ACF83"/>
<path d="M9 43.5C8.99731 39.6588 10.5231 35.9737 13.2421 33.2547C15.9611 30.5357 19.6507 29.0053 23.5 29H38V58H23.5C19.6507 57.9946 15.9611 56.4643 13.2421 53.7453C10.5231 51.0263 8.99731 47.3412 9 43.5V43.5Z" fill="#A259FF"/>
<path d="M9 14.5C8.99731 10.6588 10.5231 6.97372 13.2421 4.25473C15.9611 1.53574 19.6507 0.00537512 23.5 0H38V29H23.5C19.6507 28.9946 15.9611 27.4642 13.2421 24.7452C10.5231 22.0263 8.99731 18.3412 9 14.5V14.5Z" fill="#F24E1E"/>
<path d="M38 0H52.4949C56.3451 0.00403202 60.036 1.5338 62.7561 4.25293C65.4762 6.97207 67.0027 10.6579 67 14.5C67.0027 18.3412 65.4769 22.0263 62.7579 24.7452C60.0389 27.4642 56.3493 28.9946 52.5 29H38V0Z" fill="#FF7262"/>
<path d="M66.9949 43.5C66.9976 47.3412 65.4718 51.0263 62.7528 53.7453C60.0338 56.4643 56.3442 57.9946 52.4949 58C48.6465 57.9933 44.9582 56.4623 42.2403 53.7435C39.5224 51.0246 37.9973 47.3403 38 43.5C37.9973 39.6597 39.5224 35.9753 42.2403 33.2565C44.9582 30.5377 48.6465 29.0067 52.4949 29C56.3442 29.0053 60.0338 30.5357 62.7528 33.2547C65.4718 35.9737 66.9976 39.6588 66.9949 43.5V43.5Z" fill="#1ABCFE"/>
</svg>
