<svg width="77" height="87" xmlns="http://www.w3.org/2000/svg">
  <path d="m49.09 84.38.83-13.91 2.3-3.94s-5.23 2.15-13.97 2.15c-8.75 0-13.89-2.11-13.89-2.11l2.57 4.3.91 13.5c0 1.46 4.76 2.63 10.63 2.63 5.87 0 10.62-1.18 10.62-2.63Zm-2.62-64.95 1.74-6.93 9.66-10.2L55.32.1 45.1 11l-2.02 8.27c-1.53-.05-3.05-.08-4.58-.08-10.77 0-19.5 1.24-19.5 2.76 0 1.52 8.73 2.75 19.5 2.75S58 23.46 58 21.94c0-1.12-4.74-2.08-11.53-2.52" fill="#D34A47" />
  <path d="M45.45 23.3s-.38.09-1.49.1c-1.11 0-1.9-.02-2.21-.3a.5.5 0 0 1-.13-.34c0-.2.14-.31.32-.39l.16.27c-.07.03-.11.05-.11.09 0 .15 1.14.25 2 .24.88 0 1.93-.08 1.93-.23 0-.05-.08-.09-.22-.12l.17-.26c.22.06.42.2.42.44 0 .4-.5.46-.84.5" fill="#fff" />
  <path d="M57.85 2.31c.24-.28-.12-1-.82-1.6-.7-.62-1.46-.88-1.7-.6-.25.28.12 1 .82 1.61.7.61 1.46.87 1.7.6Zm-9.23 48.1c-.23-2.22 4.82-5.43 3.53-5.53-2.8.16-4.18 3.28-5.58 6.56-.51 1.2-2.28 6.3-3.43 5.67-1.15-.63 1.5-4.83 2.24-7.32-.86.63-4 3.08-4.8.78-1.3 1.12-4.1 1.71-3.78-1.2-.69 1.23-2.24 2.95-4.11 2.23-2.45-.93 1.42-8.77 2.38-8.38.96.4-.2 2.19-.5 2.88-.66 1.52-1.43 3.44-.92 3.84.89.67 3.28-2.55 3.33-2.62.45-.6 1.73-4.49 2.76-4.04 1.03.45-2.57 5.58-1.22 6.6.27.2 1.37-.12 2.05-.86.44-.47.29-1.52 1.74-5 1.46-3.5 2.75-7.84 3.76-7.5 1 .33.17 2.55-.19 3.39-1.68 3.9-4.58 10.33-3.21 9.85 1.36-.49 2.08-.51 3.42-2.1 1.34-1.57 1.28-4.17 2.18-4.12.9.06.74.9.52 1.53.88-1.02 4.18-3.15 4.97-1.03.95 2.5-4.7 6.1-3.3 5.92 1.37-.18 3.6-1.6 4.56-2.89l2.61-23.62S55 25.64 38.24 25.64c-16.74 0-19.1-2.14-19.1-2.14l2.22 21.56c1.19-3.37 4-10.2 8.42-9.97 2 .1 4.7 4 2.4 4.13-.98.05-1.08-1.95-2.23-2.24-.83-.21-2 .47-2.74 1.2-1.5 1.48-4.7 7.27-4.28 10.16.54 3.68 5.05-1.28 5.82-2.76.54-1.03.9-4.1 2.08-3.79 1.18.32-.1 3.5-.96 6.3-.96 3.16-1.46 6.48-2.66 6.1-1.2-.38.75-4.45.68-5.16-1.12 1.04-3.2 3.7-5.87 2.38l1.38 13.4s3.68 2.91 14.75 2.91c11.08 0 14.9-2.87 14.9-2.87l1.71-15.51c-1.4 1.37-5.85 3.81-6.13 1.06" fill="#D34A47" />
</svg>