<svg width="77" height="87" xmlns="http://www.w3.org/2000/svg">
  <path d="M7 78.3 0 0h77l-7.02 78.3L38.45 87 7.01 78.3Z" fill="#E44D26" />
  <path d="m38.5 80.34 25.48-7.03 6-66.9H38.5v73.93Z" fill="#F16529" />
  <path d="M38.5 35.44H25.74l-.88-9.83h13.63V16H14.34l.22 2.57 2.37 26.47h21.58v-9.6Zm0 24.94-.04.02-10.74-2.9-.68-7.65h-9.68l1.35 15.08 19.75 5.46h.04v-10Z" fill="#EBEBEB" />
  <path d="M38.47 35.44v9.6h11.87L49.22 57.5l-10.75 2.9v9.99l19.76-5.46.14-1.62 2.27-25.29.23-2.58h-22.4Zm0-19.43v9.6h23.28l.2-2.16.43-4.86.23-2.58H38.47Z" fill="#fff" />
</svg>