<svg width="77" height="87" xmlns="http://www.w3.org/2000/svg">
  <path d="M4.5 63.98a4.68 4.68 0 0 0 .41.74l.26.5.5.85.3.46c.17.3.38.6.56.9l.25.38a33.5 33.5 0 0 0 1.77 2.44l.27.36.72.86.26.32c.31.38.65.75.98 1.12l.02.02c.4.5.85.98 1.34 1.4h.02c.25.27.5.53.78.8l.33.3 1.08 1h.02l.18.16c.33.29.66.57 1 .84l.4.33.83.64.44.34.92.66.34.24.1.07.9.6.38.25 1.4.86c.48.29.97.56 1.46.81l.59.3.75.4.18.08h.01l.31.14c.39.2.79.38 1.2.56l.25.1c.46.21.92.4 1.4.6.11.02.23.08.34.12.43.17.88.33 1.33.49l.15.06c.5.16.98.33 1.47.47l.36.11c.51.16 1 .34 1.53.44 32.96 5.99 42.53-19.78 42.53-19.78-8.04 10.46-22.33 13.22-35.85 10.15-.5-.12-1-.28-1.5-.43a38 38 0 0 1-2.13-.67l.3.1-.2-.09a29.85 29.85 0 0 1-1.6-.6h-.03l-1.39-.59-.28-.11-1.6-.74.43.2-.34-.17-.9-.46c-.22-.1-.44-.22-.65-.34l.06.03-1.1-.6-.35-.21c-.54-.32-1.08-.65-1.61-.99l.2.13a4.97 4.97 0 0 1-.4-.27l.02.02c-.35-.22-.68-.44-1.01-.67l-.32-.23c-.35-.24-.69-.48-1.02-.73l.07.05-.42-.32-.85-.66-.38-.3-1.19-1-1.12-1.01-.31-.31-.8-.78-.32-.33c-.33-.32-.65-.66-.97-1l-.02-.03-.05-.05c-.34-.37-.68-.75-1-1.13-.1-.1-.17-.2-.26-.31l-.73-.89c-.33-.41-.65-.83-.97-1.26l-.13-.18C6.9 49.33 4.2 35.22 10.2 23.65l-5.3 6.72c-6.83 9.78-5.98 22.5-.77 32.88l.38.73Z" fill="#1266A9" />
  <path d="m27.47 49.9-.03-.06-.03-.03.06.09Z" fill="#000" />
  <path d="m31.06 54.12.3.29c.36.35.73.7 1.11 1.04l.05.04c.38.34.82.7 1.26 1.04l.07.06c.11.07.2.16.3.24l1.38 1 .05.03c.2.15.4.28.64.42l.28.2 1.02.62.15.08c.3.18.61.35.91.5.1.07.2.11.32.17l.63.33.1.05 1.31.6.3.13 1.07.44c.16.05.31.12.46.16.33.13.68.24 1 .35l.45.14c.46.15.94.34 1.44.42C71.1 66.67 77 47.12 77 47.12c-5.3 7.61-15.57 11.24-26.5 8.4-.55-.13-1.1-.29-1.63-.46l.19.05-.44-.13-1-.35-.46-.17c-.36-.15-.73-.28-1.08-.44l-.3-.12-1.33-.62-.66-.34-.38-.2c-.3-.15-.57-.32-.85-.48a1.77 1.77 0 0 1-.21-.12l-1.01-.62-.32-.2-.66-.44c-.46-.32-.91-.66-1.37-1-.1-.1-.2-.17-.3-.25a30.52 30.52 0 0 1-10.4-14.78c-1.9-6.07-1.48-12.87 1.79-18.4l-4.02 5.69c-4.95 7.08-4.67 16.55-.82 24.04.7 1.38 1.41 2.55 2.2 3.66.73 1.05 1.54 2.28 2.51 3.12.35.4.72.78 1.11 1.16Z" fill="#1266A9" />
  <path d="m7.82 69.28-.02-.02-.02-.03.04.05Zm13.33-2.4.04.03-.04-.03Z" fill="#000" />
  <path d="M43.84 15.98c-2.91 4.27-3.19 9.57-1.18 14.28 2.14 5 6.5 8.93 11.57 10.78.2.09.41.15.63.23l.28.09c.3.1.6.2.9.27 14.05 2.7 17.86-7.2 18.89-8.66-3.35 4.8-8.96 5.95-15.85 4.28-.6-.15-1.19-.33-1.76-.55l.1.03c-.72-.25-1.42-.54-2.1-.87l.12.06c-1.23-.6-2.4-1.31-3.5-2.14C45.8 29.12 42 20.23 46.02 13l-2.17 2.98Z" fill="#1266A9" />
</svg>