<svg width="77" height="87" xmlns="http://www.w3.org/2000/svg">
  <path d="M13.64 12h49.73A13.65 13.65 0 0 1 77 25.62v47.76A13.59 13.59 0 0 1 63.37 87H13.64A13.65 13.65 0 0 1 0 73.38V25.63A13.59 13.59 0 0 1 13.64 12V12Z" fill="#001E36" />
  <path d="M17.33 64.6V31.6c0-.22.1-.35.32-.35.54 0 1.05 0 1.8-.03.77-.03 1.57-.03 2.44-.06.86-.04 1.79-.04 2.79-.07.99-.03 1.95-.03 2.91-.03 2.63 0 4.81.32 6.61 1 1.61.54 3.08 1.44 4.3 2.62a10.2 10.2 0 0 1 2.34 3.66c.49 1.34.74 2.74.74 4.16 0 2.76-.64 5.04-1.92 6.83a10.99 10.99 0 0 1-5.17 3.91c-2.18.8-4.59 1.1-7.22 1.1-.77 0-1.28 0-1.6-.04-.32-.04-.77-.04-1.38-.04v10.3a.4.4 0 0 1-.36.44h-6.22c-.25 0-.38-.12-.38-.41Zm6.99-27.15v10.77c.45.03.86.06 1.25.06h1.7c1.25 0 2.5-.19 3.7-.57 1.02-.3 1.93-.9 2.62-1.7.68-.8 1-1.9 1-3.3a4.65 4.65 0 0 0-2.98-4.68 9.42 9.42 0 0 0-3.8-.64c-.83 0-1.57 0-2.17.03a7.1 7.1 0 0 0-1.32.03Zm37.28 8.82c-.96-.52-1.99-.87-3.08-1.1a17.05 17.05 0 0 0-3.59-.41c-.65-.03-1.3.05-1.93.22-.41.1-.76.32-1 .64a1.7 1.7 0 0 0-.25.87c0 .29.13.57.32.83.29.36.68.64 1.1.87.73.38 1.5.73 2.27 1.05 1.73.59 3.39 1.37 4.94 2.34a7.46 7.46 0 0 1 2.54 2.66 7 7 0 0 1 .74 3.3 7.47 7.47 0 0 1-1.26 4.27 8.04 8.04 0 0 1-3.59 2.85c-1.57.67-3.5 1.03-5.8 1.03-1.48 0-2.93-.13-4.37-.42-1.13-.2-2.23-.54-3.27-1.02-.23-.13-.39-.36-.36-.61v-5.58c0-.1.03-.22.13-.29.1-.06.2-.03.3.03 1.23.73 2.57 1.26 3.97 1.58 1.22.31 2.5.48 3.78.48 1.23 0 2.1-.17 2.67-.45.51-.23.86-.77.86-1.35 0-.45-.25-.86-.76-1.28-.52-.42-1.58-.9-3.15-1.5a19.64 19.64 0 0 1-4.55-2.32 8.31 8.31 0 0 1-2.45-2.72 7.5 7.5 0 0 1 .36-7.15 7.9 7.9 0 0 1 3.37-2.94 12.4 12.4 0 0 1 5.68-1.13c1.31 0 2.66.1 3.98.29.96.12 1.89.38 2.76.73a.6.6 0 0 1 .32.3c.03.12.06.25.06.38v5.22a.4.4 0 0 1-.16.33c-.29.06-.45.06-.58 0Z" fill="#31A8FF" />
</svg>