<svg width="77" height="87" xmlns="http://www.w3.org/2000/svg">
  <path d="M13.64 10h49.73A13.34 13.34 0 0 1 73 14.1 14 14 0 0 1 77 23.97v49.04a14.27 14.27 0 0 1-3.99 9.89A13.61 13.61 0 0 1 63.37 87H13.64a13.34 13.34 0 0 1-9.65-4.1A14 14 0 0 1 0 73.03V23.99a14.27 14.27 0 0 1 3.99-9.9 13.61 13.61 0 0 1 9.65-4.08V10Z" fill="#001E36" />
  <path d="M17.33 64V30.14c0-.23.1-.36.32-.36.54 0 1.05 0 1.8-.04.77-.03 1.57-.03 2.44-.06.86-.03 1.79-.03 2.79-.07.99-.03 1.95-.03 2.91-.03 2.63 0 4.81.33 6.61 1.02a10.51 10.51 0 0 1 6.64 6.45c.49 1.37.74 2.82.74 4.28 0 2.83-.64 5.16-1.92 7a11.03 11.03 0 0 1-5.17 4.02 20.38 20.38 0 0 1-7.22 1.12c-.77 0-1.28 0-1.6-.03-.32-.04-.77-.04-1.38-.04v10.57a.42.42 0 0 1-.08.3.4.4 0 0 1-.28.16h-6.22c-.25 0-.38-.13-.38-.43Zm6.99-27.87V47.2c.45.03.86.06 1.25.06h1.7c1.25 0 2.5-.2 3.7-.59a5.5 5.5 0 0 0 2.62-1.75c.68-.82 1-1.94 1-3.39a5.51 5.51 0 0 0-.74-2.92 4.68 4.68 0 0 0-2.25-1.88 9.2 9.2 0 0 0-3.78-.66c-.84 0-1.58 0-2.18.03-.64-.03-1.1 0-1.32.04Zm37.28 9.05c-.96-.53-1.99-.89-3.08-1.12a16.63 16.63 0 0 0-3.59-.43c-.65-.02-1.3.06-1.93.23-.41.1-.76.33-1 .66-.15.26-.25.6-.25.89 0 .3.13.59.32.85.29.37.68.66 1.1.9.73.39 1.5.75 2.27 1.08 1.73.6 3.39 1.4 4.94 2.4a7.58 7.58 0 0 1 2.54 2.73c.5 1.05.77 2.2.74 3.4a7.82 7.82 0 0 1-1.26 4.37 8.08 8.08 0 0 1-3.59 2.92c-1.57.7-3.5 1.06-5.8 1.06-1.48 0-2.93-.13-4.37-.43a12.7 12.7 0 0 1-3.27-1.05c-.23-.13-.39-.37-.36-.63V57.3c0-.1.03-.23.13-.3.1-.07.2-.03.3.03 1.23.75 2.57 1.3 3.97 1.62 1.22.32 2.5.5 3.78.5 1.23 0 2.1-.18 2.67-.47.51-.23.86-.8.86-1.38 0-.46-.25-.89-.76-1.32a13.5 13.5 0 0 0-3.15-1.55 19.44 19.44 0 0 1-4.55-2.36 8.46 8.46 0 0 1-2.45-2.8 7.85 7.85 0 0 1 .36-7.34 7.97 7.97 0 0 1 3.37-3.02c1.5-.8 3.4-1.16 5.68-1.16 1.31 0 2.66.1 3.98.3.96.13 1.89.4 2.76.75a.6.6 0 0 1 .32.3c.03.13.06.26.06.4v5.36a.4.4 0 0 1-.16.33c-.29.07-.45.07-.58 0Z" fill="#31A8FF" />
</svg>