<svg width="77" height="87" xmlns="http://www.w3.org/2000/svg">
  <path d="M77 53c0-5.05-6.39-9.85-16.18-12.82 2.26-9.9 1.25-17.77-3.17-20.3a6.93 6.93 0 0 0-3.52-.86v3.47c.72 0 1.3.14 1.8.4 2.13 1.21 3.05 5.84 2.33 11.78-.17 1.46-.46 3-.8 4.58a76.65 76.65 0 0 0-9.97-1.7 76.08 76.08 0 0 0-6.53-7.78c5.12-4.72 9.92-7.3 13.19-7.3V19c-4.32 0-9.97 3.05-15.68 8.34-5.71-5.26-11.36-8.28-15.68-8.28v3.47c3.25 0 8.07 2.57 13.18 7.25a73.67 73.67 0 0 0-6.48 7.77c-3.55.37-6.9.95-9.98 1.71a46.61 46.61 0 0 1-.82-4.51c-.73-5.95.18-10.57 2.3-11.8.47-.28 1.08-.4 1.8-.4v-3.47c-1.32 0-2.51.28-3.55.87-4.4 2.52-5.4 10.38-3.12 20.25C6.36 43.18 0 47.96 0 53c0 5.06 6.39 9.86 16.18 12.83-2.26 9.9-1.25 17.77 3.17 20.3 1.02.58 2.21.86 3.53.86 4.32 0 9.97-3.05 15.68-8.34 5.72 5.26 11.37 8.28 15.68 8.28 1.32 0 2.51-.28 3.55-.87 4.41-2.52 5.4-10.38 3.12-20.25C70.64 62.84 77 58.05 77 53.01ZM56.56 42.62c-.58 2.01-1.3 4.08-2.11 6.15a84.1 84.1 0 0 0-4.32-7.38c2.23.33 4.38.74 6.43 1.23ZM49.38 59.2a82.83 82.83 0 0 1-3.79 5.94 82.36 82.36 0 0 1-14.15.02 80.84 80.84 0 0 1-7.06-12.1A80.92 80.92 0 0 1 31.4 40.9a82.36 82.36 0 0 1 14.15-.02 80.83 80.83 0 0 1 7.06 12.1 86.9 86.9 0 0 1-3.24 6.22Zm5.07-2.02a66.32 66.32 0 0 1 2.16 6.19c-2.05.5-4.22.92-6.46 1.24a85.7 85.7 0 0 0 4.3-7.43Zm-15.92 16.6a64.3 64.3 0 0 1-4.36-4.98 80.44 80.44 0 0 0 8.68 0 60.88 60.88 0 0 1-4.32 4.98Zm-11.68-9.17a71.35 71.35 0 0 1-6.43-1.22c.58-2.01 1.3-4.08 2.12-6.15a73.44 73.44 0 0 0 2.05 3.73c.74 1.25 1.5 2.46 2.26 3.64Zm11.6-32.38a64.28 64.28 0 0 1 4.37 4.98 80.44 80.44 0 0 0-8.68 0 60.88 60.88 0 0 1 4.31-4.98Zm-11.61 9.16a85.7 85.7 0 0 0-4.3 7.43 66.34 66.34 0 0 1-2.17-6.2c2.06-.48 4.22-.9 6.47-1.23Zm-14.2 19.49C7.07 58.53 3.47 55.45 3.47 53c0-2.44 3.6-5.54 9.15-7.87a48.65 48.65 0 0 1 4.35-1.57c.9 3.05 2.07 6.22 3.53 9.48a73.28 73.28 0 0 0-3.48 9.43 47.96 47.96 0 0 1-4.4-1.59Zm8.44 22.24c-2.14-1.22-3.06-5.84-2.34-11.78.17-1.47.46-3 .8-4.58 3.08.75 6.44 1.33 9.97 1.7a76.08 76.08 0 0 0 6.53 7.78c-5.12 4.72-9.92 7.3-13.19 7.3-.7-.02-1.3-.16-1.77-.42ZM58.3 71.26c.73 5.94-.18 10.57-2.3 11.8-.47.28-1.08.4-1.8.4-3.25 0-8.07-2.57-13.18-7.25 2.2-2.29 4.4-4.89 6.48-7.77 3.55-.37 6.9-.95 9.98-1.7.36 1.56.64 3.07.82 4.52Zm6.04-10.38A48.65 48.65 0 0 1 60 62.45a74.35 74.35 0 0 0-3.53-9.48 73.3 73.3 0 0 0 3.49-9.43c1.55.48 3.02 1.01 4.4 1.59 5.56 2.35 9.16 5.43 9.16 7.87-.02 2.45-3.61 5.55-9.17 7.88Z" fill="#61DAFB" />
  <path d="M38.48 60.12A7.14 7.14 0 0 0 45.66 53a7.14 7.14 0 0 0-7.18-7.1 7.14 7.14 0 0 0-7.17 7.1 7.14 7.14 0 0 0 7.17 7.12Z" fill="#61DAFB" />
</svg>