<svg width="77" height="87" xmlns="http://www.w3.org/2000/svg">
  <path d="M66.3 62.3c-2.7.02-5.04.67-7 1.64-.71-1.44-1.43-2.7-1.56-3.63-.13-1.09-.3-1.75-.13-3.05.16-1.3.92-3.15.92-3.3-.02-.13-.17-.8-1.72-.81-1.55-.02-2.89.3-3.04.7-.15.42-.45 1.35-.64 2.32-.27 1.42-3.1 6.46-4.7 9.1a9.18 9.18 0 0 1-1.08-2.66c-.14-1.09-.3-1.76-.14-3.05.17-1.3.92-3.15.92-3.3-.01-.13-.16-.8-1.71-.82-1.55-.01-2.89.3-3.04.72-.15.4-.32 1.37-.65 2.3-.31.95-4.07 9.35-5.05 11.54-.4.88-.8 1.76-1.25 2.61-.32.6-.01.05-.05.1l-.41.8v.02c-.22.38-.44.75-.55.75-.07 0-.22-1.02.03-2.4.56-2.92 1.91-7.47 1.9-7.64 0-.08.25-.87-.87-1.28-1.1-.41-1.49.27-1.58.27-.1 0-.17.24-.17.24s1.22-5.13-2.33-5.13c-2.23 0-5.3 2.44-6.81 4.66l-5.18 2.84c-.82.45-1.68.94-2.5 1.38l-.16-.18c-4.3-4.61-12.25-7.87-11.92-14.08.11-2.24.9-8.19 15.28-15.38 11.77-5.9 21.2-4.28 22.84-.68 2.33 5.14-5.04 14.69-17.28 16.06-4.66.54-7.11-1.28-7.73-1.96-.64-.71-.74-.74-.98-.6-.39.2-.15.84 0 1.22.36.95 1.87 2.65 4.42 3.49 2.24.74 7.72 1.15 14.34-1.42 7.41-2.89 13.2-10.9 11.5-17.6-1.73-6.8-12.98-9.05-23.61-5.25-6.33 2.26-13.19 5.8-18.13 10.44-5.86 5.5-6.8 10.31-6.4 12.3 1.37 7.12 11.13 11.76 15.04 15.2l-.54.3c-1.96.96-9.4 4.88-11.27 9.02-2.1 4.69.33 8.05 1.96 8.5 5.02 1.41 10.16-1.11 12.95-5.26 2.76-4.16 2.43-9.56 1.15-12.02l-.04-.1 1.54-.9c.99-.59 1.97-1.13 2.82-1.6a19.13 19.13 0 0 0-1 5.14c-.21 2.66.86 6.1 2.3 7.46.5.44 1.17.66 1.84.61 1.66 0 2.41-1.38 3.24-3.02C31.1 74.9 32 72.57 32 72.57s-1.13 6.3 1.95 6.3c1.13 0 2.26-1.46 2.77-2.22v.02l.09-.16.18-.28v-.03c.45-.8 1.46-2.59 2.96-5.57 1.39-2.83 2.66-5.71 3.8-8.64 0 0 .19 1.18.75 3.11.33 1.15 1.04 2.4 1.6 3.63l-.72 1 .02.01c-.36.49-.77 1-1.19 1.52-1.54 1.83-3.37 3.94-3.61 4.54-.29.72-.23 1.24.33 1.67.4.3 1.13.36 1.9.3a8.37 8.37 0 0 0 2.82-.65c.87-.31 1.7-.74 2.44-1.28A5.45 5.45 0 0 0 50.42 71a9.73 9.73 0 0 0-.89-3.4l.4-.6a63.54 63.54 0 0 0 4.22-7.33s.18 1.17.74 3.11c.28.98.85 2.05 1.37 3.12-2.23 1.82-3.63 3.94-4.11 5.33-.89 2.57-.2 3.73 1.11 4 .59.12 1.43-.15 2.06-.42.78-.25 1.73-.7 2.6-1.34 1.5-1.13 2.95-2.68 2.88-4.78a9.3 9.3 0 0 0-.65-2.82c1.9-.8 4.35-1.25 7.46-.87 6.7.79 8.02 4.99 7.76 6.75a4.5 4.5 0 0 1-2.12 3.02c-.47.28-.61.39-.57.6.06.32.27.3.67.24.56-.09 3.53-1.43 3.64-4.67.19-4.16-3.74-8.69-10.7-8.65ZM14.65 79.8c-2.2 2.43-5.32 3.35-6.64 2.56-1.43-.83-.88-4.41 1.85-7a36 36 0 0 1 5.22-3.91l1.37-.83.15-.09.35-.21c1 3.68.04 6.92-2.3 9.47Zm16.18-11.05c-.77 1.89-2.4 6.74-3.37 6.47-.85-.23-1.35-3.9-.17-7.53.6-1.83 1.89-4 2.63-4.85 1.23-1.36 2.55-1.82 2.88-1.26.39.72-1.5 5.99-1.97 7.17Zm13.33 6.4c-.32.17-.63.29-.76.2-.1-.06.13-.29.13-.29s1.67-1.8 2.34-2.62c.37-.49.83-1.05 1.3-1.69v.19c0 2.18-2.07 3.63-3 4.21Zm10.3-2.36c-.24-.18-.21-.73.6-2.49a9.35 9.35 0 0 1 2.29-2.96c.14.46.24.9.22 1.3-.02 2.72-1.94 3.73-3.12 4.15Z" fill="#CF649A" />
</svg>