<svg width="77" height="87" xmlns="http://www.w3.org/2000/svg">
  <path d="M73.4 10H3.6C1.63 10 0 11.62 0 13.6v69.8C0 85.37 1.62 87 3.6 87h69.8c1.98 0 3.6-1.62 3.6-3.6V13.6c0-1.98-1.62-3.6-3.6-3.6Z" fill="#3178C6" />
  <path fill-rule="evenodd" clip-rule="evenodd" d="M44.67 69.84v8.43c1.37.7 2.99 1.23 4.85 1.59 1.87.35 3.84.52 5.9.52 2.02 0 3.94-.19 5.75-.58 1.81-.38 3.4-1.02 4.77-1.9a9.73 9.73 0 0 0 3.25-3.49c.8-1.43 1.2-3.2 1.2-5.31 0-1.53-.24-2.87-.7-4.02A9.4 9.4 0 0 0 67.74 62c-.86-.9-1.9-1.7-3.1-2.42a33.05 33.05 0 0 0-4.05-2.01c-1.1-.46-2.1-.9-2.97-1.34-.88-.43-1.62-.87-2.24-1.31a5.74 5.74 0 0 1-1.42-1.43 3 3 0 0 1-.5-1.7c0-.58.15-1.1.45-1.57.3-.46.72-.86 1.26-1.2.55-.33 1.21-.59 2-.77.79-.19 1.66-.28 2.63-.28a16.62 16.62 0 0 1 4.57.64c.8.22 1.56.5 2.3.83.75.34 1.44.73 2.07 1.16v-7.88c-1.28-.5-2.68-.86-4.2-1.1a34.05 34.05 0 0 0-5.21-.35c-2 0-3.9.22-5.68.65-1.79.43-3.36 1.1-4.72 2.01a10.07 10.07 0 0 0-3.22 3.5 10.27 10.27 0 0 0-1.18 5.07c0 2.52.72 4.66 2.16 6.44 1.45 1.77 3.65 3.28 6.59 4.5 1.16.48 2.23.95 3.23 1.4 1 .46 1.86.93 2.6 1.43a6.8 6.8 0 0 1 1.71 1.6 3.28 3.28 0 0 1 .24 3.5 3.5 3.5 0 0 1-1.2 1.21c-.53.34-1.2.61-2 .8-.8.2-1.72.3-2.8.3a16.14 16.14 0 0 1-10.38-3.85Zm-14.17-21h11v-6.96H10.84v6.95h10.95v30.95h8.72V48.83Z" fill="#fff" />
</svg>